<svg width="715" height="689" viewBox="0 0 715 689" fill="none" xmlns="http://www.w3.org/2000/svg">
<path d="M21.4906 72.8473L25.5941 72.4522L17.8193 96.0957L18.4364 102.505C18.6051 104.257 17.6928 105.415 15.5169 105.531L6.62445 105.969L6.31368 102.741L14.6068 102.361L14.0385 96.4598L1.84903 74.7386L5.99865 74.339L14.9094 91.4898L15.0781 93.2419L16.1847 93.1353L16.016 91.3833L21.4906 72.8473ZM32.6796 94.8975L30.4731 71.9824L46.4722 70.4419L46.783 73.6693L34.5646 74.8458L36.4604 94.5335L32.6796 94.8975ZM51.4516 86.6682C51.1009 83.0258 53.0282 80.3274 58.3233 79.2591L67.3681 77.504C66.7336 73.3305 64.2746 71.4732 60.3094 71.855C56.9897 72.1747 54.0426 73.9475 54.4599 78.2816L50.7714 78.6368C50.3141 73.8878 53.502 69.2996 60.003 68.6737C66.4119 68.0565 70.6472 71.9299 71.2377 78.0621L72.1789 87.8368L75.5447 87.5127L75.8554 90.7402L71.798 91.1308C70.046 91.2995 68.9845 90.4245 68.8202 88.7186L68.7004 87.4737L69.0689 85.0184L67.9623 85.125C67.4237 88.7134 65.2953 92.2223 59.7624 92.7551C53.123 93.3944 51.6825 89.0658 51.4516 86.6682ZM55.188 85.8431C55.441 88.4712 57.2385 89.7407 59.9127 89.4832C65.1228 88.9815 68.0962 85.0655 67.6389 80.3165L59.2396 82.0095C56.3615 82.5658 54.9705 83.5839 55.188 85.8431ZM104.214 84.7522L105.111 94.0657L101.33 94.4298L100.744 88.3437L83.131 90.0396L83.717 96.1257L79.9362 96.4898L79.0394 87.1762L82.0825 86.8832C84.0883 81.6178 84.4688 75.9039 83.5987 66.867L99.275 65.3575L101.171 85.0452L104.214 84.7522ZM85.8632 86.5191L97.39 85.4092L95.805 68.9491L87.6441 69.7349C88.1061 76.9497 87.6085 81.9303 85.8632 86.5191ZM117.758 70.2322C123.199 69.7083 127.748 71.0386 128.365 77.4475C128.982 83.8564 124.771 86.0302 119.33 86.554L110.8 87.3754L108.594 64.4603L112.374 64.0962L113.009 70.6895L117.758 70.2322ZM132.378 85.2976L130.172 62.3825L133.906 62.0229L136.113 84.938L132.378 85.2976ZM114.27 83.7838L118.558 83.371C122.431 82.998 125.015 82.2839 124.584 77.8115C124.153 73.3392 121.481 73.1312 117.608 73.5041L113.32 73.917L114.27 83.7838ZM142.904 84.2841L140.697 61.369L148.997 60.5699C154.483 60.0416 158.278 60.793 158.7 65.1731C159.064 68.9539 156.571 70.1246 154.74 70.4406L154.847 71.5471C157.894 71.3002 161.081 72.0171 161.503 76.3973C161.933 80.8696 158.396 82.7924 152.909 83.3207L142.904 84.2841ZM145.3 70.5119L149.911 70.0679C153.646 69.7083 155.38 69.3552 155.069 66.1277C154.816 63.4996 153.02 63.2072 149.285 63.5668L144.674 64.0108L145.3 70.5119ZM146.304 80.932L152.62 80.3238C156.309 79.9686 158.063 79.3344 157.77 76.2914C157.459 73.0639 155.594 72.5454 151.906 72.9006L145.589 73.5088L146.304 80.932ZM165.953 75.643C165.603 72.0005 167.53 69.3021 172.825 68.2338L181.87 66.4788C181.235 62.3052 178.776 60.448 174.811 60.8298C171.491 61.1494 168.544 62.9223 168.962 67.2563L165.273 67.6115C164.816 62.8625 168.004 58.2744 174.505 57.6484C180.914 57.0313 185.149 60.9046 185.739 67.0368L186.681 76.8115L190.046 76.4874L190.357 79.7149L186.3 80.1056C184.548 80.2743 183.486 79.3993 183.322 77.6933L183.202 76.4484L183.571 73.9932L182.464 74.0997C181.925 77.6882 179.797 81.1971 174.264 81.7298C167.625 82.3691 166.184 78.0405 165.953 75.643ZM169.69 74.8179C169.943 77.446 171.74 78.7154 174.414 78.4579C179.625 77.9563 182.598 74.0403 182.141 69.2913L173.741 70.9842C170.863 71.5405 169.472 72.5586 169.69 74.8179ZM209.679 43.6516C210.132 48.3545 207.723 51.844 203.25 52.2746C198.732 52.7097 195.701 49.7441 195.248 45.0412L198.337 44.7438C198.661 48.1096 200.011 49.5618 202.962 49.2776C205.912 48.9935 206.914 47.3149 206.59 43.9491L209.679 43.6516ZM216.677 77.1806L212.942 77.5402L211.051 57.8987L211.442 55.6739L210.381 55.776L202.292 78.5657L194.684 79.2983L192.478 56.3832L196.258 56.0191L198.145 75.6145L197.763 77.9315L198.824 77.8294L206.909 54.9936L214.471 54.2655L216.677 77.1806ZM254.563 50.405L256.769 73.3202L252.988 73.6842L251.093 53.9966L239.704 55.0931L241.6 74.7808L237.819 75.1448L235.613 52.2297L254.563 50.405ZM261.43 61.0051C260.72 53.628 264.922 48.9422 271.423 48.3162C277.878 47.6947 282.515 51.3898 283.194 58.4441L283.336 59.9195L265.216 61.6643C265.864 65.9761 268.298 69.511 273.97 68.9649C277.75 68.6009 280.109 66.5125 280.601 62.9284L284.382 62.5644C283.848 66.199 281.556 71.3988 274.271 72.1002C266.064 72.8905 262.065 67.5984 261.43 61.0051ZM264.941 58.8057L279.372 57.4161C279.017 53.7275 276.294 51.0581 271.729 51.4976C267.211 51.9327 264.586 55.1171 264.941 58.8057ZM288.337 58.6934C287.702 52.1002 291.48 46.385 298.903 45.6702C303.329 45.244 309.24 47.1877 310.479 53.7694L306.652 54.1379C305.585 49.8199 302.533 48.578 299.214 48.8977C293.773 49.4216 291.665 53.6265 292.118 58.3294C292.575 63.0784 295.447 66.8039 300.887 66.28C304.207 65.9603 306.965 64.1591 307.189 59.7168L311.016 59.3483C311.056 66.0454 305.624 69.0813 301.198 69.5075C293.775 70.2222 288.976 65.3328 288.337 58.6934ZM331.55 42.992L335.284 42.6324L337.491 65.5475L333.756 65.9072L332.806 56.0403L319.896 57.2834L320.846 67.1502L317.065 67.5143L314.859 44.5992L318.64 44.2351L319.585 54.0559L332.495 52.8128L331.55 42.992ZM362.205 39.5749C369.582 38.8646 373.795 43.95 374.416 50.405C375.047 56.9521 371.877 62.7018 364.5 63.4122C357.677 64.0692 353.599 59.9015 352.486 54.1453L347.092 54.6647L348.042 64.5316L344.261 64.8956L342.055 41.9805L345.835 41.6165L346.781 51.4372L352.176 50.9178C352.178 45.1473 355.427 40.2275 362.205 39.5749ZM364.19 60.1847C369.492 59.6741 371.097 55.5641 370.635 50.769C370.178 46.02 367.818 42.2918 362.516 42.8024C357.168 43.3174 355.562 47.4274 356.02 52.1764C356.481 56.9715 358.841 60.6997 364.19 60.1847ZM413.37 35.1136L415.577 58.0287L411.796 58.3928L409.9 38.7051L398.512 39.8017L400.407 59.4893L396.627 59.8534L394.42 36.9383L413.37 35.1136ZM420.264 45.9903C419.625 39.3509 423.914 33.633 431.245 32.9271C438.53 32.2257 443.785 37.0246 444.424 43.664C445.068 50.3495 440.825 56.0629 433.54 56.7644C426.209 57.4703 420.908 52.6758 420.264 45.9903ZM424.045 45.6263C424.507 50.4214 427.789 54.0608 433.229 53.5369C438.624 53.0175 441.151 48.8187 440.689 44.0236C440.232 39.2746 436.95 35.6352 431.556 36.1546C426.115 36.6785 423.588 40.8773 424.045 45.6263ZM466.688 53.1073L464.481 30.1922L472.043 29.4641L479.541 50.7993L480.602 50.6972L483.892 28.3231L491.5 27.5906L493.706 50.5057L489.925 50.8698L488.039 31.2743L488.471 28.999L487.364 29.1056L483.978 51.4425L476.416 52.1706L468.829 30.8903L467.769 30.9924L468.582 33.1478L470.468 52.7433L466.688 53.1073ZM498.403 38.1872C497.693 30.8101 501.895 26.1243 508.396 25.4983C514.851 24.8768 519.488 28.5718 520.167 35.6262L520.309 37.1016L502.189 38.8464C502.837 43.1582 505.272 46.6931 510.943 46.147C514.723 45.783 517.082 43.6945 517.574 40.1105L521.355 39.7464C520.821 43.381 518.529 48.5808 511.245 49.2823C503.038 50.0725 499.038 44.7805 498.403 38.1872ZM501.914 35.9877L516.345 34.5982C515.99 30.9096 513.267 28.2402 508.702 28.6797C504.184 29.1148 501.559 32.2992 501.914 35.9877ZM542.981 22.6336L545.187 45.5487L541.406 45.9127L539.511 26.2251L530.566 27.0864C531.732 39.678 531.77 46.8406 524.254 47.5642L523.944 44.3368C528.416 43.9061 527.726 37.2251 526.474 24.2229L542.981 22.6336ZM549.895 33.5083C549.255 26.8689 553.544 21.151 560.875 20.4451C568.16 19.7437 573.415 24.5426 574.055 31.182C574.698 37.8675 570.456 43.5809 563.171 44.2824C555.84 44.9883 550.538 40.1938 549.895 33.5083ZM553.675 33.1443C554.137 37.9394 557.419 41.5788 562.86 41.0549C568.254 40.5355 570.782 36.3367 570.32 31.5416C569.863 26.7926 566.581 23.1532 561.186 23.6726C555.746 24.1965 553.218 28.3953 553.675 33.1443ZM602.204 36.8011L603.101 46.1147L599.32 46.4788L598.734 40.3927L581.121 42.0886L581.707 48.1747L577.926 48.5387L577.03 39.2252L580.073 38.9321C582.079 33.6668 582.459 27.9529 581.589 18.916L597.265 17.4065L599.161 37.0942L602.204 36.8011ZM583.854 38.5681L595.38 37.4582L593.795 20.998L585.634 21.7839C586.096 28.9987 585.599 33.9793 583.854 38.5681ZM629.388 37.4411L625.653 37.8007L623.762 18.1592L624.152 15.9344L623.092 16.0365L615.002 38.8262L607.395 39.5588L605.188 16.6436L608.969 16.2796L610.856 35.875L610.474 38.192L611.534 38.0899L619.62 15.254L627.181 14.526L629.388 37.4411ZM657.214 34.7617L653.479 35.1213L651.588 15.4798L651.979 13.255L650.918 13.3572L642.828 36.1469L635.221 36.8794L633.014 13.9643L636.795 13.6002L638.682 33.1957L638.3 35.5126L639.361 35.4105L647.446 12.5747L655.007 11.8466L657.214 34.7617ZM142.073 174.78L137.646 175.207L128.527 166.033C128.167 166.161 127.802 166.243 127.387 166.283L125.773 166.438L126.719 176.259L122.938 176.623L120.732 153.708L124.513 153.344L125.449 163.072L127.34 162.89L132.515 154.295C133.234 153.062 134.195 152.411 135.717 152.265L139.313 151.919L139.624 155.146L135.889 155.506L130.992 163.609L142.073 174.78ZM144.776 151.393L148.557 151.029L148.881 154.394L148.534 157.08L149.595 156.978C150.217 153.288 152.985 150.137 158.241 149.631C164.88 148.991 169.661 153.696 170.318 160.52C170.971 167.298 167.175 172.829 160.536 173.468C155.28 173.974 151.962 171.408 150.651 167.951L149.591 168.054L150.439 170.578L151.571 182.335L147.79 182.699L144.776 151.393ZM149.662 162.509C150.248 168.595 154.416 170.8 159.119 170.347C163.868 169.89 167.114 166.878 166.537 160.884C165.956 154.844 162.194 152.507 157.445 152.965C152.742 153.418 149.072 156.377 149.662 162.509ZM199.233 169.277L195.498 169.636L193.607 149.995L193.998 147.77L192.937 147.872L184.848 170.662L177.24 171.394L175.033 148.479L178.814 148.115L180.701 167.71L180.319 170.027L181.38 169.925L189.465 147.089L197.026 146.361L199.233 169.277ZM220.38 144.113L224.161 143.749L226.368 166.664L222.587 167.028L221.788 158.729L207.537 161.031C205.383 161.378 204.263 160.369 204.054 158.202L202.86 145.8L206.64 145.436L207.826 157.746L221.477 155.501L220.38 144.113ZM255.11 163.896L251.376 164.256L249.485 144.614L249.875 142.389L248.815 142.492L240.725 165.281L233.118 166.014L230.911 143.099L234.692 142.735L236.579 162.33L236.197 164.647L237.257 164.545L245.342 141.709L252.904 140.981L255.11 163.896ZM276.253 161.86L274.046 138.945L290.045 137.405L290.356 140.632L278.138 141.809L280.033 161.496L276.253 161.86ZM294.398 136.986L298.179 136.622L298.503 139.987L298.157 142.673L299.217 142.571C299.839 138.881 302.607 135.73 307.863 135.224C314.502 134.584 319.283 139.289 319.94 146.113C320.593 152.891 316.798 158.422 310.158 159.061C304.902 159.567 301.584 157.001 300.274 153.544L299.213 153.647L300.061 156.171L301.193 167.928L297.413 168.292L294.398 136.986ZM299.284 148.102C299.87 154.188 304.038 156.393 308.741 155.94C313.49 155.483 316.737 152.471 316.159 146.477C315.578 140.437 311.816 138.1 307.067 138.558C302.364 139.011 298.694 141.97 299.284 148.102ZM324.835 145.595C324.195 138.956 328.484 133.238 335.815 132.532C343.1 131.831 348.355 136.63 348.995 143.269C349.638 149.955 345.395 155.668 338.111 156.369C330.78 157.075 325.478 152.281 324.835 145.595ZM328.615 145.231C329.077 150.026 332.359 153.666 337.8 153.142C343.194 152.623 345.722 148.424 345.26 143.629C344.803 138.88 341.521 135.24 336.126 135.76C330.685 136.284 328.158 140.482 328.615 145.231ZM355.364 154.243L353.157 131.328L360.719 130.6L368.218 151.935L369.278 151.833L372.568 129.459L380.176 128.726L382.382 151.641L378.602 152.005L376.715 132.41L377.147 130.135L376.041 130.241L372.654 152.578L365.092 153.306L357.506 132.026L356.445 132.128L357.258 134.283L359.145 153.879L355.364 154.243ZM404.448 126.389L408.228 126.025L410.435 148.94L406.654 149.304L405.855 141.005L391.604 143.308C389.451 143.655 388.33 142.646 388.121 140.479L386.927 128.076L390.708 127.712L391.893 140.023L405.544 137.777L404.448 126.389ZM415.131 136.622C414.42 129.245 418.622 124.559 425.124 123.933C431.579 123.311 436.215 127.006 436.895 134.061L437.037 135.536L418.917 137.281C419.565 141.593 421.999 145.128 427.67 144.582C431.451 144.217 433.809 142.129 434.302 138.545L438.083 138.181C437.548 141.816 435.257 147.015 427.972 147.717C419.765 148.507 415.765 143.215 415.131 136.622ZM418.642 134.422L433.073 133.033C432.718 129.344 429.994 126.675 425.43 127.114C420.911 127.549 418.286 130.734 418.642 134.422ZM459.96 144.171L457.753 121.256L466.052 120.457C471.539 119.929 475.334 120.68 475.756 125.06C476.12 128.841 473.627 130.012 471.796 130.328L471.902 131.434C474.95 131.187 478.137 131.904 478.559 136.285C478.989 140.757 475.452 142.68 469.965 143.208L459.96 144.171ZM462.356 130.399L466.967 129.955C470.702 129.596 472.436 129.242 472.125 126.015C471.872 123.387 470.076 123.094 466.341 123.454L461.73 123.898L462.356 130.399ZM463.36 140.819L469.676 140.211C473.365 139.856 475.119 139.222 474.826 136.179C474.515 132.951 472.65 132.433 468.962 132.788L462.645 133.396L463.36 140.819ZM482.516 130.412C481.882 123.819 485.659 118.104 493.082 117.389C497.508 116.963 503.419 118.907 504.658 125.488L500.831 125.857C499.764 121.539 496.713 120.297 493.393 120.617C487.952 121.14 485.844 125.345 486.297 130.048C486.755 134.797 489.626 138.523 495.067 137.999C498.386 137.679 501.145 135.878 501.368 131.436L505.195 131.067C505.235 137.764 499.804 140.8 495.377 141.226C487.954 141.941 483.156 137.052 482.516 130.412ZM509.19 127.565C508.48 120.188 512.682 115.502 519.183 114.876C525.638 114.254 530.275 117.949 530.955 125.004L531.097 126.479L512.977 128.224C513.624 132.536 516.059 136.071 521.73 135.525C525.511 135.161 527.869 133.072 528.362 129.488L532.142 129.124C531.608 132.759 529.317 137.958 522.032 138.66C513.825 139.45 509.825 134.158 509.19 127.565ZM512.701 125.365L527.133 123.976C526.778 120.287 524.054 117.618 519.49 118.057C514.971 118.492 512.346 121.677 512.701 125.365ZM534.581 136.986L542.151 125.229L542.044 124.122L532.374 114.071L536.847 113.64L544.697 122.191L550.771 112.3L555.243 111.869L547.669 123.58L547.776 124.687L557.45 134.784L552.977 135.215L545.123 126.618L539.053 136.556L534.581 136.986ZM213.625 235.179L217.405 234.815L217.729 238.181L217.383 240.867L218.444 240.765C219.065 237.075 221.833 233.924 227.089 233.418C233.729 232.778 238.51 237.483 239.167 244.307C239.819 251.085 236.024 256.616 229.385 257.255C224.129 257.761 220.81 255.195 219.5 251.738L218.44 251.84L219.288 254.365L220.42 266.122L216.639 266.486L213.625 235.179ZM218.511 246.296C219.097 252.382 223.265 254.587 227.967 254.134C232.716 253.677 235.963 250.665 235.386 244.671C234.804 238.631 231.043 236.294 226.294 236.752C221.591 237.204 217.92 240.164 218.511 246.296ZM244.554 248.907C244.203 245.265 246.13 242.566 251.426 241.498L260.47 239.743C259.836 235.569 257.377 233.712 253.412 234.094C250.092 234.414 247.145 236.186 247.562 240.52L243.874 240.876C243.416 236.127 246.604 231.539 253.105 230.913C259.514 230.295 263.749 234.169 264.34 240.301L265.281 250.076L268.647 249.752L268.958 252.979L264.9 253.37C263.148 253.538 262.087 252.663 261.922 250.957L261.803 249.713L262.171 247.257L261.065 247.364C260.526 250.952 258.397 254.461 252.865 254.994C246.225 255.633 244.785 251.305 244.554 248.907ZM248.29 248.082C248.543 250.71 250.341 251.98 253.015 251.722C258.225 251.22 261.198 247.304 260.741 242.555L252.342 244.248C249.464 244.805 248.073 245.823 248.29 248.082ZM272.052 243.653L275.741 243.298C276.207 248.139 278.018 249.547 282.49 249.117C286.501 248.73 287.65 247.131 287.38 244.318C287.126 241.69 285.724 240.662 282.912 240.932L279.823 241.23L279.53 238.187L282.619 237.889C285.431 237.619 286.146 236.34 285.942 234.219C285.746 232.19 284.645 230.9 280.588 231.291C276.115 231.722 275.247 233.341 275.545 236.43L271.856 236.785C271.395 231.99 274.121 228.889 280.299 228.294C286.062 227.739 289.266 230.083 289.59 233.449C289.866 236.308 288.256 237.952 285.432 238.596L285.535 239.656C288.433 239.796 290.793 241.104 291.108 244.378C291.512 248.574 288.542 251.559 282.779 252.114C276.6 252.708 272.683 250.201 272.052 243.653ZM297.329 250.247L295.122 227.332L311.121 225.792L311.432 229.019L299.214 230.196L301.109 249.883L297.329 250.247ZM316.101 242.018C315.75 238.376 317.677 235.677 322.972 234.609L332.017 232.854C331.383 228.68 328.924 226.823 324.958 227.205C321.639 227.524 318.692 229.297 319.109 233.631L315.42 233.986C314.963 229.237 318.151 224.649 324.652 224.023C331.061 223.406 335.296 227.28 335.887 233.412L336.828 243.186L340.194 242.862L340.504 246.09L336.447 246.481C334.695 246.649 333.633 245.774 333.469 244.068L333.349 242.823L333.718 240.368L332.611 240.475C332.073 244.063 329.944 247.572 324.411 248.105C317.772 248.744 316.331 244.416 316.101 242.018ZM319.837 241.193C320.09 243.821 321.887 245.09 324.562 244.833C329.772 244.331 332.745 240.415 332.288 235.666L323.889 237.359C321.01 237.915 319.619 238.934 319.837 241.193ZM368.863 240.102L369.759 249.415L365.979 249.78L365.393 243.693L347.78 245.389L348.366 251.475L344.585 251.839L343.688 242.526L346.731 242.233C348.737 236.967 349.118 231.254 348.248 222.217L363.924 220.707L365.82 240.395L368.863 240.102ZM350.512 241.869L362.039 240.759L360.454 224.299L352.293 225.085C352.755 232.299 352.257 237.28 350.512 241.869ZM382.407 225.582C387.848 225.058 392.397 226.388 393.014 232.797C393.631 239.206 389.419 241.38 383.979 241.904L375.449 242.725L373.243 219.81L377.023 219.446L377.658 226.039L382.407 225.582ZM397.027 240.647L394.821 217.732L398.555 217.373L400.762 240.288L397.027 240.647ZM378.919 239.134L383.207 238.721C387.08 238.348 389.664 237.634 389.233 233.161C388.802 228.689 386.13 228.481 382.257 228.854L377.969 229.267L378.919 239.134ZM407.553 239.634L405.346 216.719L413.646 215.92C419.132 215.391 422.927 216.143 423.349 220.523C423.713 224.304 421.22 225.474 419.389 225.79L419.496 226.897C422.543 226.65 425.73 227.367 426.152 231.747C426.582 236.219 423.045 238.142 417.558 238.67L407.553 239.634ZM409.949 225.862L414.56 225.418C418.295 225.058 420.029 224.705 419.718 221.477C419.465 218.849 417.669 218.557 413.934 218.917L409.323 219.361L409.949 225.862ZM410.953 236.282L417.269 235.674C420.958 235.318 422.712 234.684 422.419 231.641C422.108 228.414 420.243 227.895 416.555 228.25L410.238 228.859L410.953 236.282ZM430.602 230.993C430.252 227.35 432.179 224.652 437.474 223.584L446.519 221.828C445.884 217.655 443.425 215.798 439.46 216.179C436.14 216.499 433.193 218.272 433.611 222.606L429.922 222.961C429.465 218.212 432.653 213.624 439.154 212.998C445.563 212.381 449.798 216.254 450.388 222.387L451.33 232.161L454.695 231.837L455.006 235.065L450.949 235.455C449.197 235.624 448.135 234.749 447.971 233.043L447.851 231.798L448.22 229.343L447.113 229.449C446.574 233.038 444.446 236.547 438.913 237.08C432.274 237.719 430.833 233.39 430.602 230.993ZM434.339 230.168C434.592 232.796 436.389 234.065 439.063 233.808C444.274 233.306 447.247 229.39 446.79 224.641L438.39 226.334C435.512 226.89 434.121 227.908 434.339 230.168ZM474.328 199.001C474.781 203.704 472.371 207.194 467.899 207.624C463.381 208.059 460.35 205.094 459.897 200.391L462.986 200.093C463.31 203.459 464.66 204.911 467.611 204.627C470.561 204.343 471.563 202.665 471.239 199.299L474.328 199.001ZM481.326 232.53L477.591 232.89L475.7 213.248L476.091 211.024L475.03 211.126L466.941 233.915L459.333 234.648L457.126 211.733L460.907 211.369L462.794 230.964L462.412 233.281L463.473 233.179L471.558 210.343L479.119 209.615L481.326 232.53ZM167.513 284.362C174.936 283.647 179.735 288.537 180.369 295.13C181.009 301.77 177.231 307.485 169.808 308.2C165.382 308.626 159.471 306.682 158.232 300.1L162.059 299.732C163.126 304.05 166.178 305.292 169.497 304.972C174.385 304.501 176.568 301.08 176.638 296.979L166.633 297.942L166.349 294.991L176.354 294.028C175.507 290.061 172.665 287.124 167.824 287.59C164.504 287.909 161.746 289.711 161.522 294.153L157.695 294.521C157.655 287.824 163.087 284.788 167.513 284.362ZM186.69 306.109L184.483 283.194L192.045 282.465L199.544 303.801L200.604 303.699L203.894 281.324L211.502 280.592L213.708 303.507L209.927 303.871L208.041 284.276L208.473 282L207.366 282.107L203.98 304.444L196.418 305.172L188.831 283.892L187.771 283.994L188.584 286.149L190.47 305.745L186.69 306.109ZM218.432 291.465C217.792 284.826 222.081 279.108 229.412 278.402C236.697 277.701 241.952 282.499 242.592 289.139C243.235 295.824 238.993 301.538 231.708 302.239C224.377 302.945 219.075 298.151 218.432 291.465ZM222.212 291.101C222.674 295.896 225.956 299.536 231.397 299.012C236.791 298.492 239.319 294.294 238.857 289.498C238.4 284.749 235.118 281.11 229.723 281.63C224.283 282.153 221.755 286.352 222.212 291.101ZM270.741 294.758L271.638 304.072L267.857 304.436L267.271 298.35L249.658 300.045L250.244 306.132L246.464 306.496L245.567 297.182L248.61 296.889C250.616 291.624 250.996 285.91 250.126 276.873L265.802 275.363L267.698 295.051L270.741 294.758ZM252.391 296.525L263.917 295.415L262.332 278.955L254.171 279.741C254.633 286.956 254.136 291.936 252.391 296.525ZM306.969 274.657L303.234 275.017L298.092 283.469L308.865 294.345L304.438 294.771L295.373 285.685C295.193 285.749 294.963 285.771 294.732 285.794L293.119 285.949L294.064 295.77L290.283 296.134L289.338 286.313L287.724 286.468C287.494 286.491 287.263 286.513 287.074 286.484L279.909 297.133L275.483 297.559L283.983 284.828L277.322 277.512L273.587 277.871L273.277 274.644L276.919 274.293C278.395 274.151 279.462 274.607 280.403 275.679L287.169 283.125L289.014 282.947L288.077 273.219L291.858 272.855L292.794 282.583L294.639 282.406L299.86 273.806C300.579 272.573 301.54 271.922 303.016 271.78L306.658 271.429L306.969 274.657ZM335.747 291.756L332.012 292.116L330.121 272.474L330.511 270.249L329.451 270.352L321.361 293.141L313.754 293.874L311.547 270.959L315.328 270.595L317.215 290.19L316.833 292.507L317.893 292.405L325.979 269.569L333.54 268.841L335.747 291.756ZM340.776 278.01L362.769 275.892L363.066 278.981L341.073 281.099L340.776 278.01ZM369.885 279.441L373.573 279.086C374.04 283.927 375.85 285.335 380.323 284.905C384.334 284.518 385.483 282.919 385.212 280.106C384.959 277.478 383.557 276.45 380.745 276.72L377.655 277.018L377.362 273.975L380.452 273.677C383.264 273.407 383.979 272.128 383.774 270.007C383.579 267.978 382.478 266.688 378.42 267.079C373.948 267.51 373.08 269.129 373.377 272.218L369.689 272.573C369.227 267.778 371.953 264.677 378.132 264.082C383.895 263.527 387.099 265.871 387.423 269.237C387.698 272.095 386.088 273.74 383.265 274.384L383.367 275.444C386.266 275.584 388.625 276.892 388.941 280.166C389.345 284.362 386.375 287.347 380.611 287.901C374.433 288.496 370.515 285.988 369.885 279.441ZM394.302 279.696C393.951 276.054 395.878 273.355 401.173 272.287L410.218 270.532C409.584 266.358 407.125 264.501 403.159 264.883C399.84 265.203 396.893 266.975 397.31 271.31L393.621 271.665C393.164 266.916 396.352 262.328 402.853 261.702C409.262 261.084 413.497 264.958 414.088 271.09L415.029 280.865L418.395 280.541L418.705 283.768L414.648 284.159C412.896 284.327 411.835 283.452 411.67 281.747L411.55 280.502L411.919 278.046L410.812 278.153C410.274 281.741 408.145 285.25 402.612 285.783C395.973 286.422 394.533 282.094 394.302 279.696ZM398.038 278.871C398.291 281.499 400.089 282.769 402.763 282.511C407.973 282.009 410.946 278.093 410.489 273.344L402.09 275.037C399.212 275.594 397.821 276.612 398.038 278.871ZM423.032 283.351L420.826 260.436L436.825 258.896L437.136 262.123L424.917 263.3L426.813 282.987L423.032 283.351ZM441.804 275.122C441.454 271.48 443.381 268.781 448.676 267.713L457.721 265.958C457.086 261.784 454.627 259.927 450.662 260.309C447.342 260.629 444.395 262.401 444.813 266.736L441.124 267.091C440.667 262.342 443.855 257.754 450.356 257.128C456.765 256.51 461 260.384 461.59 266.516L462.532 276.291L465.897 275.967L466.208 279.194L462.151 279.585C460.399 279.753 459.337 278.878 459.173 277.173L459.053 275.928L459.422 273.472L458.315 273.579C457.776 277.167 455.648 280.676 450.115 281.209C443.476 281.848 442.035 277.52 441.804 275.122ZM445.541 274.297C445.794 276.925 447.591 278.195 450.265 277.937C455.476 277.435 458.449 273.519 457.992 268.77L449.592 270.463C446.714 271.02 445.323 272.038 445.541 274.297ZM494.567 273.206L495.463 282.52L491.683 282.884L491.097 276.798L473.484 278.494L474.07 284.58L470.289 284.944L469.392 275.63L472.435 275.337C474.441 270.072 474.822 264.358 473.951 255.321L489.628 253.811L491.523 273.499L494.567 273.206ZM476.216 274.973L487.743 273.863L486.158 257.403L477.997 258.189C478.459 265.404 477.961 270.384 476.216 274.973ZM518.891 274.121L514.465 274.547L505.345 265.374C504.985 265.502 504.621 265.584 504.206 265.624L502.592 265.779L503.538 275.6L499.757 275.964L497.551 253.049L501.331 252.685L502.268 262.413L504.158 262.231L509.334 253.636C510.053 252.403 511.014 251.752 512.535 251.606L516.132 251.259L516.442 254.487L512.708 254.847L507.811 262.95L518.891 274.121ZM545.794 271.531L542.059 271.89L540.168 252.249L540.559 250.024L539.498 250.126L531.409 272.916L523.801 273.649L521.595 250.733L525.375 250.369L527.262 269.965L526.88 272.282L527.941 272.18L536.026 249.344L543.588 248.616L545.794 271.531ZM275.71 364.826L279.814 364.431L272.039 388.074L272.656 394.483C272.825 396.235 271.912 397.393 269.736 397.51L260.844 397.947L260.533 394.72L268.826 394.34L268.258 388.438L256.069 366.717L260.218 366.317L269.129 383.468L269.298 385.22L270.404 385.114L270.235 383.362L275.71 364.826ZM302.213 362.274L305.994 361.91L308.2 384.825L304.42 385.189L303.621 376.89L289.37 379.192C287.216 379.539 286.096 378.531 285.887 376.363L284.693 363.961L288.473 363.597L289.659 375.907L303.31 373.662L302.213 362.274ZM313.416 377.901C313.065 374.258 314.992 371.56 320.287 370.492L329.332 368.737C328.698 364.563 326.239 362.706 322.273 363.088C318.954 363.407 316.007 365.18 316.424 369.514L312.735 369.869C312.278 365.12 315.466 360.532 321.967 359.906C328.376 359.289 332.611 363.163 333.202 369.295L334.143 379.069L337.509 378.745L337.819 381.973L333.762 382.363C332.01 382.532 330.949 381.657 330.784 379.951L330.664 378.706L331.033 376.251L329.926 376.358C329.388 379.946 327.259 383.455 321.726 383.988C315.087 384.627 313.646 380.298 313.416 377.901ZM317.152 377.076C317.405 379.704 319.203 380.973 321.877 380.716C327.087 380.214 330.06 376.298 329.603 371.549L321.204 373.242C318.326 373.798 316.934 374.817 317.152 377.076ZM339.308 370.242C338.673 363.649 342.451 357.934 349.874 357.219C354.3 356.793 360.211 358.737 361.45 365.318L357.623 365.687C356.556 361.369 353.504 360.127 350.185 360.447C344.744 360.97 342.636 365.175 343.089 369.878C343.546 374.627 346.418 378.353 351.858 377.829C355.178 377.509 357.936 375.708 358.16 371.266L361.987 370.897C362.027 377.594 356.595 380.63 352.169 381.056C344.746 381.771 339.947 376.882 339.308 370.242ZM383.807 354.417L384.117 357.645L375.495 358.475L377.391 378.162L373.61 378.527L371.715 358.839L363.046 359.674L362.736 356.446L383.807 354.417ZM390.459 376.904L388.253 353.989L396.552 353.19C402.039 352.662 405.834 353.413 406.256 357.793C406.62 361.574 404.127 362.745 402.296 363.061L402.402 364.167C405.45 363.92 408.637 364.637 409.058 369.017C409.489 373.49 405.951 375.412 400.465 375.941L390.459 376.904ZM392.856 363.132L397.467 362.688C401.201 362.328 402.936 361.975 402.625 358.748C402.372 356.12 400.575 355.827 396.841 356.187L392.23 356.631L392.856 363.132ZM393.859 373.552L400.176 372.944C403.865 372.589 405.618 371.954 405.325 368.911C405.015 365.684 403.15 365.165 399.461 365.521L393.145 366.129L393.859 373.552ZM430.195 349.95L434.299 349.555L426.524 373.199L427.141 379.608C427.31 381.36 426.397 382.518 424.221 382.634L415.329 383.072L415.018 379.844L423.311 379.465L422.743 373.563L410.554 351.842L414.703 351.442L423.614 368.593L423.783 370.345L424.889 370.238L424.721 368.486L430.195 349.95ZM456.379 336.354C456.832 341.057 454.423 344.546 449.95 344.977C445.432 345.412 442.401 342.446 441.948 337.744L445.037 337.446C445.361 340.812 446.711 342.264 449.662 341.98C452.613 341.696 453.614 340.017 453.29 336.651L456.379 336.354ZM463.377 369.883L459.642 370.243L457.751 350.601L458.142 348.376L457.081 348.478L448.992 371.268L441.384 372.001L439.178 349.086L442.958 348.721L444.845 368.317L444.463 370.634L445.524 370.532L453.609 347.696L461.171 346.968L463.377 369.883ZM71.2139 452.852L69.0074 429.937L77.3067 429.138C82.7934 428.61 86.5885 429.361 87.0102 433.741C87.3743 437.522 84.8811 438.693 83.0501 439.009L83.1567 440.115C86.2042 439.868 89.391 440.585 89.8128 444.965C90.2434 449.438 86.7058 451.36 81.2191 451.889L71.2139 452.852ZM73.6105 439.08L78.2212 438.636C81.9559 438.276 83.6902 437.923 83.3794 434.696C83.1263 432.068 81.3299 431.775 77.5952 432.135L72.9845 432.579L73.6105 439.08ZM74.6139 449.5L80.9305 448.892C84.6191 448.537 86.3728 447.902 86.0798 444.859C85.769 441.632 83.9043 441.113 80.2157 441.469L73.8991 442.077L74.6139 449.5ZM111.107 449.011L108.901 426.096L116.462 425.368L123.961 446.703L125.022 446.601L128.312 424.227L135.919 423.494L138.126 446.409L134.345 446.773L132.458 427.178L132.891 424.903L131.784 425.009L128.397 447.346L120.836 448.074L113.249 426.794L112.189 426.896L113.001 429.051L114.888 448.647L111.107 449.011ZM160.929 421.086L165.032 420.691L157.257 444.334L157.874 450.743C158.043 452.495 157.131 453.653 154.955 453.77L146.063 454.207L145.752 450.98L154.045 450.6L153.477 444.698L141.287 422.977L145.437 422.578L154.348 439.728L154.516 441.481L155.623 441.374L155.454 439.622L160.929 421.086ZM169.4 434.37L173.088 434.015C173.554 438.856 175.365 440.264 179.837 439.833C183.849 439.447 184.998 437.847 184.727 435.035C184.474 432.407 183.072 431.379 180.259 431.649L177.17 431.947L176.877 428.904L179.966 428.606C182.779 428.335 183.493 427.057 183.289 424.936C183.094 422.907 181.992 421.617 177.935 422.008C173.462 422.438 172.595 424.058 172.892 427.147L169.204 427.502C168.742 422.707 171.468 419.606 177.646 419.011C183.41 418.456 186.614 420.8 186.938 424.166C187.213 427.024 185.603 428.668 182.78 429.313L182.882 430.373C185.78 430.513 188.14 431.821 188.455 435.095C188.859 439.29 185.889 442.275 180.126 442.83C173.948 443.425 170.03 440.917 169.4 434.37ZM202.309 423.756C207.75 423.232 212.299 424.562 212.916 430.971C213.533 437.38 209.322 439.554 203.881 440.078L195.351 440.899L193.145 417.984L196.926 417.62L197.56 424.213L202.309 423.756ZM216.929 438.821L214.723 415.906L218.457 415.547L220.664 438.462L216.929 438.821ZM198.821 437.308L203.109 436.895C206.982 436.522 209.566 435.808 209.135 431.335C208.705 426.863 206.032 426.655 202.159 427.028L197.871 427.441L198.821 437.308ZM246.589 435.965L242.163 436.392L233.043 427.218C232.683 427.346 232.319 427.428 231.904 427.468L230.29 427.623L231.236 437.444L227.455 437.808L225.248 414.893L229.029 414.529L229.966 424.257L231.856 424.075L237.032 415.48C237.751 414.247 238.712 413.596 240.233 413.45L243.83 413.104L244.14 416.331L240.406 416.691L235.509 424.794L246.589 435.965ZM249.514 429.262C249.163 425.62 251.09 422.921 256.386 421.853L265.43 420.098C264.796 415.924 262.337 414.067 258.372 414.449C255.052 414.768 252.105 416.541 252.522 420.875L248.834 421.231C248.376 416.482 251.564 411.893 258.065 411.267C264.474 410.65 268.709 414.524 269.3 420.656L270.241 430.431L273.607 430.106L273.918 433.334L269.86 433.725C268.108 433.893 267.047 433.018 266.883 431.312L266.763 430.067L267.131 427.612L266.025 427.719C265.486 431.307 263.358 434.816 257.825 435.349C251.185 435.988 249.745 431.66 249.514 429.262ZM253.25 428.437C253.503 431.065 255.301 432.334 257.975 432.077C263.185 431.575 266.158 427.659 265.701 422.91L257.302 424.603C254.424 425.16 253.033 426.178 253.25 428.437ZM296.139 408.067L298.345 430.982L294.564 431.346L292.669 411.658L283.724 412.52C284.89 425.111 284.928 432.274 277.412 432.997L277.102 429.77C281.574 429.339 280.884 422.658 279.632 409.656L296.139 408.067ZM312.038 413.19C317.479 412.666 322.028 413.997 322.645 420.405C323.262 426.814 319.051 428.988 313.61 429.512L305.08 430.333L302.874 407.418L306.654 407.054L307.289 413.647L312.038 413.19ZM308.55 426.742L312.838 426.329C316.711 425.956 319.295 425.242 318.864 420.77C318.434 416.297 315.761 416.089 311.888 416.462L307.6 416.875L308.55 426.742ZM343.744 403.483L347.478 403.123L349.685 426.038L345.95 426.398L345 416.531L332.09 417.774L333.04 427.641L329.259 428.005L327.053 405.09L330.834 404.726L331.779 414.547L344.689 413.304L343.744 403.483ZM353.977 414.038C353.338 407.399 357.627 401.681 364.958 400.975C372.243 400.273 377.498 405.072 378.137 411.712C378.781 418.397 374.538 424.111 367.253 424.812C359.922 425.518 354.621 420.724 353.977 414.038ZM357.758 413.674C358.22 418.469 361.502 422.108 366.942 421.585C372.337 421.065 374.864 416.866 374.403 412.071C373.945 407.322 370.663 403.683 365.269 404.202C359.828 404.726 357.301 408.925 357.758 413.674ZM399.502 387.039C399.955 391.742 397.545 395.231 393.073 395.662C388.554 396.097 385.523 393.131 385.07 388.428L388.159 388.131C388.484 391.497 389.833 392.949 392.784 392.665C395.735 392.381 396.737 390.702 396.413 387.336L399.502 387.039ZM406.499 420.568L402.765 420.927L400.874 401.286L401.264 399.061L400.204 399.163L392.114 421.953L384.507 422.685L382.3 399.77L386.081 399.406L387.968 419.002L387.586 421.319L388.646 421.217L396.731 398.381L404.293 397.653L406.499 420.568ZM427.642 418.532L425.435 395.617L433.734 394.818C439.221 394.289 443.016 395.041 443.438 399.421C443.802 403.202 441.309 404.373 439.478 404.688L439.584 405.795C442.632 405.548 445.819 406.265 446.241 410.645C446.671 415.118 443.134 417.04 437.647 417.569L427.642 418.532ZM430.038 404.76L434.649 404.316C438.384 403.956 440.118 403.603 439.807 400.376C439.554 397.747 437.758 397.455 434.023 397.815L429.412 398.259L430.038 404.76ZM431.042 415.18L437.358 414.572C441.047 414.217 442.801 413.582 442.508 410.539C442.197 407.312 440.332 406.793 436.643 407.148L430.327 407.757L431.042 415.18ZM474.219 414.047L470.484 414.407L468.593 394.765L468.984 392.54L467.923 392.643L459.834 415.432L452.226 416.165L450.019 393.25L453.8 392.886L455.687 412.481L455.305 414.798L456.366 414.696L464.451 391.86L472.012 391.132L474.219 414.047ZM499.187 411.643L494.76 412.069L485.64 402.896C485.28 403.024 484.916 403.105 484.501 403.145L482.887 403.301L483.833 413.121L480.052 413.485L477.846 390.57L481.626 390.206L482.563 399.935L484.454 399.753L489.629 391.158C490.348 389.925 491.309 389.274 492.83 389.127L496.427 388.781L496.738 392.009L493.003 392.368L488.106 400.471L499.187 411.643ZM520.677 386.446L520.988 389.674L512.366 390.504L514.261 410.191L510.481 410.556L508.585 390.868L499.917 391.703L499.606 388.475L520.677 386.446ZM523.456 397.719C522.817 391.08 527.106 385.362 534.437 384.656C541.722 383.954 546.977 388.753 547.616 395.393C548.26 402.078 544.017 407.792 536.732 408.493C529.401 409.199 524.1 404.405 523.456 397.719ZM527.237 397.355C527.699 402.15 530.981 405.79 536.421 405.266C541.816 404.746 544.343 400.547 543.881 395.752C543.424 391.003 540.142 387.364 534.748 387.883C529.307 388.407 526.78 392.606 527.237 397.355ZM551.779 383.451L555.56 383.087L555.884 386.453L555.537 389.139L556.598 389.037C557.22 385.347 559.988 382.196 565.244 381.69C571.883 381.05 576.664 385.755 577.321 392.579C577.973 399.357 574.178 404.887 567.539 405.527C562.283 406.033 558.964 403.467 557.654 400.01L556.594 400.112L557.442 402.637L558.574 414.394L554.793 414.758L551.779 383.451ZM556.665 394.568C557.251 400.654 561.419 402.859 566.122 402.406C570.871 401.949 574.117 398.937 573.54 392.943C572.959 386.903 569.197 384.566 564.448 385.024C559.745 385.476 556.075 388.436 556.665 394.568ZM606.236 401.335L602.501 401.695L600.61 382.053L601.001 379.829L599.94 379.931L591.851 402.72L584.243 403.453L582.036 380.538L585.817 380.174L587.704 399.769L587.322 402.086L588.383 401.984L596.468 379.148L604.029 378.42L606.236 401.335ZM626.553 376.251L630.288 375.892L632.494 398.807L628.76 399.167L627.81 389.3L614.9 390.543L615.85 400.41L612.069 400.774L609.863 377.859L613.643 377.494L614.589 387.315L627.499 386.072L626.553 376.251ZM636.76 386.53C636.05 379.153 640.252 374.467 646.753 373.841C653.208 373.219 657.845 376.915 658.525 383.969L658.667 385.444L640.547 387.189C641.195 391.501 643.629 395.036 649.3 394.49C653.081 394.126 655.439 392.037 655.932 388.453L659.712 388.089C659.178 391.724 656.887 396.924 649.602 397.625C641.395 398.415 637.395 393.123 636.76 386.53ZM640.271 384.33L654.703 382.941C654.348 379.252 651.624 376.583 647.06 377.022C642.541 377.457 639.916 380.642 640.271 384.33ZM119.609 515.481L119.92 518.708L111.298 519.539L113.194 539.226L109.413 539.59L107.517 519.903L98.8491 520.737L98.5383 517.51L119.609 515.481ZM123.782 531.785C123.431 528.142 125.358 525.444 130.653 524.376L139.698 522.621C139.064 518.447 136.605 516.59 132.639 516.972C129.32 517.291 126.373 519.064 126.79 523.398L123.101 523.753C122.644 519.004 125.832 514.416 132.333 513.79C138.742 513.173 142.977 517.047 143.568 523.179L144.509 532.953L147.875 532.629L148.186 535.857L144.128 536.248C142.376 536.416 141.315 535.541 141.15 533.835L141.03 532.59L141.399 530.135L140.292 530.242C139.754 533.83 137.625 537.339 132.093 537.872C125.453 538.511 124.013 534.182 123.782 531.785ZM127.518 530.96C127.771 533.588 129.569 534.857 132.243 534.6C137.453 534.098 140.426 530.182 139.969 525.433L131.57 527.126C128.692 527.682 127.301 528.701 127.518 530.96ZM166.997 510.918L170.731 510.558L172.938 533.473L169.203 533.833L168.253 523.966L155.343 525.209L156.293 535.076L152.512 535.44L150.306 512.525L154.087 512.161L155.032 521.982L167.942 520.739L166.997 510.918ZM201.713 527.445C203.511 527.272 204.577 528.193 204.746 529.945L205.376 536.493L201.642 536.852L201.056 530.766L179.708 532.822L177.502 509.906L181.283 509.542L183.178 529.23L194.567 528.133L192.671 508.446L196.452 508.082L198.347 527.769L201.713 527.445ZM224.892 505.343L228.996 504.948L221.221 528.592L221.838 535.001C222.007 536.753 221.094 537.911 218.918 538.027L210.026 538.465L209.715 535.237L218.008 534.857L217.44 528.956L205.251 507.235L209.4 506.835L218.311 523.986L218.48 525.738L219.586 525.631L219.417 523.879L224.892 505.343ZM251.076 491.747C251.529 496.45 249.12 499.939 244.647 500.37C240.129 500.805 237.098 497.839 236.645 493.136L239.734 492.839C240.058 496.205 241.408 497.657 244.359 497.373C247.31 497.089 248.311 495.41 247.987 492.044L251.076 491.747ZM258.074 525.276L254.339 525.635L252.448 505.994L252.839 503.769L251.778 503.871L243.689 526.661L236.081 527.393L233.875 504.478L237.655 504.114L239.542 523.71L239.16 526.027L240.221 525.925L248.306 503.089L255.868 502.361L258.074 525.276ZM295.96 498.5L298.166 521.415L294.385 521.779L292.49 502.092L281.101 503.188L282.997 522.876L279.216 523.24L277.01 500.325L295.96 498.5ZM302.854 509.377C302.214 502.738 306.503 497.02 313.834 496.314C321.119 495.612 326.374 500.411 327.014 507.051C327.657 513.736 323.414 519.45 316.13 520.151C308.799 520.857 303.497 516.062 302.854 509.377ZM306.634 509.013C307.096 513.808 310.378 517.447 315.819 516.924C321.213 516.404 323.741 512.205 323.279 507.41C322.822 502.661 319.54 499.022 314.145 499.541C308.704 500.065 306.177 504.264 306.634 509.013ZM355.163 512.67L356.06 521.983L352.279 522.347L351.693 516.261L334.08 517.957L334.666 524.043L330.885 524.407L329.989 515.094L333.032 514.801C335.038 509.535 335.418 503.822 334.548 494.785L350.224 493.275L352.12 512.963L355.163 512.67ZM336.812 514.437L348.339 513.327L346.754 496.867L338.593 497.652C339.055 504.867 338.558 509.848 336.812 514.437ZM398.872 478.912L399.183 482.139L387.933 483.222L390.752 512.5L387.017 512.86L384.198 483.582L372.856 484.674L372.545 481.447L398.872 478.912ZM407.438 484.09C405.548 484.272 403.985 483.026 403.807 481.182C403.639 479.43 404.93 477.863 406.821 477.681C408.665 477.503 410.278 478.791 410.447 480.543C410.624 482.387 409.282 483.912 407.438 484.09ZM402.341 511.384L402.031 508.157L408.486 507.535L406.861 490.66L402.152 491.532L401.841 488.305L407.099 487.333C409.248 486.94 410.193 488.059 410.362 489.811L412.036 507.194L418.491 506.572L418.802 509.799L402.341 511.384ZM439.8 507.778L431.121 497.864L426.579 500.954L427.351 508.976L423.57 509.34L420.307 475.452L424.088 475.088L426.197 496.988L437.249 489.502L436.349 484.982L440.129 484.618L440.902 488.778C441.187 490.287 440.602 491.46 439.378 492.276L434.05 495.907L444.088 507.365L439.8 507.778ZM471.274 471.94L471.585 475.168L460.335 476.251L463.154 505.529L459.42 505.888L456.6 476.611L445.258 477.703L444.947 474.475L471.274 471.94ZM469.271 493.353C468.631 486.713 472.92 480.996 480.251 480.29C487.536 479.588 492.791 484.387 493.431 491.026C494.074 497.712 489.831 503.425 482.547 504.127C475.216 504.833 469.914 500.038 469.271 493.353ZM473.051 492.989C473.513 497.784 476.795 501.423 482.236 500.899C487.63 500.38 490.158 496.181 489.696 491.386C489.239 486.637 485.957 482.998 480.562 483.517C475.121 484.041 472.594 488.24 473.051 492.989ZM516.3 500.411L507.62 490.498L503.078 493.588L503.851 501.61L500.07 501.974L496.807 468.086L500.588 467.722L502.696 489.622L513.749 482.136L512.848 477.616L516.629 477.252L517.402 481.412C517.687 482.921 517.102 484.094 515.877 484.91L510.55 488.54L520.588 499.999L516.3 500.411ZM539.886 498.14L547.456 486.383L547.349 485.276L537.679 475.225L542.152 474.795L550.002 483.346L556.076 473.454L560.548 473.023L552.974 484.735L553.081 485.841L562.755 495.938L558.282 496.369L550.428 487.772L544.358 497.71L539.886 498.14ZM589.647 493.349L585.913 493.708L584.021 474.067L584.412 471.842L583.352 471.944L575.262 494.734L567.654 495.467L565.448 472.551L569.229 472.187L571.115 491.783L570.734 494.1L571.794 493.998L579.879 471.162L587.441 470.434L589.647 493.349ZM612.962 467.976L613.273 471.204L604.651 472.034L606.546 491.722L602.765 492.086L600.87 472.398L592.202 473.233L591.891 470.005L612.962 467.976ZM627.473 473.233C632.914 472.71 637.463 474.04 638.08 480.449C638.697 486.858 634.486 489.031 629.045 489.555L620.515 490.377L618.309 467.462L622.089 467.097L622.724 473.691L627.473 473.233ZM642.093 488.299L639.887 465.384L643.621 465.024L645.828 487.939L642.093 488.299ZM623.985 486.785L628.273 486.372C632.146 485.999 634.73 485.285 634.299 480.813C633.869 476.34 631.196 476.132 627.323 476.505L623.035 476.918L623.985 486.785ZM143.932 603.555L146.139 626.47L142.358 626.834L140.462 607.147L129.074 608.243L130.969 627.931L127.189 628.295L124.982 605.38L143.932 603.555ZM150.826 614.432C150.187 607.792 154.476 602.074 161.807 601.369C169.092 600.667 174.347 605.466 174.986 612.105C175.63 618.791 171.387 624.504 164.102 625.206C156.771 625.912 151.47 621.117 150.826 614.432ZM154.607 614.068C155.069 618.863 158.351 622.502 163.791 621.978C169.186 621.459 171.713 617.26 171.251 612.465C170.794 607.716 167.512 604.077 162.118 604.596C156.677 605.12 154.15 609.319 154.607 614.068ZM198.099 598.339L200.305 621.255L196.524 621.619L194.629 601.931L183.24 603.028L185.136 622.715L181.355 623.079L179.149 600.164L198.099 598.339ZM204.814 597.693L208.595 597.329L208.919 600.695L208.572 603.38L209.633 603.278C210.255 599.589 213.022 596.437 218.279 595.931C224.918 595.292 229.699 599.997 230.356 606.82C231.008 613.598 227.213 619.129 220.574 619.768C215.318 620.274 211.999 617.709 210.689 614.252L209.629 614.354L210.477 616.878L211.609 628.635L207.828 628.999L204.814 597.693ZM209.7 608.809C210.286 614.895 214.454 617.1 219.157 616.647C223.906 616.19 227.152 613.178 226.575 607.185C225.994 601.145 222.232 598.808 217.483 599.265C212.78 599.718 209.11 602.677 209.7 608.809ZM235.25 606.303C234.611 599.663 238.9 593.945 246.231 593.239C253.516 592.538 258.771 597.337 259.41 603.976C260.054 610.662 255.811 616.375 248.526 617.077C241.195 617.783 235.894 612.988 235.25 606.303ZM239.031 605.939C239.493 610.734 242.775 614.373 248.215 613.849C253.61 613.33 256.137 609.131 255.676 604.336C255.218 599.587 251.936 595.948 246.542 596.467C241.101 596.991 238.574 601.19 239.031 605.939ZM264.452 599.861C263.569 590.686 267.211 586.473 275.054 583.344C280.122 581.367 281.129 580.712 281.375 578.92L285.94 578.48C285.54 583.033 281.738 584.143 275.803 586.297C269.776 588.459 267.166 591.317 267.136 596.811L266.329 599.541L267.39 599.439C267.938 594.5 271.629 590.794 276.978 590.279C284.124 589.591 288.33 594.118 288.978 600.85C289.653 607.858 286.235 613.446 278.074 614.232C270.282 614.982 265.438 610.097 264.452 599.861ZM268.601 603.324C269.019 607.658 272 611.559 277.763 611.004C283.481 610.454 285.739 606.839 285.201 601.26C284.709 596.142 282.176 593.036 276.966 593.537C271.387 594.075 268.068 597.791 268.601 603.324ZM311.098 587.459L315.202 587.064L307.427 610.707L308.044 617.116C308.213 618.868 307.301 620.026 305.125 620.143L296.232 620.58L295.922 617.353L304.215 616.973L303.646 611.071L291.457 589.35L295.606 588.95L304.517 606.101L304.686 607.853L305.793 607.747L305.624 605.995L311.098 587.459ZM337.283 573.862C337.735 578.565 335.326 582.055 330.854 582.485C326.335 582.92 323.304 579.955 322.851 575.252L325.94 574.954C326.264 578.32 327.614 579.772 330.565 579.488C333.516 579.204 334.518 577.526 334.193 574.16L337.283 573.862ZM344.28 607.391L340.546 607.751L338.654 588.109L339.045 585.885L337.985 585.987L329.895 608.776L322.287 609.509L320.081 586.594L323.862 586.23L325.749 605.825L325.367 608.142L326.427 608.04L334.512 585.204L342.074 584.476L344.28 607.391ZM381.474 580.682L385.578 580.287L377.803 603.931L378.42 610.34C378.589 612.092 377.677 613.25 375.501 613.366L366.608 613.804L366.298 610.576L374.591 610.196L374.022 604.295L361.833 582.574L365.982 582.174L374.893 599.325L375.062 601.077L376.169 600.97L376 599.218L381.474 580.682ZM392.663 602.733L390.457 579.817L406.456 578.277L406.767 581.504L394.549 582.681L396.444 602.368L392.663 602.733ZM411.435 594.503C411.085 590.861 413.012 588.162 418.307 587.094L427.352 585.339C426.717 581.166 424.258 579.308 420.293 579.69C416.974 580.01 414.026 581.783 414.444 586.117L410.755 586.472C410.298 581.723 413.486 577.135 419.987 576.509C426.396 575.892 430.631 579.765 431.222 585.897L432.163 595.672L435.529 595.348L435.839 598.575L431.782 598.966C430.03 599.135 428.968 598.26 428.804 596.554L428.684 595.309L429.053 592.853L427.946 592.96C427.408 596.548 425.279 600.057 419.746 600.59C413.107 601.229 411.666 596.901 411.435 594.503ZM415.172 593.678C415.425 596.306 417.222 597.576 419.897 597.318C425.107 596.817 428.08 592.901 427.623 588.152L419.223 589.844C416.345 590.401 414.954 591.419 415.172 593.678ZM464.198 592.587L465.094 601.901L461.314 602.265L460.728 596.179L443.115 597.875L443.701 603.961L439.92 604.325L439.023 595.011L442.066 594.718C444.072 589.453 444.453 583.739 443.583 574.702L459.259 573.193L461.155 592.88L464.198 592.587ZM445.847 594.354L457.374 593.244L455.789 576.784L447.628 577.57C448.09 584.785 447.592 589.765 445.847 594.354ZM467.853 589.071C467.503 585.428 469.43 582.73 474.725 581.662L483.77 579.907C483.135 575.733 480.676 573.876 476.711 574.258C473.391 574.577 470.444 576.35 470.862 580.684L467.173 581.039C466.716 576.29 469.904 571.702 476.405 571.076C482.814 570.459 487.049 574.332 487.639 580.465L488.581 590.239L491.946 589.915L492.257 593.143L488.2 593.533C486.448 593.702 485.386 592.827 485.222 591.121L485.102 589.876L485.471 587.421L484.364 587.528C483.825 591.116 481.697 594.625 476.164 595.158C469.525 595.797 468.084 591.468 467.853 589.071ZM471.59 588.246C471.843 590.874 473.64 592.143 476.314 591.886C481.525 591.384 484.498 587.468 484.041 582.719L475.641 584.412C472.763 584.968 471.372 585.986 471.59 588.246ZM510.463 568.262L510.774 571.49L502.152 572.32L504.048 592.007L500.267 592.372L498.371 572.684L489.703 573.519L489.392 570.291L510.463 568.262ZM524.975 573.519C530.415 572.995 534.964 574.326 535.581 580.735C536.198 587.143 531.987 589.317 526.546 589.841L518.016 590.662L515.81 567.747L519.591 567.383L520.226 573.977L524.975 573.519ZM521.486 587.071L525.774 586.658C529.647 586.285 532.231 585.571 531.8 581.099C531.37 576.626 528.697 576.418 524.824 576.791L520.536 577.204L521.486 587.071ZM543.685 580.606L547.135 581.158L544.826 594.875L541.372 594.277L543.685 580.606ZM589.426 583.786L585 584.213L575.88 575.039C575.52 575.167 575.156 575.249 574.741 575.289L573.127 575.444L574.073 585.265L570.292 585.629L568.085 562.714L571.866 562.35L572.803 572.078L574.693 571.896L579.869 563.301C580.588 562.068 581.549 561.417 583.07 561.271L586.667 560.925L586.977 564.152L583.243 564.512L578.346 572.615L589.426 583.786ZM610.917 558.59L611.227 561.817L602.605 562.647L604.501 582.335L600.72 582.699L598.825 563.011L590.157 563.846L589.846 560.618L610.917 558.59ZM613.696 569.862C613.057 563.223 617.346 557.505 624.677 556.799C631.961 556.098 637.217 560.897 637.856 567.536C638.5 574.222 634.257 579.935 626.972 580.637C619.641 581.342 614.34 576.548 613.696 569.862ZM617.477 569.498C617.938 574.294 621.22 577.933 626.661 577.409C632.056 576.89 634.583 572.691 634.121 567.896C633.664 563.147 630.382 559.507 624.987 560.027C619.547 560.551 617.019 564.749 617.477 569.498ZM148.52 659.862C147.885 653.269 151.663 647.553 159.086 646.839C163.512 646.412 169.423 648.356 170.662 654.938L166.835 655.306C165.768 650.988 162.716 649.747 159.397 650.066C153.956 650.59 151.848 654.795 152.301 659.498C152.758 664.247 155.63 667.972 161.071 667.448C164.39 667.129 167.148 665.328 167.372 660.885L171.199 660.517C171.239 667.214 165.808 670.25 161.381 670.676C153.958 671.391 149.16 666.501 148.52 659.862ZM193.992 643.943L196.198 666.858L192.418 667.222L190.522 647.535L179.133 648.631L181.029 668.319L177.248 668.683L175.042 645.768L193.992 643.943ZM200.707 643.296L204.488 642.932L204.812 646.298L204.465 648.984L205.526 648.882C206.148 645.192 208.916 642.041 214.172 641.535C220.811 640.895 225.592 645.6 226.249 652.424C226.902 659.202 223.106 664.732 216.467 665.372C211.211 665.878 207.893 663.312 206.583 659.855L205.522 659.957L206.37 662.482L207.502 674.239L203.721 674.603L200.707 643.296ZM205.593 654.413C206.179 660.499 210.347 662.704 215.05 662.251C219.799 661.794 223.045 658.782 222.468 652.788C221.887 646.748 218.125 644.411 213.376 644.869C208.673 645.321 205.003 648.281 205.593 654.413ZM246.641 638.873L248.847 661.789L245.113 662.148L244.149 652.143L241.291 652.418L237.424 661.074C236.797 662.297 235.753 663.049 234.278 663.191L230.866 663.52L230.564 660.385L234.298 660.025L237.584 652.589C233.704 652.404 231.322 650.865 230.941 646.9C230.492 642.243 233.685 640.121 239.356 639.575L246.641 638.873ZM243.861 649.146L243.195 642.23L239.967 642.541C236.279 642.896 234.455 643.77 234.721 646.536C234.988 649.302 236.945 649.812 240.633 649.457L243.861 649.146ZM273.12 636.324L273.431 639.551L264.809 640.381L266.705 660.069L262.924 660.433L261.028 640.746L252.36 641.58L252.049 638.353L273.12 636.324ZM277.293 652.628C276.942 648.985 278.869 646.287 284.165 645.219L293.209 643.464C292.575 639.29 290.116 637.433 286.151 637.815C282.831 638.134 279.884 639.907 280.301 644.241L276.613 644.596C276.155 639.847 279.343 635.259 285.844 634.633C292.253 634.016 296.488 637.89 297.079 644.022L298.02 653.796L301.386 653.472L301.697 656.7L297.639 657.09C295.887 657.259 294.826 656.384 294.661 654.678L294.542 653.433L294.91 650.978L293.804 651.085C293.265 654.673 291.136 658.182 285.604 658.715C278.964 659.354 277.524 655.025 277.293 652.628ZM281.029 651.803C281.282 654.431 283.08 655.7 285.754 655.443C290.964 654.941 293.937 651.025 293.48 646.276L285.081 647.969C282.203 648.525 280.812 649.543 281.029 651.803ZM323.917 631.433L326.124 654.348L322.343 654.712L320.447 635.024L311.503 635.885C312.669 648.477 312.707 655.64 305.191 656.363L304.881 653.136C309.353 652.705 308.663 646.024 307.411 633.022L323.917 631.433ZM330.832 642.307C330.197 635.714 333.974 629.999 341.397 629.284C345.824 628.858 351.734 630.802 352.973 637.383L349.146 637.752C348.079 633.434 345.028 632.192 341.708 632.512C336.267 633.035 334.159 637.24 334.612 641.943C335.07 646.692 337.941 650.418 343.382 649.894C346.701 649.574 349.46 647.773 349.683 643.331L353.51 642.962C353.55 649.659 348.119 652.695 343.693 653.121C336.269 653.836 331.471 648.947 330.832 642.307ZM372.714 626.734L374.921 649.649L371.186 650.009L370.223 640.003L367.364 640.279L363.498 648.934C362.871 650.158 361.827 650.91 360.351 651.052L356.939 651.381L356.637 648.245L360.372 647.886L363.658 640.449C359.778 640.265 357.396 638.726 357.014 634.761C356.566 630.104 359.758 627.981 365.43 627.435L372.714 626.734ZM369.934 637.007L369.268 630.091L366.041 630.401C362.352 630.756 360.528 631.63 360.795 634.396C361.061 637.163 363.018 637.672 366.707 637.317L369.934 637.007ZM395.699 638.621L399.388 638.266C399.854 643.107 401.665 644.515 406.137 644.084C410.148 643.698 411.297 642.098 411.026 639.285C410.773 636.657 409.371 635.629 406.559 635.9L403.47 636.197L403.177 633.154L406.266 632.857C409.078 632.586 409.793 631.307 409.589 629.186C409.393 627.158 408.292 625.868 404.234 626.258C399.762 626.689 398.894 628.308 399.192 631.397L395.503 631.752C395.041 626.957 397.768 623.856 403.946 623.261C409.709 622.706 412.913 625.05 413.237 628.416C413.513 631.275 411.903 632.919 409.079 633.563L409.182 634.623C412.08 634.763 414.44 636.072 414.755 639.345C415.159 643.541 412.189 646.526 406.426 647.081C400.247 647.676 396.33 645.168 395.699 638.621ZM420.116 638.876C419.765 635.233 421.693 632.535 426.988 631.466L436.033 629.711C435.398 625.538 432.939 623.681 428.974 624.062C425.654 624.382 422.707 626.155 423.124 630.489L419.436 630.844C418.979 626.095 422.166 621.507 428.668 620.881C435.076 620.264 439.312 624.137 439.902 630.269L440.843 640.044L444.209 639.72L444.52 642.947L440.463 643.338C438.71 643.507 437.649 642.632 437.485 640.926L437.365 639.681L437.733 637.226L436.627 637.332C436.088 640.921 433.96 644.43 428.427 644.962C421.788 645.602 420.347 641.273 420.116 638.876ZM423.852 638.05C424.106 640.679 425.903 641.948 428.577 641.69C433.787 641.189 436.761 637.273 436.303 632.524L427.904 634.217C425.026 634.773 423.635 635.791 423.852 638.05ZM464.246 641.048L462.039 618.133L469.601 617.405L477.1 638.74L478.16 638.638L481.45 616.264L489.058 615.531L491.264 638.446L487.484 638.811L485.597 619.215L486.029 616.94L484.923 617.046L481.536 639.383L473.974 640.111L466.388 618.831L465.327 618.933L466.14 621.089L468.026 640.684L464.246 641.048ZM496.481 631.522C496.13 627.88 498.057 625.182 503.352 624.113L512.397 622.358C511.763 618.185 509.304 616.327 505.338 616.709C502.019 617.029 499.072 618.802 499.489 623.136L495.8 623.491C495.343 618.742 498.531 614.154 505.032 613.528C511.441 612.911 515.676 616.784 516.267 622.916L517.208 632.691L520.574 632.367L520.884 635.594L516.827 635.985C515.075 636.154 514.013 635.279 513.849 633.573L513.729 632.328L514.098 629.873L512.991 629.979C512.453 633.568 510.324 637.077 504.791 637.609C498.152 638.249 496.711 633.92 496.481 631.522ZM500.217 630.697C500.47 633.325 502.268 634.595 504.942 634.337C510.152 633.836 513.125 629.92 512.668 625.171L504.269 626.864C501.391 627.42 499.999 628.438 500.217 630.697ZM522.373 623.864C521.738 617.271 525.516 611.556 532.939 610.841C537.365 610.415 543.276 612.358 544.515 618.94L540.688 619.308C539.621 614.99 536.569 613.749 533.25 614.068C527.809 614.592 525.701 618.797 526.154 623.5C526.611 628.249 529.483 631.974 534.923 631.451C538.243 631.131 541.001 629.33 541.225 624.887L545.052 624.519C545.092 631.216 539.66 634.252 535.234 634.678C527.811 635.393 523.012 630.503 522.373 623.864ZM570.236 630.842L565.809 631.269L556.69 622.095C556.33 622.223 555.965 622.305 555.55 622.345L553.936 622.5L554.882 632.321L551.101 632.685L548.895 609.77L552.676 609.406L553.612 619.134L555.503 618.952L560.678 610.357C561.397 609.124 562.358 608.473 563.88 608.327L567.476 607.981L567.787 611.208L564.052 611.568L559.155 619.671L570.236 630.842ZM571.722 619.112C571.083 612.473 575.372 606.755 582.703 606.049C589.988 605.348 595.243 610.146 595.882 616.786C596.526 623.471 592.283 629.185 584.998 629.886C577.667 630.592 572.366 625.798 571.722 619.112ZM575.503 618.748C575.964 623.543 579.247 627.183 584.687 626.659C590.082 626.139 592.609 621.941 592.147 617.145C591.69 612.396 588.408 608.757 583.013 609.277C577.573 609.8 575.045 613.999 575.503 618.748ZM617.246 592.113C617.699 596.816 615.29 600.305 610.817 600.736C606.299 601.171 603.268 598.206 602.815 593.503L605.904 593.205C606.228 596.571 607.578 598.023 610.529 597.739C613.48 597.455 614.481 595.776 614.157 592.41L617.246 592.113ZM624.244 625.642L620.509 626.002L618.618 606.36L619.009 604.135L617.948 604.237L609.859 627.027L602.251 627.76L600.045 604.845L603.825 604.48L605.712 624.076L605.33 626.393L606.391 626.291L614.476 603.455L622.038 602.727L624.244 625.642Z" fill="black"/>
</svg>
