<svg width="1056" height="175" viewBox="0 0 1056 175" fill="none" xmlns="http://www.w3.org/2000/svg">
<path d="M0.113965 31.3206C13.045 26.1096 17.484 14.5295 17.677 1.11599H33.6961V69.1487H25.783V8.83602L27.134 3.3355H24.818C23.853 18.3895 19.5105 32.5751 2.62297 38.0756L0.113965 31.3206ZM57.6688 70.1137C53.1333 70.1137 49.6593 66.6397 49.6593 62.0077C49.6593 57.5687 53.1333 54.0946 57.6688 54.0946C62.1078 54.0946 65.6784 57.5687 65.6784 62.0077C65.6784 66.6397 62.1078 70.1137 57.6688 70.1137ZM112.031 35.0841C112.031 15.3015 123.901 0.150993 143.876 0.150993C161.246 0.150993 172.633 10.573 174.66 27.3641H166.747C165.203 14.3365 157.193 6.90601 143.876 6.90601C128.05 6.90601 119.944 18.679 119.944 35.0841C119.944 51.5856 128.05 63.3587 143.876 63.3587C157.193 63.3587 165.203 55.8316 166.747 42.8041H174.66C172.633 59.6917 161.246 70.1137 143.876 70.1137C123.901 70.1137 112.031 54.9631 112.031 35.0841ZM229.027 21.1881V27.9431H210.982V69.1487H203.069V27.9431H184.926V21.1881H229.027ZM234.424 55.8316C234.424 48.2081 238.96 42.9971 250.154 41.8391L269.261 40.0056C268.778 31.2241 264.05 26.8816 255.751 26.8816C248.803 26.8816 242.337 29.9696 242.337 39.0406H234.617C234.617 29.1011 242.144 20.223 255.751 20.223C269.164 20.223 277.174 29.1011 277.174 41.9356V62.3937H284.218V69.1487H275.726C272.059 69.1487 270.033 67.1222 270.033 63.5517V60.9462L271.287 55.9281H268.971C267.138 63.2622 262.023 70.1137 250.443 70.1137C236.547 70.1137 234.424 60.8497 234.424 55.8316ZM242.337 54.8666C242.337 60.3672 245.811 63.3587 251.408 63.3587C262.313 63.3587 269.261 55.8316 269.261 45.8921L251.505 47.7256C245.425 48.3046 242.337 50.1381 242.337 54.8666ZM328.207 21.1881H336.024V69.1487H328.207V48.4976H301.187V69.1487H293.274V21.1881H301.187V41.7426H328.207V21.1881ZM396.901 62.3937C400.664 62.3937 402.691 64.5167 402.691 68.1837V81.8867H394.874V69.1487H350.194V21.1881H358.108V62.3937H381.943V21.1881H389.856V62.3937H396.901ZM459.082 69.1487H451.266V28.0396L452.52 23.5041H450.301L428.974 69.1487H413.052V21.1881H420.965V62.2007L419.71 66.9292H421.93L443.256 21.1881H459.082V69.1487ZM517.322 69.1487H509.505V28.0396L510.76 23.5041H508.54L487.214 69.1487H471.291V21.1881H479.204V62.2007L477.949 66.9292H480.169L501.496 21.1881H517.322V69.1487ZM559.641 45.1201C559.641 31.3206 568.616 20.223 584.153 20.223C593.417 20.223 605.286 25.4341 606.541 39.3301H598.531C597.18 30.1626 591.101 26.9781 584.153 26.9781C572.766 26.9781 567.555 35.2771 567.555 45.1201C567.555 55.0596 572.766 63.3587 584.153 63.3587C591.101 63.3587 597.18 60.1742 598.531 51.0066H606.541C605.286 64.9027 593.417 70.1137 584.153 70.1137C568.616 70.1137 559.641 59.0162 559.641 45.1201ZM690.769 69.1487H681.505L664.424 48.3046C663.652 48.4976 662.88 48.5941 662.012 48.5941H658.634V69.1487H650.721V21.1881H658.634V41.5496H662.591L675.039 24.7586C676.776 22.3461 678.899 21.1881 682.084 21.1881H689.611V27.9431H681.794L670.021 43.7691L690.769 69.1487ZM701.045 21.1881H708.958V28.2326L707.703 33.7331H709.923C711.949 26.2061 718.318 20.223 729.319 20.223C743.215 20.223 752.19 30.9346 752.19 45.2166C752.19 59.4022 743.215 70.1137 729.319 70.1137C718.318 70.1137 711.949 64.1307 709.923 56.7001H707.703L708.958 62.1042V86.7117H701.045V21.1881ZM708.958 45.2166C708.958 57.9547 717.16 63.3587 727.003 63.3587C736.943 63.3587 744.277 57.7617 744.277 45.2166C744.277 32.5751 736.943 26.9781 727.003 26.9781C717.16 26.9781 708.958 32.3821 708.958 45.2166ZM800.702 21.1881H809.291L788.447 68.6662V82.0797C788.447 85.7467 786.324 87.9662 781.788 87.7732L763.26 86.9047V80.1497L780.534 81.0182V68.6662L759.593 21.1881H768.278L783.332 58.5337V62.2007H785.648V58.5337L800.702 21.1881ZM860.708 21.1881V27.9431H842.662V69.1487H834.749V27.9431H816.607V21.1881H860.708ZM889.752 34.9876C901.139 34.9876 910.306 38.6546 910.306 52.0681C910.306 65.4817 901.139 69.1487 889.752 69.1487H871.899V21.1881H879.812V34.9876H889.752ZM917.061 69.1487V21.1881H924.878V69.1487H917.061ZM879.812 62.3937H888.787C896.893 62.3937 902.393 61.4287 902.393 52.0681C902.393 42.7076 896.893 41.7426 888.787 41.7426H879.812V62.3937ZM939.091 69.1487V21.1881H954.917L966.208 66.9292H968.427L979.718 21.1881H995.64V69.1487H987.727V28.1361L989.078 23.5041H986.762L975.279 69.1487H959.453L947.969 23.5041H945.75L947.004 28.1361V69.1487H939.091ZM1055.8 69.1487H1047.98V28.0396L1049.24 23.5041H1047.02L1025.69 69.1487H1009.77V21.1881H1017.68V62.2007L1016.43 66.9292H1018.65L1039.97 21.1881H1055.8V69.1487ZM112.031 143.428H119.751C119.751 153.56 123.225 156.841 132.586 156.841C140.981 156.841 143.683 153.753 143.683 147.867C143.683 142.366 140.981 139.954 135.095 139.954H128.629V133.585H135.095C140.981 133.585 142.718 131.076 142.718 126.637C142.718 122.391 140.692 119.496 132.2 119.496C122.839 119.496 120.716 122.68 120.716 129.146H112.996C112.996 119.11 119.269 113.223 132.2 113.223C144.262 113.223 150.438 118.724 150.438 125.768C150.438 131.751 146.771 134.839 140.788 135.611V137.831C146.771 138.699 151.403 141.884 151.403 148.735C151.403 157.517 144.648 163.114 132.586 163.114C119.655 163.114 112.031 157.131 112.031 143.428ZM162.615 148.832C162.615 141.208 167.15 135.997 178.344 134.839L197.451 133.006C196.969 124.224 192.24 119.882 183.941 119.882C176.993 119.882 170.528 122.97 170.528 132.041H162.808C162.808 122.101 170.335 113.223 183.941 113.223C197.355 113.223 205.364 122.101 205.364 134.936V155.394H212.409V162.149H203.917C200.25 162.149 198.223 160.122 198.223 156.552V153.946L199.478 148.928H197.162C195.328 156.262 190.214 163.114 178.634 163.114C164.738 163.114 162.615 153.85 162.615 148.832ZM170.528 147.867C170.528 153.367 174.002 156.359 179.599 156.359C190.503 156.359 197.451 148.832 197.451 138.892L179.695 140.726C173.616 141.305 170.528 143.138 170.528 147.867ZM272.412 155.394V174.887H264.499V162.149H227.636V174.887H219.723V155.394H226.092C231.303 144.875 233.233 133.102 233.233 114.188H266.043V155.394H272.412ZM234.005 155.394H258.13V120.943H241.05C240.567 135.997 238.541 146.226 234.005 155.394ZM280.695 148.832C280.695 141.208 285.231 135.997 296.425 134.839L315.532 133.006C315.05 124.224 310.321 119.882 302.022 119.882C295.074 119.882 288.608 122.97 288.608 132.041H280.888C280.888 122.101 288.415 113.223 302.022 113.223C315.436 113.223 323.445 122.101 323.445 134.936V155.394H330.49V162.149H321.998C318.331 162.149 316.304 160.122 316.304 156.552V153.946L317.559 148.928H315.243C313.409 156.262 308.295 163.114 296.714 163.114C282.818 163.114 280.695 153.85 280.695 148.832ZM288.608 147.867C288.608 153.367 292.082 156.359 297.679 156.359C308.584 156.359 315.532 148.832 315.532 138.892L297.776 140.726C291.696 141.305 288.608 143.138 288.608 147.867ZM374.479 114.188H382.295V162.149H374.479V141.498H347.459V162.149H339.546V114.188H347.459V134.743H374.479V114.188ZM442.496 162.149H434.68V121.04L435.934 116.504H433.715L412.388 162.149H396.466V114.188H404.379V155.201L403.124 159.929H405.344L426.67 114.188H442.496V162.149ZM487.515 114.188V162.149H479.699V141.208H473.716L463.969 158.385C462.425 160.798 460.109 162.149 457.021 162.149H449.88V155.587H457.697L465.996 140.822C457.986 139.664 453.354 135.997 453.354 127.698C453.354 117.952 460.399 114.188 472.268 114.188H487.515ZM479.699 134.936V120.461H472.944C465.224 120.461 461.267 121.908 461.267 127.698C461.267 133.488 465.224 134.936 472.944 134.936H479.699ZM501.73 162.149V114.188H517.556L528.847 159.929H531.066L542.357 114.188H558.279V162.149H550.366V121.136L551.717 116.504H549.401L537.918 162.149H522.092L510.608 116.504H508.389L509.643 121.136V162.149H501.73ZM618.44 162.149H610.623V121.04L611.878 116.504H609.658L588.332 162.149H572.409V114.188H580.322V155.201L579.067 159.929H581.287L602.614 114.188H618.44V162.149Z" fill="black"/>
</svg>
