<svg width="962" height="278" viewBox="0 0 962 278" fill="none" xmlns="http://www.w3.org/2000/svg">
<path d="M16.1547 89.3406L984.163 0.324684L996.587 135.423L28.578 224.438L37.7197 195.71L16.1547 179.498L5.48863 148.039L28.578 110.79L16.1547 89.3406Z" fill="#F6FF49"/>
<path d="M81.677 182.263L75.4472 114.516L105.717 111.733L121.491 174.726L125.335 174.372L129.356 109.559L159.626 106.775L165.856 174.522L150.481 175.936L145.488 121.643L147.487 111.768L143.644 112.121L138.661 177.023L108.872 179.762L92.1367 116.858L88.293 117.211L92.0595 126.556L97.0522 180.849L81.677 182.263ZM233.346 168.316L217.971 169.73L214.613 133.214L216.745 124.781L212.901 125.134L206.536 170.781L176.458 173.547L171.996 125.019L187.371 123.606L190.684 159.641L188.597 168.555L192.441 168.201L198.806 122.554L228.884 119.788L233.346 168.316ZM276.776 115.384L292.151 113.97L296.613 162.498L281.238 163.912L279.621 146.327L256.75 148.43L258.368 166.015L242.992 167.429L238.53 118.901L253.905 117.487L255.513 134.976L278.384 132.873L276.776 115.384ZM365.007 156.209L349.632 157.623L346.274 121.107L348.406 112.673L344.562 113.027L338.197 158.674L308.119 161.44L303.657 112.912L319.032 111.498L322.346 147.534L320.258 156.447L324.102 156.094L330.467 110.447L360.545 107.681L365.007 156.209ZM372.698 123.522L424.59 118.75L425.65 130.282L373.759 135.053L372.698 123.522ZM489.937 144.72L473.313 146.249L461.265 129.042C460.409 129.217 459.544 129.297 458.583 129.385L453.682 129.836L455.343 147.902L439.968 149.315L435.506 100.788L450.881 99.3737L452.445 116.383L456.577 116.003L465.081 102.041C467.191 98.6491 470.772 97.5445 474.904 97.1646L483.553 96.3693L484.79 109.823L477.006 110.538L471.852 118.765L489.937 144.72ZM493.508 131.019C492.739 122.659 497.285 117.298 511.514 113.955L526.598 110.436C526.236 106.496 522.94 104.376 516.31 104.986C510.16 105.551 506.939 108.464 507.345 112.885L492.931 114.21C491.8 101.91 501.611 93.7396 515.161 92.4936C528.518 91.2653 540.834 96.6256 542.301 112.577L543.555 126.223L550.57 125.578L551.807 139.031L541.141 140.012C536.528 140.436 533.695 138.08 533.271 133.467L533.183 132.507L535.055 126.52L531.211 126.873C530.128 135.113 526.046 142.369 512.497 143.615C497.41 145.002 493.967 136.016 493.508 131.019ZM508.618 126.722C508.874 129.509 511.644 130.126 514.239 129.888C522.695 129.11 527.942 125.042 527.394 119.084L515.157 121.954C510.606 123.051 508.361 123.935 508.618 126.722ZM553.09 89.9748L568.465 88.5609L568.739 91.5398L566.652 100.453L570.496 100.1C572.402 93.4319 576.449 86.8577 588.461 85.7531C602.491 84.4629 610.566 95.3492 611.83 109.091C613.093 122.832 607.13 134.913 593.1 136.203C581.088 137.307 575.91 131.582 572.82 125.373L568.976 125.726L572.654 134.11L574.607 155.347L559.232 156.761L553.09 89.9748ZM570.701 112.873C571.461 121.137 576.392 124.172 584.656 123.412C592.92 122.652 597.214 118.769 596.455 110.505C595.695 102.241 590.755 99.1092 582.491 99.8691C574.227 100.629 569.941 104.609 570.701 112.873ZM620.57 119.334C619.802 110.974 624.348 105.614 638.577 102.27L653.661 98.7513C653.299 94.8114 650.003 92.6918 643.372 93.3015C637.222 93.8671 634.002 96.7797 634.408 101.2L619.994 102.526C618.863 90.2255 628.674 82.0552 642.224 80.8092C655.581 79.5809 667.897 84.9412 669.363 100.893L670.618 114.538L677.633 113.893L678.87 127.347L668.204 128.327C663.591 128.752 660.758 126.396 660.334 121.783L660.246 120.822L662.118 114.836L658.274 115.189C657.19 123.429 653.109 130.685 639.56 131.931C624.473 133.318 621.03 124.331 620.57 119.334ZM635.681 115.038C635.937 117.825 638.707 118.442 641.302 118.203C649.758 117.426 655.004 113.358 654.457 107.4L642.219 110.269C637.669 111.366 635.424 112.251 635.681 115.038ZM679.52 102.769C677.964 85.8566 689.312 76.479 704.592 75.074C719.774 73.6778 732.642 80.8285 734.198 97.7412C735.762 114.75 724.414 124.128 709.231 125.524C693.952 126.929 681.084 119.778 679.52 102.769ZM694.895 101.355C695.646 109.523 700.69 112.742 707.994 112.07C715.201 111.408 719.574 107.323 718.822 99.1551C718.08 91.0831 713.036 87.8645 705.829 88.5273C698.525 89.1988 694.153 93.2834 694.895 101.355ZM793.143 116.838L776.518 118.367L764.47 101.16C763.614 101.335 762.749 101.415 761.788 101.503L756.887 101.954L758.549 120.02L743.173 121.433L738.711 72.9055L754.086 71.4916L755.65 88.5004L759.782 88.1204L768.286 74.159C770.397 70.767 773.978 69.6625 778.11 69.2825L786.758 68.4872L787.995 81.9404L780.212 82.6562L775.057 90.8828L793.143 116.838ZM793.673 91.6905C792.259 76.3154 801.885 66.1271 816.972 64.7397C832.059 63.3523 843.451 71.3171 844.803 86.0196L845.245 90.8244L808.441 94.2088C808.953 99.7823 813.352 103.351 822.096 102.547C827.478 102.052 831.337 99.759 831.962 96.0191L847.337 94.6052C847.021 101.708 840.062 113.493 823.245 115.039C804.603 116.754 794.937 105.432 793.673 91.6905ZM807.646 85.5603L830.036 83.5013C829.7 79.8497 826.673 76.4456 818.121 77.232C809.568 78.0185 807.31 81.9087 807.646 85.5603ZM856.12 42.7274L871.495 41.3135L872.553 84.4369L862.944 85.3205L856.12 42.7274ZM870.03 110.737C863.495 111.338 859.131 107.088 858.574 101.034C858.035 95.1719 861.551 90.1971 868.086 89.5962C874.428 89.013 879.176 93.2279 879.715 99.0897C880.272 105.144 876.372 110.154 870.03 110.737Z" fill="black"/>
</svg>
