<svg width="1089" height="222" viewBox="0 0 1089 222" fill="none" xmlns="http://www.w3.org/2000/svg">
<path d="M1.51783 27.2222H6.26564C6.26564 36.0809 10.145 39.3234 18.3089 39.3234C25.7201 39.3234 28.8467 36.3125 28.8467 30.812C28.8467 25.4273 25.8938 23.3429 20.9723 23.3429H15.2981V19.2899H20.9723C25.8938 19.2899 28.2677 17.2634 28.2677 12.863C28.2677 8.46257 25.7201 5.45176 18.3089 5.45176C10.145 5.45176 6.84464 8.69417 6.84464 15.3527H2.09683C2.09683 6.26236 7.82894 1.39875 18.3089 1.39875C28.094 1.39875 33.0155 5.97286 33.0155 12.2261C33.0155 17.2055 30.3521 19.811 25.1411 20.6216V21.9533C30.3521 22.9955 33.5945 25.2536 33.5945 31.5068C33.5945 38.8023 28.094 43.3764 18.3089 43.3764C7.82894 43.3764 1.51783 38.5128 1.51783 27.2222ZM40.2928 34.8071C40.2928 30.233 43.0141 27.1064 49.7306 26.4116L61.1948 25.3115C60.9053 20.0426 58.0682 17.4371 53.0888 17.4371C48.92 17.4371 45.0406 19.2899 45.0406 24.7325H40.4086C40.4086 18.7688 44.9248 13.442 53.0888 13.442C61.1369 13.442 65.9426 18.7688 65.9426 26.4695V38.7444H70.1693V42.7974H65.0741C62.8739 42.7974 61.658 41.5815 61.658 39.4392V37.8759L62.4107 34.865H61.0211C59.921 39.2655 56.8523 43.3764 49.9043 43.3764C41.5666 43.3764 40.2928 37.8179 40.2928 34.8071ZM45.0406 34.2281C45.0406 37.5284 47.1251 39.3234 50.4833 39.3234C57.026 39.3234 61.1948 34.8071 61.1948 28.8434L50.5412 29.9435C46.8935 30.2909 45.0406 31.391 45.0406 34.2281ZM118.969 42.7974H113.411L103.162 30.2909C102.699 30.4067 102.236 30.4646 101.715 30.4646H99.6884V42.7974H94.9406V14.021H99.6884V26.2379H102.062L109.531 16.1633C110.574 14.7158 111.847 14.021 113.758 14.021H118.274V18.074H113.584L106.521 27.5696L118.969 42.7974ZM123.411 34.8071C123.411 30.233 126.133 27.1064 132.849 26.4116L144.313 25.3115C144.024 20.0426 141.187 17.4371 136.207 17.4371C132.038 17.4371 128.159 19.2899 128.159 24.7325H123.527C123.527 18.7688 128.043 13.442 136.207 13.442C144.255 13.442 149.061 18.7688 149.061 26.4695V38.7444H153.288V42.7974H148.192C145.992 42.7974 144.776 41.5815 144.776 39.4392V37.8759L145.529 34.865H144.139C143.039 39.2655 139.971 43.3764 133.023 43.3764C124.685 43.3764 123.411 37.8179 123.411 34.8071ZM128.159 34.2281C128.159 37.5284 130.243 39.3234 133.602 39.3234C140.144 39.3234 144.313 34.8071 144.313 28.8434L133.66 29.9435C130.012 30.2909 128.159 31.391 128.159 34.2281ZM198.438 18.074H193.748L186.337 27.9749L198.438 42.7974H192.88L182.689 30.4067C182.458 30.4646 182.168 30.4646 181.879 30.4646H179.852V42.7974H175.104V30.4646H173.078C172.788 30.4646 172.499 30.4646 172.267 30.4067L162.077 42.7974H156.518L168.619 27.9749L161.208 18.074H156.518V14.021H161.092C162.945 14.021 164.219 14.7158 165.261 16.1633L172.788 26.2379H175.104V14.021H179.852V26.2379H182.168L189.695 16.1633C190.737 14.7158 192.011 14.021 193.864 14.021H198.438V18.074ZM235.033 38.7444V50.4402H230.285V42.7974H208.168V50.4402H203.42V38.7444H207.241C210.368 32.4332 211.526 25.3694 211.526 14.021H231.212V38.7444H235.033ZM211.989 38.7444H226.464V18.074H216.216C215.926 27.1064 214.71 33.2438 211.989 38.7444ZM239.438 28.3802C239.438 20.0426 245.459 13.442 254.665 13.442C263.814 13.442 269.777 20.0426 269.777 28.3802C269.777 36.7757 263.814 43.3764 254.665 43.3764C245.459 43.3764 239.438 36.7757 239.438 28.3802ZM244.186 28.3802C244.186 34.4018 247.833 39.3234 254.665 39.3234C261.44 39.3234 265.087 34.4018 265.087 28.3802C265.087 22.4165 261.44 17.495 254.665 17.495C247.833 17.495 244.186 22.4165 244.186 28.3802ZM275.23 28.0328C275.23 18.7688 281.02 13.442 289.183 13.442C297.289 13.442 302.616 18.5951 302.616 27.4538V29.3066H279.862C280.151 34.7492 282.757 39.4392 289.878 39.4392C294.626 39.4392 297.811 37.1231 298.853 32.7227H303.601C302.5 37.181 299.026 43.3764 289.878 43.3764C279.572 43.3764 275.23 36.3125 275.23 28.0328ZM279.862 25.7168H297.984C297.984 21.0848 294.916 17.4371 289.183 17.4371C283.509 17.4371 279.862 21.0848 279.862 25.7168ZM353.9 14.021V42.7974H349.153V18.074H334.851V42.7974H330.103V14.021H353.9ZM362.333 14.021H367.081V18.2477L366.328 21.548H367.66C368.876 17.0318 372.697 13.442 379.298 13.442C387.635 13.442 393.02 19.8689 393.02 28.4381C393.02 36.9494 387.635 43.3764 379.298 43.3764C372.697 43.3764 368.876 39.7866 367.66 35.3282H366.328L367.081 38.5707V53.3352H362.333V14.021ZM367.081 28.4381C367.081 36.0809 372.002 39.3234 377.908 39.3234C383.872 39.3234 388.272 35.9651 388.272 28.4381C388.272 20.8532 383.872 17.495 377.908 17.495C372.002 17.495 367.081 20.7374 367.081 28.4381ZM399.172 28.3802C399.172 20.0426 405.194 13.442 414.4 13.442C423.548 13.442 429.512 20.0426 429.512 28.3802C429.512 36.7757 423.548 43.3764 414.4 43.3764C405.194 43.3764 399.172 36.7757 399.172 28.3802ZM403.92 28.3802C403.92 34.4018 407.568 39.3234 414.4 39.3234C421.174 39.3234 424.822 34.4018 424.822 28.3802C424.822 22.4165 421.174 17.495 414.4 17.495C407.568 17.495 403.92 22.4165 403.92 28.3802ZM459.05 0.240749C459.05 6.14656 455.634 10.1996 450.018 10.1996C444.344 10.1996 440.928 6.14656 440.928 0.240749H444.807C444.807 4.46746 446.312 6.43607 450.018 6.43607C453.723 6.43607 455.171 4.46746 455.171 0.240749H459.05ZM463.74 42.7974H459.05V18.1319L459.803 15.4106H458.471L445.675 42.7974H436.122V14.021H440.87V38.6286L440.117 41.4657H441.449L454.245 14.021H463.74V42.7974ZM501.521 38.7444V50.4402H496.773V42.7974H474.655V50.4402H469.907V38.7444H473.729C476.855 32.4332 478.013 25.3694 478.013 14.021H497.7V38.7444H501.521ZM478.477 38.7444H492.952V18.074H482.703C482.414 27.1064 481.198 33.2438 478.477 38.7444ZM505.925 28.0328C505.925 18.7688 511.715 13.442 519.879 13.442C527.985 13.442 533.312 18.5951 533.312 27.4538V29.3066H510.557C510.847 34.7492 513.452 39.4392 520.574 39.4392C525.322 39.4392 528.506 37.1231 529.549 32.7227H534.297C533.196 37.181 529.722 43.3764 520.574 43.3764C510.268 43.3764 505.925 36.3125 505.925 28.0328ZM510.557 25.7168H528.68C528.68 21.0848 525.611 17.4371 519.879 17.4371C514.205 17.4371 510.557 21.0848 510.557 25.7168ZM561.8 14.021H566.489V42.7974H561.8V30.4067H545.588V42.7974H540.84V14.021H545.588V26.3537H561.8V14.021ZM595.952 14.021H600.641V42.7974H595.952V30.4067H579.74V42.7974H574.992V14.021H579.74V26.3537H595.952V14.021ZM607.42 28.3802C607.42 20.0426 613.442 13.442 622.648 13.442C631.796 13.442 637.76 20.0426 637.76 28.3802C637.76 36.7757 631.796 43.3764 622.648 43.3764C613.442 43.3764 607.42 36.7757 607.42 28.3802ZM612.168 28.3802C612.168 34.4018 615.816 39.3234 622.648 39.3234C629.422 39.3234 633.07 34.4018 633.07 28.3802C633.07 22.4165 629.422 17.495 622.648 17.495C615.816 17.495 612.168 22.4165 612.168 28.3802ZM643.212 28.0328C643.212 18.7688 649.002 13.442 657.166 13.442C665.272 13.442 670.599 18.5951 670.599 27.4538V29.3066H647.844C648.134 34.7492 650.739 39.4392 657.861 39.4392C662.609 39.4392 665.793 37.1231 666.835 32.7227H671.583C670.483 37.181 667.009 43.3764 657.861 43.3764C647.555 43.3764 643.212 36.3125 643.212 28.0328ZM647.844 25.7168H665.967C665.967 21.0848 662.898 17.4371 657.166 17.4371C651.492 17.4371 647.844 21.0848 647.844 25.7168ZM697.507 31.5647H702.139C702.139 37.6442 704.224 39.6129 709.84 39.6129C714.877 39.6129 716.498 37.76 716.498 34.2281C716.498 30.9278 714.877 29.4803 711.345 29.4803H707.466V25.6589H711.345C714.877 25.6589 715.919 24.1535 715.919 21.4901C715.919 18.9425 714.703 17.2055 709.608 17.2055C703.992 17.2055 702.718 19.1162 702.718 22.9955H698.086C698.086 16.9739 701.85 13.442 709.608 13.442C716.846 13.442 720.551 16.7423 720.551 20.969C720.551 24.5588 718.351 26.4116 714.761 26.8748V28.2065C718.351 28.7276 721.13 30.6383 721.13 34.7492C721.13 40.0182 717.077 43.3764 709.84 43.3764C702.081 43.3764 697.507 39.7866 697.507 31.5647ZM727.857 34.8071C727.857 30.233 730.578 27.1064 737.295 26.4116L748.759 25.3115C748.47 20.0426 745.633 17.4371 740.653 17.4371C736.484 17.4371 732.605 19.2899 732.605 24.7325H727.973C727.973 18.7688 732.489 13.442 740.653 13.442C748.701 13.442 753.507 18.7688 753.507 26.4695V38.7444H757.734V42.7974H752.638C750.438 42.7974 749.222 41.5815 749.222 39.4392V37.8759L749.975 34.865H748.585C747.485 39.2655 744.417 43.3764 737.469 43.3764C729.131 43.3764 727.857 37.8179 727.857 34.8071ZM732.605 34.2281C732.605 37.5284 734.689 39.3234 738.048 39.3234C744.59 39.3234 748.759 34.8071 748.759 28.8434L738.105 29.9435C734.458 30.2909 732.605 31.391 732.605 34.2281ZM793.736 38.7444V50.4402H788.988V42.7974H766.87V50.4402H762.122V38.7444H765.944C769.07 32.4332 770.228 25.3694 770.228 14.021H789.914V38.7444H793.736ZM770.692 38.7444H785.167V18.074H774.918C774.629 27.1064 773.413 33.2438 770.692 38.7444ZM798.706 34.8071C798.706 30.233 801.427 27.1064 808.143 26.4116L819.608 25.3115C819.318 20.0426 816.481 17.4371 811.502 17.4371C807.333 17.4371 803.453 19.2899 803.453 24.7325H798.821C798.821 18.7688 803.338 13.442 811.502 13.442C819.55 13.442 824.355 18.7688 824.355 26.4695V38.7444H828.582V42.7974H823.487C821.287 42.7974 820.071 41.5815 820.071 39.4392V37.8759L820.824 34.865H819.434C818.334 39.2655 815.265 43.3764 808.317 43.3764C799.979 43.3764 798.706 37.8179 798.706 34.8071ZM803.453 34.2281C803.453 37.5284 805.538 39.3234 808.896 39.3234C815.439 39.3234 819.608 34.8071 819.608 28.8434L808.954 29.9435C805.306 30.2909 803.453 31.391 803.453 34.2281ZM854.976 14.021H859.665V42.7974H854.976V30.4067H838.764V42.7974H834.016V14.021H838.764V26.3537H854.976V14.021ZM895.786 42.7974H891.096V18.1319L891.849 15.4106H890.517L877.721 42.7974H868.168V14.021H872.916V38.6286L872.163 41.4657H873.495L886.29 14.021H895.786V42.7974ZM901.953 28.0328C901.953 18.7688 907.743 13.442 915.907 13.442C924.013 13.442 929.34 18.5951 929.34 27.4538V29.3066H906.585C906.875 34.7492 909.48 39.4392 916.602 39.4392C921.35 39.4392 924.534 37.1231 925.577 32.7227H930.324C929.224 37.181 925.75 43.3764 916.602 43.3764C906.296 43.3764 901.953 36.3125 901.953 28.0328ZM906.585 25.7168H924.708C924.708 21.0848 921.639 17.4371 915.907 17.4371C910.233 17.4371 906.585 21.0848 906.585 25.7168ZM26.8202 70.021V74.074H15.9929V98.7974H11.2451V74.074H0.359824V70.021H26.8202ZM44.2463 78.3007C51.0786 78.3007 56.5791 80.5009 56.5791 88.549C56.5791 96.5972 51.0786 98.7974 44.2463 98.7974H33.5348V70.021H38.2826V78.3007H44.2463ZM60.6321 98.7974V70.021H65.322V98.7974H60.6321ZM38.2826 94.7444H43.6673C48.5309 94.7444 51.8313 94.1654 51.8313 88.549C51.8313 82.9327 48.5309 82.3537 43.6673 82.3537H38.2826V94.7444ZM116.872 70.021V98.7974H112.124V74.074H97.8225V98.7974H93.0747V70.021H116.872ZM124.146 84.3802C124.146 76.0426 130.168 69.442 139.374 69.442C148.522 69.442 154.486 76.0426 154.486 84.3802C154.486 92.7757 148.522 99.3764 139.374 99.3764C130.168 99.3764 124.146 92.7757 124.146 84.3802ZM128.894 84.3802C128.894 90.4018 132.542 95.3234 139.374 95.3234C146.148 95.3234 149.796 90.4018 149.796 84.3802C149.796 78.4165 146.148 73.495 139.374 73.495C132.542 73.495 128.894 78.4165 128.894 84.3802ZM183.511 70.021V98.7974H178.763V74.074H167.53C167.472 89.8807 166.662 98.7974 157.224 98.7974V94.7444C162.84 94.7444 162.782 86.3488 162.782 70.021H183.511ZM214.897 70.021H220.05L207.544 98.5079V106.556C207.544 108.756 206.27 110.088 203.549 109.972L192.432 109.451V105.398L202.796 105.919V98.5079L190.232 70.021H195.443L204.475 92.4283V94.6286H205.865V92.4283L214.897 70.021ZM248.179 70.021H252.927V98.7974H248.179V88.3753L230.172 89.5333C227.451 89.707 226.177 88.3174 226.177 85.5961V70.021H230.925V85.4803L248.179 84.3223V70.021ZM289.022 98.7974H284.332V74.1319L285.085 71.4106H283.753L270.957 98.7974H261.404V70.021H266.151V94.6286L265.399 97.4657H266.73L279.526 70.021H289.022V98.7974ZM327.498 70.021H332.245V98.7974H296.347V70.021H301.095V94.7444H311.922V70.021H316.67V94.7444H327.498V70.021ZM351.389 78.3007C358.221 78.3007 363.721 80.5009 363.721 88.549C363.721 96.5972 358.221 98.7974 351.389 98.7974H340.677V70.021H345.425V78.3007H351.389ZM345.425 94.7444H350.81C355.673 94.7444 358.973 94.1654 358.973 88.549C358.973 82.9327 355.673 82.3537 350.81 82.3537H345.425V94.7444ZM429.869 74.074H425.179L417.768 83.9749L429.869 98.7974H424.311L414.12 86.4067C413.889 86.4646 413.599 86.4646 413.31 86.4646H411.283V98.7974H406.535V86.4646H404.509C404.219 86.4646 403.93 86.4646 403.698 86.4067L393.508 98.7974H387.949L400.05 83.9749L392.639 74.074H387.949V70.021H392.523C394.376 70.021 395.65 70.7158 396.692 72.1633L404.219 82.2379H406.535V70.021H411.283V82.2379H413.599L421.126 72.1633C422.168 70.7158 423.442 70.021 425.295 70.021H429.869V74.074ZM433.098 84.0328C433.098 74.7688 438.888 69.442 447.052 69.442C455.158 69.442 460.485 74.5951 460.485 83.4538V85.3066H437.73C438.019 90.7492 440.625 95.4392 447.747 95.4392C452.494 95.4392 455.679 93.1231 456.721 88.7227H461.469C460.369 93.181 456.895 99.3764 447.747 99.3764C437.44 99.3764 433.098 92.3125 433.098 84.0328ZM437.73 81.7168H455.853C455.853 77.0848 452.784 73.4371 447.052 73.4371C441.378 73.4371 437.73 77.0848 437.73 81.7168ZM490.587 70.021V74.074H479.76V98.7974H475.012V74.074H464.126V70.021H490.587ZM492.694 84.3802C492.694 76.0426 498.716 69.442 507.922 69.442C517.07 69.442 523.034 76.0426 523.034 84.3802C523.034 92.7757 517.07 99.3764 507.922 99.3764C498.716 99.3764 492.694 92.7757 492.694 84.3802ZM497.442 84.3802C497.442 90.4018 501.09 95.3234 507.922 95.3234C514.696 95.3234 518.344 90.4018 518.344 84.3802C518.344 78.4165 514.696 73.495 507.922 73.495C501.09 73.495 497.442 78.4165 497.442 84.3802ZM550.604 70.021H555.294V98.7974H550.604V86.4067H534.392V98.7974H529.644V70.021H534.392V82.3537H550.604V70.021ZM566.575 89.3596L570.802 90.4597L566.286 107.251L562.059 106.093L566.575 89.3596ZM597.921 90.8071C597.921 86.233 600.642 83.1064 607.359 82.4116L618.823 81.3115C618.534 76.0426 615.696 73.4371 610.717 73.4371C606.548 73.4371 602.669 75.2899 602.669 80.7325H598.037C598.037 74.7688 602.553 69.442 610.717 69.442C618.765 69.442 623.571 74.7688 623.571 82.4695V94.7444H627.798V98.7974H622.702C620.502 98.7974 619.286 97.5815 619.286 95.4392V93.8759L620.039 90.865H618.649C617.549 95.2655 614.481 99.3764 607.532 99.3764C599.195 99.3764 597.921 93.8179 597.921 90.8071ZM602.669 90.2281C602.669 93.5284 604.753 95.3234 608.111 95.3234C614.654 95.3234 618.823 90.8071 618.823 84.8434L608.169 85.9435C604.522 86.2909 602.669 87.391 602.669 90.2281ZM652.569 98.7974V70.021H662.991C669.881 70.021 674.513 71.4106 674.513 76.9111C674.513 81.6589 671.271 82.8169 668.955 82.9906V84.3802C672.776 84.4381 676.655 85.7119 676.655 91.2124C676.655 96.8288 672.023 98.7974 665.133 98.7974H652.569ZM657.201 81.9484H662.991C667.681 81.9484 669.881 81.7168 669.881 77.6638C669.881 74.3635 667.681 73.7845 662.991 73.7845H657.201V81.9484ZM657.201 95.0339H665.133C669.765 95.0339 672.023 94.4549 672.023 90.6334C672.023 86.5804 669.765 85.7119 665.133 85.7119H657.201V95.0339ZM726.695 98.7974H721.136L710.888 86.2909C710.425 86.4067 709.962 86.4646 709.44 86.4646H707.414V98.7974H702.666V70.021H707.414V82.2379H709.788L717.257 72.1633C718.299 70.7158 719.573 70.021 721.484 70.021H726V74.074H721.31L714.246 83.5696L726.695 98.7974ZM729.949 84.3802C729.949 76.0426 735.971 69.442 745.177 69.442C754.325 69.442 760.289 76.0426 760.289 84.3802C760.289 92.7757 754.325 99.3764 745.177 99.3764C735.971 99.3764 729.949 92.7757 729.949 84.3802ZM734.697 84.3802C734.697 90.4018 738.345 95.3234 745.177 95.3234C751.951 95.3234 755.599 90.4018 755.599 84.3802C755.599 78.4165 751.951 73.495 745.177 73.495C738.345 73.495 734.697 78.4165 734.697 84.3802ZM787.859 70.021H792.549V98.7974H787.859V86.4067H771.647V98.7974H766.899V70.021H771.647V82.3537H787.859V70.021ZM829.075 94.7444C831.333 94.7444 832.549 96.0182 832.549 98.2184V106.44H827.859V98.7974H801.051V70.021H805.799V94.7444H820.1V70.021H824.848V94.7444H829.075ZM834.158 84.0328C834.158 74.7688 839.948 69.442 848.112 69.442C856.218 69.442 861.545 74.5951 861.545 83.4538V85.3066H838.79C839.08 90.7492 841.685 95.4392 848.807 95.4392C853.555 95.4392 856.739 93.1231 857.782 88.7227H862.529C861.429 93.181 857.955 99.3764 848.807 99.3764C838.501 99.3764 834.158 92.3125 834.158 84.0328ZM838.79 81.7168H856.913C856.913 77.0848 853.844 73.4371 848.112 73.4371C842.438 73.4371 838.79 77.0848 838.79 81.7168ZM889.032 98.7974V70.021H899.454C906.344 70.021 910.976 71.4106 910.976 76.9111C910.976 81.6589 907.734 82.8169 905.418 82.9906V84.3802C909.239 84.4381 913.119 85.7119 913.119 91.2124C913.119 96.8288 908.487 98.7974 901.597 98.7974H889.032ZM893.664 81.9484H899.454C904.144 81.9484 906.344 81.7168 906.344 77.6638C906.344 74.3635 904.144 73.7845 899.454 73.7845H893.664V81.9484ZM893.664 95.0339H901.597C906.229 95.0339 908.487 94.4549 908.487 90.6334C908.487 86.5804 906.229 85.7119 901.597 85.7119H893.664V95.0339ZM918.747 84.0328C918.747 74.7688 924.537 69.442 932.701 69.442C940.807 69.442 946.134 74.5951 946.134 83.4538V85.3066H923.379C923.668 90.7492 926.274 95.4392 933.395 95.4392C938.143 95.4392 941.328 93.1231 942.37 88.7227H947.118C946.018 93.181 942.544 99.3764 933.395 99.3764C923.089 99.3764 918.747 92.3125 918.747 84.0328ZM923.379 81.7168H941.502C941.502 77.0848 938.433 73.4371 932.701 73.4371C927.026 73.4371 923.379 77.0848 923.379 81.7168ZM975.267 70.021H980.015V98.7974H975.267V88.3753L957.26 89.5333C954.539 89.707 953.265 88.3174 953.265 85.5961V70.021H958.013V85.4803L975.267 84.3223V70.021ZM987.334 84.0328C987.334 74.7688 993.124 69.442 1001.29 69.442C1009.39 69.442 1014.72 74.5951 1014.72 83.4538V85.3066H991.966C992.255 90.7492 994.861 95.4392 1001.98 95.4392C1006.73 95.4392 1009.91 93.1231 1010.96 88.7227H1015.7C1014.6 93.181 1011.13 99.3764 1001.98 99.3764C991.676 99.3764 987.334 92.3125 987.334 84.0328ZM991.966 81.7168H1010.09C1010.09 77.0848 1007.02 73.4371 1001.29 73.4371C995.613 73.4371 991.966 77.0848 991.966 81.7168ZM1022.25 70.021H1027V74.2477L1026.24 77.548H1027.57C1028.79 73.0318 1032.61 69.442 1039.21 69.442C1047.55 69.442 1052.93 75.8689 1052.93 84.4381C1052.93 92.9494 1047.55 99.3764 1039.21 99.3764C1032.61 99.3764 1028.79 95.7866 1027.57 91.3282H1026.24L1027 94.5707V109.335H1022.25V70.021ZM1027 84.4381C1027 92.0809 1031.92 95.3234 1037.82 95.3234C1043.79 95.3234 1048.19 91.9651 1048.19 84.4381C1048.19 76.8532 1043.79 73.495 1037.82 73.495C1031.92 73.495 1027 76.7374 1027 84.4381ZM1059.09 90.8071C1059.09 86.233 1061.81 83.1064 1068.52 82.4116L1079.99 81.3115C1079.7 76.0426 1076.86 73.4371 1071.88 73.4371C1067.71 73.4371 1063.83 75.2899 1063.83 80.7325H1059.2C1059.2 74.7688 1063.72 69.442 1071.88 69.442C1079.93 69.442 1084.74 74.7688 1084.74 82.4695V94.7444H1088.96V98.7974H1083.87C1081.67 98.7974 1080.45 97.5815 1080.45 95.4392V93.8759L1081.2 90.865H1079.82C1078.71 95.2655 1075.65 99.3764 1068.7 99.3764C1060.36 99.3764 1059.09 93.8179 1059.09 90.8071ZM1063.83 90.2281C1063.83 93.5284 1065.92 95.3234 1069.28 95.3234C1075.82 95.3234 1079.99 90.8071 1079.99 84.8434L1069.34 85.9435C1065.69 86.2909 1063.83 87.391 1063.83 90.2281ZM0.938826 140.38C0.938826 132.101 6.32354 125.442 15.6455 125.442C21.2039 125.442 28.3256 128.569 29.0783 136.906H24.2726C23.462 131.406 19.8143 129.495 15.6455 129.495C8.81325 129.495 5.68664 134.474 5.68664 140.38C5.68664 146.344 8.81325 151.323 15.6455 151.323C19.8143 151.323 23.462 149.413 24.2726 143.912H29.0783C28.3256 152.25 21.2039 155.376 15.6455 155.376C6.32354 155.376 0.938826 148.718 0.938826 140.38ZM35.6269 154.797V126.021H45.1225L51.8968 153.466H53.2285L60.0029 126.021H69.5564V154.797H64.8086V130.19L65.6192 127.411H64.2296L57.3395 154.797H47.8438L40.9537 127.411H39.622L40.3747 130.19V154.797H35.6269ZM76.8762 140.38C76.8762 132.043 82.8979 125.442 92.104 125.442C101.252 125.442 107.216 132.043 107.216 140.38C107.216 148.776 101.252 155.376 92.104 155.376C82.8979 155.376 76.8762 148.776 76.8762 140.38ZM81.624 140.38C81.624 146.402 85.2718 151.323 92.104 151.323C98.8783 151.323 102.526 146.402 102.526 140.38C102.526 134.417 98.8783 129.495 92.104 129.495C85.2718 129.495 81.624 134.417 81.624 140.38ZM152.016 130.074H147.326L139.915 139.975L152.016 154.797H146.458L136.267 142.407C136.036 142.465 135.746 142.465 135.457 142.465H133.43V154.797H128.682V142.465H126.656C126.366 142.465 126.077 142.465 125.845 142.407L115.655 154.797H110.096L122.198 139.975L114.786 130.074H110.096V126.021H114.671C116.523 126.021 117.797 126.716 118.839 128.163L126.366 138.238H128.682V126.021H133.43V138.238H135.746L143.273 128.163C144.315 126.716 145.589 126.021 147.442 126.021H152.016V130.074ZM155.245 140.033C155.245 130.769 161.035 125.442 169.199 125.442C177.305 125.442 182.632 130.595 182.632 139.454V141.307H159.877C160.167 146.749 162.772 151.439 169.894 151.439C174.642 151.439 177.826 149.123 178.868 144.723H183.616C182.516 149.181 179.042 155.376 169.894 155.376C159.588 155.376 155.245 148.313 155.245 140.033ZM159.877 137.717H178C178 133.085 174.931 129.437 169.199 129.437C163.525 129.437 159.877 133.085 159.877 137.717ZM221.31 126.021H226.057V154.797H190.159V126.021H194.907V150.744H205.734V126.021H210.482V150.744H221.31V126.021ZM245.201 134.301C252.033 134.301 257.533 136.501 257.533 144.549C257.533 152.597 252.033 154.797 245.201 154.797H234.489V126.021H239.237V134.301H245.201ZM239.237 150.744H244.622C249.485 150.744 252.786 150.165 252.786 144.549C252.786 138.933 249.485 138.354 244.622 138.354H239.237V150.744ZM307.874 126.021V154.797H303.127V130.074H288.825V154.797H284.077V126.021H307.874ZM315.149 140.38C315.149 132.043 321.171 125.442 330.377 125.442C339.525 125.442 345.489 132.043 345.489 140.38C345.489 148.776 339.525 155.376 330.377 155.376C321.171 155.376 315.149 148.776 315.149 140.38ZM319.897 140.38C319.897 146.402 323.544 151.323 330.377 151.323C337.151 151.323 340.799 146.402 340.799 140.38C340.799 134.417 337.151 129.495 330.377 129.495C323.544 129.495 319.897 134.417 319.897 140.38ZM372.879 126.021H378.032L365.525 154.508V162.556C365.525 164.756 364.251 166.088 361.53 165.972L350.413 165.451V161.398L360.777 161.919V154.508L348.213 126.021H353.424L362.457 148.428V150.629H363.846V148.428L372.879 126.021ZM406.161 126.021H410.909V154.797H406.161V144.375L388.154 145.533C385.432 145.707 384.159 144.317 384.159 141.596V126.021H388.907V141.48L406.161 140.322V126.021ZM418.227 146.807C418.227 142.233 420.948 139.106 427.665 138.412L439.129 137.312C438.839 132.043 436.002 129.437 431.023 129.437C426.854 129.437 422.975 131.29 422.975 136.733H418.343C418.343 130.769 422.859 125.442 431.023 125.442C439.071 125.442 443.877 130.769 443.877 138.47V150.744H448.104V154.797H443.008C440.808 154.797 439.592 153.581 439.592 151.439V149.876L440.345 146.865H438.955C437.855 151.265 434.786 155.376 427.838 155.376C419.501 155.376 418.227 149.818 418.227 146.807ZM422.975 146.228C422.975 149.528 425.059 151.323 428.417 151.323C434.96 151.323 439.129 146.807 439.129 140.843L428.475 141.944C424.828 142.291 422.975 143.391 422.975 146.228ZM451.361 140.38C451.361 132.101 456.746 125.442 466.068 125.442C471.626 125.442 478.748 128.569 479.501 136.906H474.695C473.884 131.406 470.237 129.495 466.068 129.495C459.236 129.495 456.109 134.474 456.109 140.38C456.109 146.344 459.236 151.323 466.068 151.323C470.237 151.323 473.884 149.413 474.695 143.912H479.501C478.748 152.25 471.626 155.376 466.068 155.376C456.746 155.376 451.361 148.718 451.361 140.38ZM508.624 126.021V130.074H497.797V154.797H493.049V130.074H482.164V126.021H508.624ZM514.208 154.797V126.021H524.63C531.52 126.021 536.152 127.411 536.152 132.911C536.152 137.659 532.91 138.817 530.594 138.991V140.38C534.415 140.438 538.294 141.712 538.294 147.212C538.294 152.829 533.662 154.797 526.772 154.797H514.208ZM518.84 137.948H524.63C529.32 137.948 531.52 137.717 531.52 133.664C531.52 130.363 529.32 129.784 524.63 129.784H518.84V137.948ZM518.84 151.034H526.772C531.404 151.034 533.662 150.455 533.662 146.633C533.662 142.58 531.404 141.712 526.772 141.712H518.84V151.034ZM543.922 140.38C543.922 132.101 549.307 125.442 558.629 125.442C564.187 125.442 571.309 128.569 572.062 136.906H567.256C566.446 131.406 562.798 129.495 558.629 129.495C551.797 129.495 548.67 134.474 548.67 140.38C548.67 146.344 551.797 151.323 558.629 151.323C562.798 151.323 566.446 149.413 567.256 143.912H572.062C571.309 152.25 564.187 155.376 558.629 155.376C549.307 155.376 543.922 148.718 543.922 140.38ZM601.185 126.021V130.074H590.358V154.797H585.61V130.074H574.725V126.021H601.185ZM606.769 154.797V126.021H617.191C624.081 126.021 628.713 127.411 628.713 132.911C628.713 137.659 625.471 138.817 623.155 138.991V140.38C626.976 140.438 630.855 141.712 630.855 147.212C630.855 152.829 626.223 154.797 619.333 154.797H606.769ZM611.401 137.948H617.191C621.881 137.948 624.081 137.717 624.081 133.664C624.081 130.363 621.881 129.784 617.191 129.784H611.401V137.948ZM611.401 151.034H619.333C623.965 151.034 626.223 150.455 626.223 146.633C626.223 142.58 623.965 141.712 619.333 141.712H611.401V151.034ZM636.484 140.38C636.484 132.043 642.505 125.442 651.711 125.442C660.859 125.442 666.823 132.043 666.823 140.38C666.823 148.776 660.859 155.376 651.711 155.376C642.505 155.376 636.484 148.776 636.484 140.38ZM641.231 140.38C641.231 146.402 644.879 151.323 651.711 151.323C658.486 151.323 662.133 146.402 662.133 140.38C662.133 134.417 658.486 129.495 651.711 129.495C644.879 129.495 641.231 134.417 641.231 140.38ZM673.433 154.797V126.021H683.855C690.745 126.021 695.377 127.411 695.377 132.911C695.377 137.659 692.135 138.817 689.819 138.991V140.38C693.64 140.438 697.52 141.712 697.52 147.212C697.52 152.829 692.888 154.797 685.998 154.797H673.433ZM678.065 137.948H683.855C688.545 137.948 690.745 137.717 690.745 133.664C690.745 130.363 688.545 129.784 683.855 129.784H678.065V137.948ZM678.065 151.034H685.998C690.63 151.034 692.888 150.455 692.888 146.633C692.888 142.58 690.63 141.712 685.998 141.712H678.065V151.034ZM703.148 146.807C703.148 142.233 705.869 139.106 712.586 138.412L724.05 137.312C723.76 132.043 720.923 129.437 715.944 129.437C711.775 129.437 707.896 131.29 707.896 136.733H703.264C703.264 130.769 707.78 125.442 715.944 125.442C723.992 125.442 728.798 130.769 728.798 138.47V150.744H733.024V154.797H727.929C725.729 154.797 724.513 153.581 724.513 151.439V149.876L725.266 146.865H723.876C722.776 151.265 719.707 155.376 712.759 155.376C704.422 155.376 703.148 149.818 703.148 146.807ZM707.896 146.228C707.896 149.528 709.98 151.323 713.338 151.323C719.881 151.323 724.05 146.807 724.05 140.843L713.396 141.944C709.748 142.291 707.896 143.391 707.896 146.228ZM758.658 126.021V130.074H747.83V154.797H743.083V130.074H732.197V126.021H758.658ZM776.084 134.301C782.916 134.301 788.417 136.501 788.417 144.549C788.417 152.597 782.916 154.797 776.084 154.797H765.372V126.021H770.12V134.301H776.084ZM770.12 150.744H775.505C780.369 150.744 783.669 150.165 783.669 144.549C783.669 138.933 780.369 138.354 775.505 138.354H770.12V150.744ZM2.09683 210.797V182.021H12.5189C19.409 182.021 24.041 183.411 24.041 188.911C24.041 193.659 20.7986 194.817 18.4826 194.991V196.38C22.304 196.438 26.1833 197.712 26.1833 203.212C26.1833 208.829 21.5513 210.797 14.6612 210.797H2.09683ZM6.72884 193.948H12.5189C17.2088 193.948 19.409 193.717 19.409 189.664C19.409 186.363 17.2088 185.784 12.5189 185.784H6.72884V193.948ZM6.72884 207.034H14.6612C19.2932 207.034 21.5513 206.455 21.5513 202.633C21.5513 198.58 19.2932 197.712 14.6612 197.712H6.72884V207.034ZM52.194 182.021H56.9418V186.248L56.1891 189.548H57.5208C58.7368 185.032 62.5582 181.442 69.1588 181.442C77.4964 181.442 82.8811 187.869 82.8811 196.438C82.8811 204.949 77.4964 211.376 69.1588 211.376C62.5582 211.376 58.7368 207.787 57.5208 203.328H56.1891L56.9418 206.571V221.335H52.194V182.021ZM56.9418 196.438C56.9418 204.081 61.8634 207.323 67.7692 207.323C73.7329 207.323 78.1333 203.965 78.1333 196.438C78.1333 188.853 73.7329 185.495 67.7692 185.495C61.8634 185.495 56.9418 188.737 56.9418 196.438ZM89.033 196.38C89.033 188.043 95.0546 181.442 104.261 181.442C113.409 181.442 119.373 188.043 119.373 196.38C119.373 204.776 113.409 211.376 104.261 211.376C95.0546 211.376 89.033 204.776 89.033 196.38ZM93.7808 196.38C93.7808 202.402 97.4285 207.323 104.261 207.323C111.035 207.323 114.683 202.402 114.683 196.38C114.683 190.417 111.035 185.495 104.261 185.495C97.4285 185.495 93.7808 190.417 93.7808 196.38ZM126.139 199.565H130.771C130.771 205.644 132.855 207.613 138.472 207.613C143.509 207.613 145.13 205.76 145.13 202.228C145.13 198.928 143.509 197.48 139.977 197.48H136.098V193.659H139.977C143.509 193.659 144.551 192.154 144.551 189.49C144.551 186.942 143.335 185.205 138.24 185.205C132.624 185.205 131.35 187.116 131.35 190.996H126.718C126.718 184.974 130.481 181.442 138.24 181.442C145.478 181.442 149.183 184.742 149.183 188.969C149.183 192.559 146.983 194.412 143.393 194.875V196.207C146.983 196.728 149.762 198.638 149.762 202.749C149.762 208.018 145.709 211.376 138.472 211.376C130.713 211.376 126.139 207.787 126.139 199.565ZM168.358 190.301C175.191 190.301 180.691 192.501 180.691 200.549C180.691 208.597 175.191 210.797 168.358 210.797H157.647V182.021H162.395V190.301H168.358ZM184.744 210.797V182.021H189.434V210.797H184.744ZM162.395 206.744H167.779C172.643 206.744 175.943 206.165 175.943 200.549C175.943 194.933 172.643 194.354 167.779 194.354H162.395V206.744ZM197.962 210.797V182.021H218.054V186.074H202.71V210.797H197.962ZM223.52 182.021H228.267V186.248L227.515 189.548H228.846C230.062 185.032 233.884 181.442 240.484 181.442C248.822 181.442 254.207 187.869 254.207 196.438C254.207 204.949 248.822 211.376 240.484 211.376C233.884 211.376 230.062 207.787 228.846 203.328H227.515L228.267 206.571V221.335H223.52V182.021ZM228.267 196.438C228.267 204.081 233.189 207.323 239.095 207.323C245.059 207.323 249.459 203.965 249.459 196.438C249.459 188.853 245.059 185.495 239.095 185.495C233.189 185.495 228.267 188.737 228.267 196.438ZM272.228 190.301C279.06 190.301 284.561 192.501 284.561 200.549C284.561 208.597 279.06 210.797 272.228 210.797H261.517V182.021H266.264V190.301H272.228ZM288.614 210.797V182.021H293.304V210.797H288.614ZM266.264 206.744H271.649C276.513 206.744 279.813 206.165 279.813 200.549C279.813 194.933 276.513 194.354 271.649 194.354H266.264V206.744ZM332.982 182.021H337.73V210.797H301.832V182.021H306.58V206.744H317.407V182.021H322.155V206.744H332.982V182.021ZM345.004 196.033C345.004 186.769 350.794 181.442 358.958 181.442C367.064 181.442 372.39 186.595 372.39 195.454V197.307H349.636C349.925 202.749 352.531 207.439 359.652 207.439C364.4 207.439 367.585 205.123 368.627 200.723H373.375C372.275 205.181 368.801 211.376 359.652 211.376C349.346 211.376 345.004 204.313 345.004 196.033ZM349.636 193.717H367.758C367.758 189.085 364.69 185.437 358.958 185.437C353.283 185.437 349.636 189.085 349.636 193.717ZM399.878 210.797V182.021H419.969V186.074H404.625V210.797H399.878ZM444.91 182.021V210.797H440.162V186.074H428.929C428.871 201.881 428.061 210.797 418.623 210.797V206.744C424.239 206.744 424.181 198.349 424.181 182.021H444.91ZM452.209 202.807C452.209 198.233 454.931 195.106 461.647 194.412L473.111 193.312C472.822 188.043 469.985 185.437 465.005 185.437C460.837 185.437 456.957 187.29 456.957 192.733H452.325C452.325 186.769 456.841 181.442 465.005 181.442C473.054 181.442 477.859 186.769 477.859 194.47V206.744H482.086V210.797H476.991C474.791 210.797 473.575 209.581 473.575 207.439V205.876L474.327 202.865H472.938C471.838 207.265 468.769 211.376 461.821 211.376C453.483 211.376 452.209 205.818 452.209 202.807ZM456.957 202.228C456.957 205.528 459.042 207.323 462.4 207.323C468.943 207.323 473.111 202.807 473.111 196.843L462.458 197.944C458.81 198.291 456.957 199.391 456.957 202.228ZM487.519 210.797V182.021H497.942C504.832 182.021 509.464 183.411 509.464 188.911C509.464 193.659 506.221 194.817 503.905 194.991V196.38C507.727 196.438 511.606 197.712 511.606 203.212C511.606 208.829 506.974 210.797 500.084 210.797H487.519ZM492.152 193.948H497.942C502.631 193.948 504.832 193.717 504.832 189.664C504.832 186.363 502.631 185.784 497.942 185.784H492.152V193.948ZM492.152 207.034H500.084C504.716 207.034 506.974 206.455 506.974 202.633C506.974 198.58 504.716 197.712 500.084 197.712H492.152V207.034ZM539.352 182.021H544.042V210.797H539.352V198.407H523.14V210.797H518.392V182.021H523.14V194.354H539.352V182.021ZM550.821 196.38C550.821 188.043 556.842 181.442 566.048 181.442C575.197 181.442 581.16 188.043 581.16 196.38C581.16 204.776 575.197 211.376 566.048 211.376C556.842 211.376 550.821 204.776 550.821 196.38ZM555.568 196.38C555.568 202.402 559.216 207.323 566.048 207.323C572.823 207.323 576.47 202.402 576.47 196.38C576.47 190.417 572.823 185.495 566.048 185.495C559.216 185.495 555.568 190.417 555.568 196.38ZM587.77 210.797V182.021H607.862V186.074H592.518V210.797H587.77ZM610.247 196.38C610.247 188.043 616.269 181.442 625.475 181.442C634.623 181.442 640.587 188.043 640.587 196.38C640.587 204.776 634.623 211.376 625.475 211.376C616.269 211.376 610.247 204.776 610.247 196.38ZM614.995 196.38C614.995 202.402 618.643 207.323 625.475 207.323C632.25 207.323 635.897 202.402 635.897 196.38C635.897 190.417 632.25 185.495 625.475 185.495C618.643 185.495 614.995 190.417 614.995 196.38ZM690.954 182.021V210.797H686.206V186.074H671.905V210.797H667.157V182.021H690.954ZM699.387 182.021H704.134V186.248L703.382 189.548H704.713C705.929 185.032 709.751 181.442 716.351 181.442C724.689 181.442 730.074 187.869 730.074 196.438C730.074 204.949 724.689 211.376 716.351 211.376C709.751 211.376 705.929 207.787 704.713 203.328H703.382L704.134 206.571V221.335H699.387V182.021ZM704.134 196.438C704.134 204.081 709.056 207.323 714.962 207.323C720.925 207.323 725.326 203.965 725.326 196.438C725.326 188.853 720.925 185.495 714.962 185.495C709.056 185.495 704.134 188.737 704.134 196.438ZM765.002 210.797H760.312V186.132L761.065 183.411H759.733L746.937 210.797H737.384V182.021H742.131V206.629L741.379 209.466H742.71L755.506 182.021H765.002V210.797ZM771.748 199.565H776.38C776.38 205.644 778.465 207.613 784.081 207.613C789.118 207.613 790.739 205.76 790.739 202.228C790.739 198.928 789.118 197.48 785.586 197.48H781.707V193.659H785.586C789.118 193.659 790.16 192.154 790.16 189.49C790.16 186.942 788.945 185.205 783.849 185.205C778.233 185.205 776.959 187.116 776.959 190.996H772.327C772.327 184.974 776.091 181.442 783.849 181.442C791.087 181.442 794.792 184.742 794.792 188.969C794.792 192.559 792.592 194.412 789.002 194.875V196.207C792.592 196.728 795.371 198.638 795.371 202.749C795.371 208.018 791.318 211.376 784.081 211.376C776.322 211.376 771.748 207.787 771.748 199.565ZM802.098 202.807C802.098 198.233 804.82 195.106 811.536 194.412L823 193.312C822.711 188.043 819.874 185.437 814.894 185.437C810.725 185.437 806.846 187.29 806.846 192.733H802.214C802.214 186.769 806.73 181.442 814.894 181.442C822.942 181.442 827.748 186.769 827.748 194.47V206.744H831.975V210.797H826.88C824.679 210.797 823.463 209.581 823.463 207.439V205.876L824.216 202.865H822.827C821.726 207.265 818.658 211.376 811.71 211.376C803.372 211.376 802.098 205.818 802.098 202.807ZM806.846 202.228C806.846 205.528 808.93 207.323 812.289 207.323C818.831 207.323 823 202.807 823 196.843L812.347 197.944C808.699 198.291 806.846 199.391 806.846 202.228Z" fill="black"/>
</svg>
