<svg width="424" height="87" viewBox="0 0 424 87" fill="none" xmlns="http://www.w3.org/2000/svg">
<path d="M0.658902 33.8423C0.658902 9.33128 13.5899 0.0672527 29.8985 0.0672527C44.3735 0.0672527 54.2165 8.07677 54.2165 22.9378C54.2165 45.0364 32.0215 56.9059 3.93991 61.3449V63.5644L9.53693 62.3099H54.2165V69.0649H1.6239V55.2654C8.57192 54.3004 46.3035 47.7384 46.3035 22.8413C46.3035 12.3228 40.417 6.82227 30.0915 6.82227C17.5464 6.82227 8.57192 13.5773 8.57192 33.8423H0.658902ZM76.1168 70.0299C71.5813 70.0299 68.1073 66.5559 68.1073 61.9239C68.1073 57.4849 71.5813 54.0109 76.1168 54.0109C80.5558 54.0109 84.1264 57.4849 84.1264 61.9239C84.1264 66.5559 80.5558 70.0299 76.1168 70.0299ZM183.168 1.03225V69.0649H175.255V7.78727H139.357V69.0649H131.444V1.03225H183.168ZM197.034 21.1043H204.947V28.1488L203.693 33.6493H205.912C207.939 26.1223 214.308 20.1393 225.309 20.1393C239.205 20.1393 248.179 30.8508 248.179 45.1329C248.179 59.3184 239.205 70.0299 225.309 70.0299C214.308 70.0299 207.939 64.0469 205.912 56.6164H203.693L204.947 62.0204V86.628H197.034V21.1043ZM204.947 45.1329C204.947 57.8709 213.15 63.2749 222.993 63.2749C232.932 63.2749 240.266 57.6779 240.266 45.1329C240.266 32.4913 232.932 26.8943 222.993 26.8943C213.15 26.8943 204.947 32.2983 204.947 45.1329ZM306.393 69.0649H298.576V27.9558L299.831 23.4203H297.611L276.285 69.0649H260.362V21.1043H268.275V62.1169L267.021 66.8454H269.24L290.567 21.1043H306.393V69.0649ZM317.637 50.3439H325.357C325.357 60.4764 328.831 63.7574 338.191 63.7574C346.587 63.7574 349.289 60.6694 349.289 54.7829C349.289 49.2824 346.587 46.8699 340.7 46.8699H334.235V40.5009H340.7C346.587 40.5009 348.324 37.9919 348.324 33.5528C348.324 29.3068 346.297 26.4118 337.805 26.4118C328.445 26.4118 326.322 29.5963 326.322 36.0619H318.602C318.602 26.0258 324.874 20.1393 337.805 20.1393C349.868 20.1393 356.044 25.6398 356.044 32.6843C356.044 38.6674 352.377 41.7554 346.394 42.5274V44.7469C352.377 45.6154 357.009 48.7999 357.009 55.6514C357.009 64.4329 350.254 70.0299 338.191 70.0299C325.26 70.0299 317.637 64.0469 317.637 50.3439ZM388.003 34.9038C399.39 34.9038 408.557 38.5709 408.557 51.9844C408.557 65.3979 399.39 69.0649 388.003 69.0649H370.15V21.1043H378.063V34.9038H388.003ZM415.312 69.0649V21.1043H423.129V69.0649H415.312ZM378.063 62.3099H387.038C395.144 62.3099 400.644 61.3449 400.644 51.9844C400.644 42.6239 395.144 41.6589 387.038 41.6589H378.063V62.3099Z" fill="black"/>
</svg>
