<svg width="624" height="87" viewBox="0 0 624 87" fill="none" xmlns="http://www.w3.org/2000/svg">
<path d="M53.2723 47.1958V53.9508H44.4908V69.0049H36.5777V53.9508H0.486648V39.8618C15.9267 33.2998 28.7612 19.6932 30.7877 0.972196H38.7008C36.1917 19.9827 25.7697 36.0018 2.80265 46.2308V48.5468L8.39967 47.1958H36.5777V22.4918H44.4908V47.1958H53.2723ZM71.4927 69.9699C66.9572 69.9699 63.4832 66.4959 63.4832 61.8639C63.4832 57.4249 66.9572 53.9508 71.4927 53.9508C75.9318 53.9508 79.5023 57.4249 79.5023 61.8639C79.5023 66.4959 75.9318 69.9699 71.4927 69.9699ZM175.263 69.0049L166.675 42.3708H139.365L130.873 69.0049H122.96L144.962 0.972196H161.174L183.08 69.0049H175.263ZM141.585 35.6158H164.552L154.13 3.1917H151.91L141.585 35.6158ZM250.436 44.9763C250.436 58.1004 241.462 68.5224 223.706 69.8734V86.3749H216.178V69.8734C198.326 68.5224 189.255 58.1004 189.255 44.9763C189.255 31.9488 198.326 21.5268 216.178 20.1757V3.86721H223.706V20.1757C241.462 21.5268 250.436 31.9488 250.436 44.9763ZM197.168 44.9763C197.168 54.3368 202.668 61.8639 216.178 63.0219V27.0273C202.668 28.1853 197.168 35.7123 197.168 44.9763ZM223.706 63.0219C237.119 61.8639 242.62 54.3368 242.62 44.9763C242.62 35.8088 237.119 28.1853 223.706 27.0273V63.0219ZM299.111 21.0443V27.7993H281.066V69.0049H273.153V27.7993H255.011V21.0443H299.111ZM302.624 44.3973C302.624 28.9573 312.274 20.0792 325.88 20.0792C339.39 20.0792 348.269 28.6678 348.269 43.4323V46.5203H310.344C310.826 55.5913 315.169 63.4079 327.038 63.4079C334.951 63.4079 340.259 59.5479 341.996 52.2138H349.909C348.076 59.6444 342.285 69.9699 327.038 69.9699C309.861 69.9699 302.624 58.1969 302.624 44.3973ZM310.344 40.5373H340.548C340.548 32.8173 335.434 26.7378 325.88 26.7378C316.423 26.7378 310.344 32.8173 310.344 40.5373ZM360.814 21.0443H368.727V28.0888L367.473 33.5893H369.692C371.719 26.0623 378.088 20.0792 389.089 20.0792C402.985 20.0792 411.959 30.7908 411.959 45.0728C411.959 59.2584 402.985 69.9699 389.089 69.9699C378.088 69.9699 371.719 63.9869 369.692 56.5563H367.473L368.727 61.9604V86.5679H360.814V21.0443ZM368.727 45.0728C368.727 57.8109 376.93 63.2149 386.773 63.2149C396.712 63.2149 404.046 57.6179 404.046 45.0728C404.046 32.4313 396.712 26.8343 386.773 26.8343C376.93 26.8343 368.727 32.2383 368.727 45.0728ZM463.804 21.0443V69.0049H455.891V27.7993H432.056V69.0049H424.143V21.0443H463.804ZM475.929 55.6878C475.929 48.0643 480.464 42.8533 491.658 41.6953L510.765 39.8618C510.283 31.0803 505.554 26.7378 497.255 26.7378C490.307 26.7378 483.842 29.8258 483.842 38.8968H476.122C476.122 28.9573 483.649 20.0792 497.255 20.0792C510.669 20.0792 518.678 28.9573 518.678 41.7918V62.2499H525.723V69.0049H517.231C513.564 69.0049 511.537 66.9784 511.537 63.4079V60.8024L512.792 55.7843H510.476C508.642 63.1184 503.528 69.9699 491.948 69.9699C478.052 69.9699 475.929 60.7059 475.929 55.6878ZM483.842 54.7228C483.842 60.2234 487.316 63.2149 492.913 63.2149C503.817 63.2149 510.765 55.6878 510.765 45.7483L493.009 47.5818C486.93 48.1608 483.842 49.9943 483.842 54.7228ZM568.445 21.0443V27.7993H550.4V69.0049H542.487V27.7993H524.345V21.0443H568.445ZM623.782 69.0049H615.965V27.8958L617.22 23.3603H615L593.674 69.0049H577.751V21.0443H585.664V62.0569L584.41 66.7854H586.629L607.956 21.0443H623.782V69.0049Z" fill="black"/>
</svg>
