<svg width="1484" height="436" viewBox="0 0 1484 436" fill="none" xmlns="http://www.w3.org/2000/svg">
<path d="M988.797 7.42336H1023.38V159.786H988.797V100.786H912.291V159.786H877.712V7.42336H912.291V70.5296H988.797V7.42336ZM1038.43 129.962C1038.43 111.16 1049.67 100.138 1082.09 95.5993L1116.45 90.8447C1116.45 81.9839 1109.54 76.5809 1094.62 76.5809C1080.79 76.5809 1073.01 82.4161 1073.01 92.3575H1040.59C1040.59 64.6945 1064.15 48.4857 1094.62 48.4857C1124.66 48.4857 1151.03 62.9655 1151.03 98.841V129.53H1166.81V159.786H1142.82C1132.44 159.786 1126.61 153.951 1126.61 143.577V141.416L1132.01 128.449H1123.37C1119.26 146.603 1108.67 161.947 1078.2 161.947C1044.27 161.947 1038.43 141.2 1038.43 129.962ZM1073.01 123.478C1073.01 129.746 1079.06 131.691 1084.9 131.691C1103.92 131.691 1116.45 123.695 1116.45 110.295L1088.57 114.185C1078.2 115.698 1073.01 117.211 1073.01 123.478ZM1296 50.6468H1330.58V159.786H1179.73V50.6468H1214.31V129.53H1237.86V50.6468H1272.44V129.53H1296V50.6468ZM1352.27 129.962C1352.27 111.16 1363.51 100.138 1395.92 95.5993L1430.29 90.8447C1430.29 81.9839 1423.37 76.5809 1408.46 76.5809C1394.63 76.5809 1386.85 82.4161 1386.85 92.3575H1354.43C1354.43 64.6945 1377.99 48.4857 1408.46 48.4857C1438.5 48.4857 1464.86 62.9655 1464.86 98.841V129.53H1480.64V159.786H1456.65C1446.28 159.786 1440.44 153.951 1440.44 143.577V141.416L1445.85 128.449H1437.2C1433.1 146.603 1422.51 161.947 1392.03 161.947C1358.1 161.947 1352.27 141.2 1352.27 129.962ZM1386.85 123.478C1386.85 129.746 1392.9 131.691 1398.73 131.691C1417.75 131.691 1430.29 123.695 1430.29 110.295L1402.41 114.185C1392.03 115.698 1386.85 117.211 1386.85 123.478Z" fill="black"/>
<path d="M184.507 362.874H129.787L95.6268 303.093C92.7801 303.41 89.9334 303.41 86.7704 303.41H70.6391V362.874H20.0312V203.143H70.6391V259.128H84.24L116.186 216.111C124.094 205.673 136.113 203.143 149.714 203.143H178.181V247.425H152.561L133.266 272.729L184.507 362.874ZM193.786 282.85C193.786 227.182 233.64 199.98 283.931 199.98C333.906 199.98 373.76 227.182 373.76 282.85C373.76 338.835 333.906 366.037 283.931 366.037C233.64 366.037 193.786 338.835 193.786 282.85ZM244.394 282.85C244.394 309.736 259.892 321.755 283.931 321.755C307.654 321.755 323.152 309.736 323.152 282.85C323.152 256.281 307.654 244.262 283.931 244.262C259.892 244.262 244.394 256.281 244.394 282.85ZM395.946 362.874V203.143H496.213L509.497 350.222H522.149L535.434 203.143H636.017V362.874H585.409V244.262L594.898 215.795H582.246L565.166 362.874H466.48L449.717 215.795H437.065L446.554 244.262V362.874H395.946ZM667.617 319.225C667.617 291.707 684.065 275.575 731.51 268.933L781.801 261.975C781.801 249.006 771.68 241.099 749.855 241.099C729.612 241.099 718.225 249.639 718.225 264.189H670.78C670.78 223.702 705.257 199.98 749.855 199.98C793.821 199.98 832.409 221.172 832.409 273.678V318.592H855.499V362.874H820.39C805.208 362.874 796.667 354.334 796.667 339.152V335.989L804.575 317.011H791.923C785.913 343.58 770.415 366.037 725.816 366.037C676.157 366.037 667.617 335.672 667.617 319.225ZM718.225 309.736C718.225 318.908 727.082 321.755 735.622 321.755C763.456 321.755 781.801 310.052 781.801 290.441L740.999 296.135C725.816 298.349 718.225 300.563 718.225 309.736ZM1000.3 203.143H1050.91V362.874H1000.3V304.991H925.018V362.874H874.41V203.143H925.018V260.709H1000.3V203.143ZM1252.77 318.592H1273.64V407.156H1223.04V362.874H1126.88V407.156H1076.27V318.592H1097.15C1114.23 295.819 1120.56 265.137 1120.56 203.143H1252.77V318.592ZM1147.76 318.592H1202.16V247.425H1169.58C1167.05 281.269 1160.09 302.145 1147.76 318.592ZM1292.49 319.225C1292.49 291.707 1308.94 275.575 1356.39 268.933L1406.68 261.975C1406.68 249.006 1396.56 241.099 1374.73 241.099C1354.49 241.099 1343.1 249.639 1343.1 264.189H1295.66C1295.66 223.702 1330.13 199.98 1374.73 199.98C1418.7 199.98 1457.29 221.172 1457.29 273.678V318.592H1480.38V362.874H1445.27C1430.08 362.874 1421.54 354.334 1421.54 339.152V335.989L1429.45 317.011H1416.8C1410.79 343.58 1395.29 366.037 1350.69 366.037C1301.03 366.037 1292.49 335.672 1292.49 319.225ZM1343.1 309.736C1343.1 318.908 1351.96 321.755 1360.5 321.755C1388.33 321.755 1406.68 310.052 1406.68 290.441L1365.88 296.135C1350.69 298.349 1343.1 300.563 1343.1 309.736Z" fill="black"/>
</svg>
