<svg width="1399" height="1056" viewBox="0 0 1399 1056" fill="none" xmlns="http://www.w3.org/2000/svg">
<path d="M253.687 147.635L257.41 119.704L272.811 121.757L263.822 189.193L248.422 187.141L251.902 161.027L218.136 156.526L214.656 182.64L199.256 180.587L208.244 113.151L223.644 115.204L219.921 143.135L253.687 147.635ZM272.852 165.182C274.892 149.878 286.543 142.084 301.56 144.086C316.578 146.088 325.914 156.386 323.964 171.021L323.326 175.804L286.786 170.934C286.047 176.482 289.446 180.926 298.15 182.086C303.507 182.8 307.779 181.423 309.22 177.915L324.525 179.955C322.734 186.823 313.232 196.753 296.493 194.521C277.936 192.048 271.029 178.861 272.852 165.182ZM287.934 162.325L310.125 165.283C310.61 161.648 308.403 157.752 299.89 156.617C291.377 155.482 288.418 158.69 287.934 162.325ZM414.224 160.076L407.786 208.382L392.385 206.329L397.026 171.511L378.565 169.05L373.924 203.869L358.524 201.816L364.962 153.51L414.224 160.076ZM416.819 228.083L425.68 161.603L441.081 163.656L440.685 166.621L436.573 174.835L440.494 175.358C443.836 169.28 449.147 163.758 461.2 165.364C475.165 167.226 480.523 179.622 478.699 193.301C476.876 206.979 468.472 217.444 454.506 215.583C442.454 213.976 438.774 207.255 437.141 200.515L433.22 199.992L435.037 208.996L432.22 230.136L416.819 228.083ZM437.855 187.857C436.759 196.083 440.808 200.03 449.034 201.126C457.261 202.223 462.298 199.487 463.395 191.261C464.491 183.034 460.359 178.979 452.132 177.882C443.906 176.786 438.951 179.63 437.855 187.857ZM486.41 194.231C488.654 177.396 501.803 170.776 517.012 172.803C532.125 174.818 543.081 184.65 540.837 201.486C538.581 218.416 525.432 225.036 510.318 223.022C495.109 220.995 484.153 211.162 486.41 194.231ZM501.81 196.284C500.727 204.414 504.846 208.566 512.116 209.535C519.29 210.491 524.449 207.576 525.533 199.446C526.604 191.411 522.388 187.247 515.214 186.291C507.945 185.322 502.881 188.249 501.81 196.284ZM600.022 184.841L593.583 233.146L578.183 231.094L582.823 196.276L564.362 193.815L559.721 228.633L544.321 226.58L550.76 178.275L600.022 184.841ZM636.738 216.702L650.792 191.608L668.201 193.929L640.048 236.419L638.059 251.341C637.346 256.698 633.998 259.172 628.762 258.28L605.129 254.448L606.914 241.057L623.437 243.454L624.648 234.366L608.608 185.986L625.921 188.293L632.912 216.192L631.892 223.844L635.718 224.354L636.738 216.702ZM665.949 218.161C668.091 202.092 680.289 194.566 695.69 196.619C708.986 198.391 720.082 207.172 718.82 221.022L703.515 218.982C703.502 214.697 700.014 210.922 693.892 210.106C686.718 209.15 682.331 212.849 681.349 220.214C680.355 227.675 683.62 232.394 690.794 233.35C696.916 234.166 701.271 231.437 702.406 227.304L717.711 229.344C715.301 243.042 702.292 248.61 688.996 246.837C673.596 244.785 663.794 234.327 665.949 218.161ZM775.161 208.185L773.363 221.672L755.189 219.25L750.548 254.068L735.148 252.015L739.789 217.197L721.614 214.775L723.412 201.288L775.161 208.185ZM838.585 216.639L832.146 264.944L816.842 262.904L821.687 226.556L825.64 218.807L821.814 218.297L805.459 261.387L775.423 257.384L781.862 209.078L797.167 211.118L792.398 246.893L788.368 255.215L792.195 255.725L808.549 212.635L838.585 216.639ZM851.744 242.342L854.561 199.297L869.961 201.35L861.31 243.617L851.744 242.342ZM853.002 268.697C846.497 267.83 843.187 262.716 843.99 256.69C844.768 250.855 849.302 246.787 855.806 247.653C862.12 248.495 865.812 253.66 865.034 259.495C864.231 265.521 859.315 269.539 853.002 268.697Z" fill="black"/>
<path d="M92.8314 326.297L118.475 323.697L125.409 392.08L99.7651 394.68L92.8314 326.297ZM133.434 322.181L159.077 319.58L166.011 387.963L140.367 390.563L133.434 322.181ZM193.906 407.156C189.464 363.348 215.553 326.808 263.421 321.954C305.519 317.686 335.639 337.948 343.897 374.676L309.706 378.143C304.272 358.616 287.396 349.748 266.881 351.828C240.597 354.493 224.956 372.703 228.098 403.689C231.261 434.889 250.239 449.588 276.524 446.923C297.038 444.843 311.769 432.555 313.173 412.334L347.364 408.868C346.668 446.719 321.228 472.615 279.13 476.884C231.262 481.737 198.37 451.177 193.906 407.156ZM474.737 345.865L477.77 375.783L437.168 379.9L445.077 457.899L410.885 461.366L402.977 383.367L362.374 387.483L359.341 357.566L474.737 345.865ZM489.712 344.347L523.904 340.88L524.575 347.505L520.115 367.387L528.662 366.521C532.767 351.64 541.637 336.923 568.35 334.215C599.549 331.051 617.749 355.113 620.848 385.672C623.946 416.23 610.925 443.242 579.725 446.405C553.013 449.114 541.369 436.477 534.361 422.723L525.813 423.589L534.174 442.172L538.963 489.399L504.771 492.866L489.712 344.347ZM529.386 394.945C531.249 413.323 542.286 419.976 560.664 418.113C579.042 416.249 588.52 407.516 586.656 389.138C584.793 370.76 573.734 363.894 555.356 365.757C536.978 367.621 527.522 376.567 529.386 394.945ZM640.515 408.289C638.63 389.698 648.637 377.672 680.237 369.935L713.738 361.788C712.849 353.027 705.469 348.378 690.724 349.873C677.048 351.259 669.94 357.809 670.936 367.639L638.882 370.889C636.109 343.536 657.776 325.147 687.907 322.092C717.611 319.08 745.134 330.754 748.731 366.228L751.808 396.573L767.407 394.991L770.441 424.909L746.721 427.314C736.463 428.354 730.108 423.169 729.068 412.912L728.852 410.775L732.894 397.411L724.346 398.278C722.106 416.64 713.173 432.874 683.042 435.929C649.492 439.331 641.642 419.401 640.515 408.289ZM674.057 398.411C674.685 404.609 680.863 405.925 686.633 405.34C705.438 403.433 717.031 394.27 715.688 381.021L688.511 387.662C678.405 390.198 673.428 392.214 674.057 398.411ZM857.326 307.073L891.518 303.606L902.46 411.523L868.269 414.989L864.303 375.883L813.444 381.04L817.409 420.146L783.218 423.613L772.275 315.697L806.467 312.23L810.41 351.122L861.27 345.966L857.326 307.073ZM1002.16 292.388L1036.35 288.921L1047.29 396.838L1013.1 400.304L1009.13 361.198L958.273 366.355L962.238 405.461L928.047 408.928L917.105 301.012L951.296 297.545L955.24 336.438L1006.1 331.281L1002.16 292.388ZM1065.61 365.187C1063.73 346.595 1073.73 334.57 1105.33 326.832L1138.83 318.686C1137.95 309.924 1130.57 305.275 1115.82 306.77C1102.14 308.157 1095.04 314.707 1096.03 324.537L1063.98 327.787C1061.21 300.434 1082.87 282.045 1113 278.99C1142.71 275.978 1170.23 287.652 1173.83 323.125L1176.9 353.47L1192.5 351.889L1195.54 381.806L1171.82 384.211C1161.56 385.251 1155.21 380.066 1154.17 369.809L1153.95 367.672L1157.99 354.309L1149.44 355.175C1147.2 373.537 1138.27 389.772 1108.14 392.827C1074.59 396.229 1066.74 376.299 1065.61 365.187ZM1099.15 355.309C1099.78 361.506 1105.96 362.823 1111.73 362.238C1130.54 360.331 1142.13 351.167 1140.78 337.918L1113.61 344.56C1103.5 347.096 1098.53 349.112 1099.15 355.309ZM1291.13 263.087L1302.08 371.004L1267.89 374.47L1263.55 331.731L1255 332.598L1236.16 366.029C1231.21 374.735 1225.15 378.804 1215.53 379.779L1199.72 381.382L1196.9 353.602L1213.35 351.933L1223.08 334.972C1208.73 334.051 1197.12 328.104 1194.85 305.666C1192.4 281.518 1212.07 271.104 1233.01 268.981L1291.13 263.087ZM1261.17 308.225L1259.33 290.06L1243.94 291.62C1232.19 292.812 1228.34 295.361 1229.04 302.199C1229.75 309.251 1234.03 310.976 1245.78 309.785L1261.17 308.225ZM222.494 658.304L236.598 656.874L242.665 716.709L208.474 720.176L205.44 690.258L116.97 699.228L120.003 729.146L85.8121 732.613L79.7451 672.778L93.8491 671.348C105.749 652.438 110.245 611.61 103.831 548.356L210.252 537.565L222.494 658.304ZM128.04 667.881L188.303 661.771L179.094 570.95L140.415 574.872C142.745 621.268 137.893 652.201 128.04 667.881ZM383.324 672.222L349.133 675.688L340.899 594.484L345.468 575.67L336.92 576.536L323.703 678.267L256.816 685.049L245.874 577.132L280.065 573.665L288.19 653.801L283.73 673.684L292.277 672.817L305.495 571.087L372.382 564.305L383.324 672.222ZM395.019 616.415C391.379 580.514 413.918 557.935 448.323 554.446C477.813 551.456 506.364 564.753 510.98 595.374L476.788 598.84C474.531 589.354 465.033 582.977 451.356 584.364C435.115 586.01 427.542 596.493 429.211 612.948C430.901 629.616 440.424 638.366 456.665 636.719C470.341 635.332 478.366 627.178 478.673 617.432L512.865 613.965C514.489 644.889 489.188 663.646 459.698 666.637C425.293 670.125 398.681 652.529 395.019 616.415ZM643.406 645.851L606.436 649.599L579.262 611.551C577.36 611.959 575.437 612.154 573.3 612.371L562.401 613.476L566.475 653.651L532.284 657.118L521.341 549.201L555.533 545.734L559.368 583.559L568.557 582.627L587.193 551.376C591.821 543.782 599.768 541.249 608.957 540.318L628.189 538.367L631.223 568.285L613.914 570.04L602.611 588.457L643.406 645.851ZM644.193 591.15C640.379 553.539 665.441 532.431 699.419 528.986C733.183 525.563 761.972 541.21 765.786 578.821C769.621 616.645 744.559 637.753 710.795 641.177C676.817 644.622 648.028 628.974 644.193 591.15ZM678.384 587.683C680.226 605.847 691.52 612.906 707.761 611.259C723.788 609.634 733.436 600.452 731.594 582.288C729.774 564.337 718.48 557.279 702.453 558.904C686.212 560.55 676.564 569.733 678.384 587.683ZM880.126 512.822L883.159 542.74L842.557 546.857L850.465 624.856L816.274 628.323L808.365 550.324L767.763 554.44L764.73 524.523L880.126 512.822ZM887.601 565.174C884.134 530.983 905.347 508.106 938.897 504.704C972.448 501.303 997.969 518.793 1001.28 551.488L1002.37 562.173L920.522 570.472C921.779 582.866 931.643 590.718 951.089 588.746C963.056 587.533 971.598 582.349 972.911 574.012L1007.1 570.545C1006.55 586.361 991.303 612.735 953.906 616.527C912.449 620.73 890.7 595.733 887.601 565.174ZM918.572 551.239L968.363 546.191C967.54 538.07 960.733 530.556 941.714 532.485C922.695 534.413 917.749 543.119 918.572 551.239ZM1136.95 595.808L1099.98 599.556L1072.81 561.508C1070.91 561.916 1068.98 562.111 1066.85 562.328L1055.95 563.433L1060.02 603.608L1025.83 607.075L1014.89 499.158L1049.08 495.691L1052.91 533.516L1062.1 532.584L1080.74 501.333C1085.37 493.739 1093.31 491.206 1102.5 490.275L1121.74 488.324L1124.77 518.242L1107.46 519.997L1096.16 538.414L1136.95 595.808ZM1144.61 565.238C1142.73 546.646 1152.74 534.621 1184.33 526.883L1217.84 518.737C1216.95 509.975 1209.57 505.326 1194.82 506.821C1181.15 508.208 1174.04 514.758 1175.03 524.588L1142.98 527.838C1140.21 500.485 1161.87 482.096 1192.01 479.041C1221.71 476.029 1249.23 487.703 1252.83 523.177L1255.91 553.521L1271.51 551.94L1274.54 581.857L1250.82 584.262C1240.56 585.302 1234.21 580.117 1233.17 569.86L1232.95 567.723L1236.99 554.36L1228.44 555.226C1226.2 573.589 1217.27 589.823 1187.14 592.878C1153.59 596.28 1145.74 576.35 1144.61 565.238ZM1178.15 555.36C1178.78 561.557 1184.96 562.874 1190.73 562.289C1209.54 560.382 1221.13 551.218 1219.79 537.969L1192.61 544.611C1182.5 547.147 1177.53 549.163 1178.15 555.36ZM1274.75 414.519L1300.39 411.919L1307.32 480.301L1281.68 482.902L1274.75 414.519ZM1315.35 410.402L1340.99 407.802L1347.93 476.185L1322.28 478.785L1315.35 410.402Z" fill="black"/>
<path d="M483.971 801.904H511.589V805.784H483.971V801.904ZM552.097 789.05C561.419 789.05 566.803 795.709 566.803 803.989C566.803 812.326 561.419 818.985 552.097 818.985C546.538 818.985 539.417 815.858 538.664 807.521H543.47C544.28 813.021 547.928 814.932 552.097 814.932C558.234 814.932 561.361 810.937 561.94 805.841H549.376V802.136H561.94C561.361 797.099 558.176 793.103 552.097 793.103C547.928 793.103 544.28 795.014 543.47 800.515H538.664C539.417 792.177 546.538 789.05 552.097 789.05ZM595.927 789.629V793.682H585.099V818.406H580.352V793.682H569.466V789.629H595.927ZM598.034 803.989C598.034 795.651 604.056 789.05 613.262 789.05C622.41 789.05 628.374 795.651 628.374 803.989C628.374 812.384 622.41 818.985 613.262 818.985C604.056 818.985 598.034 812.384 598.034 803.989ZM602.782 803.989C602.782 810.01 606.43 814.932 613.262 814.932C620.036 814.932 623.684 810.01 623.684 803.989C623.684 798.025 620.036 793.103 613.262 793.103C606.43 793.103 602.782 798.025 602.782 803.989ZM682.562 818.406H677.872V793.74L678.625 791.019H677.293L664.497 818.406H654.944V789.629H659.692V814.237L658.939 817.074H660.271L673.067 789.629H682.562V818.406ZM720.343 814.353V826.049H715.595V818.406H693.477V826.049H688.729V814.353H692.551C695.677 808.042 696.835 800.978 696.835 789.629H716.522V814.353H720.343ZM697.299 814.353H711.774V793.682H701.525C701.236 802.715 700.02 808.852 697.299 814.353ZM724.747 803.641C724.747 794.377 730.537 789.05 738.701 789.05C746.807 789.05 752.134 794.203 752.134 803.062V804.915H729.379C729.669 810.358 732.274 815.048 739.396 815.048C744.144 815.048 747.328 812.732 748.371 808.331H753.118C752.018 812.789 748.544 818.985 739.396 818.985C729.09 818.985 724.747 811.921 724.747 803.641ZM729.379 801.325H747.502C747.502 796.693 744.433 793.045 738.701 793.045C733.027 793.045 729.379 796.693 729.379 801.325ZM758.956 810.416C758.956 805.841 761.677 802.715 768.394 802.02L779.858 800.92C779.568 795.651 776.731 793.045 771.752 793.045C767.583 793.045 763.704 794.898 763.704 800.341H759.072C759.072 794.377 763.588 789.05 771.752 789.05C779.8 789.05 784.606 794.377 784.606 802.078V814.353H788.833V818.406H783.737C781.537 818.406 780.321 817.19 780.321 815.048V813.484L781.074 810.473H779.684C778.584 814.874 775.515 818.985 768.567 818.985C760.23 818.985 758.956 813.426 758.956 810.416ZM763.704 809.837C763.704 813.137 765.788 814.932 769.146 814.932C775.689 814.932 779.858 810.416 779.858 804.452L769.204 805.552C765.557 805.899 763.704 806.999 763.704 809.837ZM819.508 789.629V818.406H814.76V793.682H803.527C803.47 809.489 802.659 818.406 793.221 818.406V814.353C798.837 814.353 798.78 805.957 798.78 789.629H819.508ZM838.677 797.909C845.509 797.909 851.01 800.109 851.01 808.157C851.01 816.206 845.509 818.406 838.677 818.406H827.966V789.629H832.714V797.909H838.677ZM832.714 814.353H838.098C842.962 814.353 846.262 813.774 846.262 808.157C846.262 802.541 842.962 801.962 838.098 801.962H832.714V814.353ZM879.289 789.629H883.979V818.406H879.289V806.015H863.077V818.406H858.329V789.629H863.077V801.962H879.289V789.629ZM891.323 810.416C891.323 805.841 894.045 802.715 900.761 802.02L912.225 800.92C911.936 795.651 909.099 793.045 904.119 793.045C899.951 793.045 896.071 794.898 896.071 800.341H891.439C891.439 794.377 895.955 789.05 904.119 789.05C912.168 789.05 916.973 794.377 916.973 802.078V814.353H921.2V818.406H916.105C913.905 818.406 912.689 817.19 912.689 815.048V813.484L913.441 810.473H912.052C910.952 814.874 907.883 818.985 900.935 818.985C892.597 818.985 891.323 813.426 891.323 810.416ZM896.071 809.837C896.071 813.137 898.156 814.932 901.514 814.932C908.057 814.932 912.225 810.416 912.225 804.452L901.572 805.552C897.924 805.899 896.071 806.999 896.071 809.837ZM946.433 789.629V818.406H941.743V805.841H938.153L932.305 816.148C931.379 817.595 929.989 818.406 928.136 818.406H923.852V814.469H928.542L933.521 805.61C928.715 804.915 925.936 802.715 925.936 797.735C925.936 791.887 930.163 789.629 937.284 789.629H946.433ZM941.743 802.078V793.393H937.69C933.058 793.393 930.684 794.261 930.684 797.735C930.684 801.209 933.058 802.078 937.69 802.078H941.743ZM974.186 818.406V789.629H984.608C991.498 789.629 996.13 791.019 996.13 796.52C996.13 801.267 992.888 802.425 990.572 802.599V803.989C994.393 804.047 998.273 805.32 998.273 810.821C998.273 816.437 993.641 818.406 986.751 818.406H974.186ZM978.818 801.557H984.608C989.298 801.557 991.498 801.325 991.498 797.272C991.498 793.972 989.298 793.393 984.608 793.393H978.818V801.557ZM978.818 814.642H986.751C991.383 814.642 993.641 814.063 993.641 810.242C993.641 806.189 991.383 805.32 986.751 805.32H978.818V814.642ZM1003.9 803.989C1003.9 795.651 1009.92 789.05 1019.13 789.05C1028.28 789.05 1034.24 795.651 1034.24 803.989C1034.24 812.384 1028.28 818.985 1019.13 818.985C1009.92 818.985 1003.9 812.384 1003.9 803.989ZM1008.65 803.989C1008.65 810.01 1012.3 814.932 1019.13 814.932C1025.9 814.932 1029.55 810.01 1029.55 803.989C1029.55 798.025 1025.9 793.103 1019.13 793.103C1012.3 793.103 1008.65 798.025 1008.65 803.989ZM1041.01 807.173H1045.64C1045.64 813.253 1047.72 815.221 1053.34 815.221C1058.38 815.221 1060 813.368 1060 809.837C1060 806.536 1058.38 805.089 1054.84 805.089H1050.97V801.267H1054.84C1058.38 801.267 1059.42 799.762 1059.42 797.099C1059.42 794.551 1058.2 792.814 1053.11 792.814C1047.49 792.814 1046.22 794.725 1046.22 798.604H1041.59C1041.59 792.582 1045.35 789.05 1053.11 789.05C1060.35 789.05 1064.05 792.351 1064.05 796.577C1064.05 800.167 1061.85 802.02 1058.26 802.483V803.815C1061.85 804.336 1064.63 806.247 1064.63 810.358C1064.63 815.627 1060.58 818.985 1053.34 818.985C1045.58 818.985 1041.01 815.395 1041.01 807.173ZM1071.67 818.406V789.629H1081.16L1087.94 817.074H1089.27L1096.04 789.629H1105.6V818.406H1100.85V793.798L1101.66 791.019H1100.27L1093.38 818.406H1083.88L1076.99 791.019H1075.66L1076.41 793.798V818.406H1071.67ZM1112.92 803.989C1112.92 795.651 1118.94 789.05 1128.14 789.05C1137.29 789.05 1143.26 795.651 1143.26 803.989C1143.26 812.384 1137.29 818.985 1128.14 818.985C1118.94 818.985 1112.92 812.384 1112.92 803.989ZM1117.66 803.989C1117.66 810.01 1121.31 814.932 1128.14 814.932C1134.92 814.932 1138.57 810.01 1138.57 803.989C1138.57 798.025 1134.92 793.103 1128.14 793.103C1121.31 793.103 1117.66 798.025 1117.66 803.989ZM1188.06 793.682H1183.37L1175.95 803.583L1188.06 818.406H1182.5L1172.31 806.015C1172.08 806.073 1171.79 806.073 1171.5 806.073H1169.47V818.406H1164.72V806.073H1162.7C1162.41 806.073 1162.12 806.073 1161.89 806.015L1151.69 818.406H1146.14L1158.24 803.583L1150.83 793.682H1146.14V789.629H1150.71C1152.56 789.629 1153.84 790.324 1154.88 791.772L1162.41 801.846H1164.72V789.629H1169.47V801.846H1171.79L1179.31 791.772C1180.36 790.324 1181.63 789.629 1183.48 789.629H1188.06V793.682ZM1215.16 789.629H1219.85V818.406H1215.16V806.015H1198.94V818.406H1194.2V789.629H1198.94V801.962H1215.16V789.629ZM1226.62 803.989C1226.62 795.651 1232.65 789.05 1241.85 789.05C1251 789.05 1256.96 795.651 1256.96 803.989C1256.96 812.384 1251 818.985 1241.85 818.985C1232.65 818.985 1226.62 812.384 1226.62 803.989ZM1231.37 803.989C1231.37 810.01 1235.02 814.932 1241.85 814.932C1248.63 814.932 1252.27 810.01 1252.27 803.989C1252.27 798.025 1248.63 793.103 1241.85 793.103C1235.02 793.103 1231.37 798.025 1231.37 803.989ZM1262.42 803.989C1262.42 795.709 1267.8 789.05 1277.12 789.05C1282.68 789.05 1289.8 792.177 1290.56 800.515H1285.75C1284.94 795.014 1281.29 793.103 1277.12 793.103C1270.29 793.103 1267.16 798.083 1267.16 803.989C1267.16 809.952 1270.29 814.932 1277.12 814.932C1281.29 814.932 1284.94 813.021 1285.75 807.521H1290.56C1289.8 815.858 1282.68 818.985 1277.12 818.985C1267.8 818.985 1262.42 812.326 1262.42 803.989ZM1319.68 789.629V793.682H1308.85V818.406H1304.1V793.682H1293.22V789.629H1319.68ZM1337.1 797.909C1343.94 797.909 1349.44 800.109 1349.44 808.157C1349.44 816.206 1343.94 818.406 1337.1 818.406H1326.39V789.629H1331.14V797.909H1337.1ZM1331.14 814.353H1336.53C1341.39 814.353 1344.69 813.774 1344.69 808.157C1344.69 802.541 1341.39 801.962 1336.53 801.962H1331.14V814.353ZM226.113 845.629V874.406H221.365V849.682H207.064V874.406H202.316V845.629H226.113ZM233.388 859.989C233.388 851.651 239.409 845.05 248.615 845.05C257.764 845.05 263.727 851.651 263.727 859.989C263.727 868.384 257.764 874.985 248.615 874.985C239.409 874.985 233.388 868.384 233.388 859.989ZM238.135 859.989C238.135 866.01 241.783 870.932 248.615 870.932C255.39 870.932 259.037 866.01 259.037 859.989C259.037 854.025 255.39 849.103 248.615 849.103C241.783 849.103 238.135 854.025 238.135 859.989ZM294.366 874.406H288.808L278.559 861.899C278.096 862.015 277.633 862.073 277.112 862.073H275.085V874.406H270.337V845.629H275.085V857.846H277.459L284.928 847.772C285.97 846.324 287.244 845.629 289.155 845.629H293.671V849.682H288.981L281.917 859.178L294.366 874.406ZM298.808 866.416C298.808 861.841 301.529 858.715 308.246 858.02L319.71 856.92C319.42 851.651 316.583 849.045 311.604 849.045C307.435 849.045 303.556 850.898 303.556 856.341H298.924C298.924 850.377 303.44 845.05 311.604 845.05C319.652 845.05 324.458 850.377 324.458 858.078V870.353H328.685V874.406H323.589C321.389 874.406 320.173 873.19 320.173 871.048V869.484L320.926 866.473H319.536C318.436 870.874 315.367 874.985 308.419 874.985C300.082 874.985 298.808 869.426 298.808 866.416ZM303.556 865.837C303.556 869.137 305.64 870.932 308.998 870.932C315.541 870.932 319.71 866.416 319.71 860.452L309.056 861.552C305.409 861.899 303.556 862.999 303.556 865.837ZM333.652 863.173H338.284C338.284 869.253 340.369 871.221 345.985 871.221C351.022 871.221 352.643 869.368 352.643 865.837C352.643 862.536 351.022 861.089 347.49 861.089H343.611V857.267H347.49C351.022 857.267 352.064 855.762 352.064 853.099C352.064 850.551 350.849 848.814 345.753 848.814C340.137 848.814 338.863 850.725 338.863 854.604H334.231C334.231 848.582 337.995 845.05 345.753 845.05C352.991 845.05 356.696 848.351 356.696 852.577C356.696 856.167 354.496 858.02 350.906 858.483V859.815C354.496 860.336 357.275 862.247 357.275 866.358C357.275 871.627 353.222 874.985 345.985 874.985C338.226 874.985 333.652 871.395 333.652 863.173ZM364.002 866.416C364.002 861.841 366.724 858.715 373.44 858.02L384.904 856.92C384.615 851.651 381.778 849.045 376.798 849.045C372.629 849.045 368.75 850.898 368.75 856.341H364.118C364.118 850.377 368.634 845.05 376.798 845.05C384.846 845.05 389.652 850.377 389.652 858.078V870.353H393.879V874.406H388.784C386.583 874.406 385.367 873.19 385.367 871.048V869.484L386.12 866.473H384.73C383.63 870.874 380.562 874.985 373.614 874.985C365.276 874.985 364.002 869.426 364.002 866.416ZM368.75 865.837C368.75 869.137 370.834 870.932 374.193 870.932C380.735 870.932 384.904 866.416 384.904 860.452L374.251 861.552C370.603 861.899 368.75 862.999 368.75 865.837ZM419.512 845.629V849.682H408.685V874.406H403.937V849.682H393.052V845.629H419.512ZM436.938 853.909C443.771 853.909 449.271 856.109 449.271 864.157C449.271 872.206 443.771 874.406 436.938 874.406H426.227V845.629H430.975V853.909H436.938ZM430.975 870.353H436.359C441.223 870.353 444.523 869.774 444.523 864.157C444.523 858.541 441.223 857.962 436.359 857.962H430.975V870.353ZM474.657 859.989C474.657 851.709 480.042 845.05 489.364 845.05C494.922 845.05 502.044 848.177 502.797 856.515H497.991C497.18 851.014 493.533 849.103 489.364 849.103C482.532 849.103 479.405 854.083 479.405 859.989C479.405 865.952 482.532 870.932 489.364 870.932C493.533 870.932 497.18 869.021 497.991 863.521H502.797C502.044 871.858 494.922 874.985 489.364 874.985C480.042 874.985 474.657 868.326 474.657 859.989ZM509.345 874.406V845.629H519.767C526.657 845.629 531.289 847.019 531.289 852.52C531.289 857.267 528.047 858.425 525.731 858.599V859.989C529.552 860.047 533.432 861.32 533.432 866.821C533.432 872.437 528.8 874.406 521.91 874.406H509.345ZM513.977 857.557H519.767C524.457 857.557 526.657 857.325 526.657 853.272C526.657 849.972 524.457 849.393 519.767 849.393H513.977V857.557ZM513.977 870.642H521.91C526.542 870.642 528.8 870.063 528.8 866.242C528.8 862.189 526.542 861.32 521.91 861.32H513.977V870.642ZM539.06 859.989C539.06 851.651 545.081 845.05 554.287 845.05C563.436 845.05 569.399 851.651 569.399 859.989C569.399 868.384 563.436 874.985 554.287 874.985C545.081 874.985 539.06 868.384 539.06 859.989ZM543.808 859.989C543.808 866.01 547.455 870.932 554.287 870.932C561.062 870.932 564.71 866.01 564.71 859.989C564.71 854.025 561.062 849.103 554.287 849.103C547.455 849.103 543.808 854.025 543.808 859.989ZM602.105 845.05C611.369 845.05 616.001 851.883 616.001 859.989C616.001 868.21 611.369 874.985 602.105 874.985C593.536 874.985 588.962 869.311 588.267 862.015H581.492V874.406H576.745V845.629H581.492V857.962H588.267C588.962 850.782 593.594 845.05 602.105 845.05ZM602.105 870.932C608.763 870.932 611.253 866.01 611.253 859.989C611.253 854.025 608.763 849.103 602.105 849.103C595.388 849.103 592.899 854.025 592.899 859.989C592.899 866.01 595.388 870.932 602.105 870.932ZM642.504 874.406V845.629H652L658.774 873.074H660.106L666.88 845.629H676.434V874.406H671.686V849.798L672.497 847.019H671.107L664.217 874.406H654.721L647.831 847.019H646.499L647.252 849.798V874.406H642.504ZM707.84 845.629H712.993L700.487 874.116V882.164C700.487 884.365 699.213 885.696 696.492 885.58L685.375 885.059V881.006L695.739 881.527V874.116L683.175 845.629H688.386L697.418 868.037V870.237H698.808V868.037L707.84 845.629ZM716.788 863.173H721.42C721.42 869.253 723.505 871.221 729.121 871.221C734.158 871.221 735.78 869.368 735.78 865.837C735.78 862.536 734.158 861.089 730.626 861.089H726.747V857.267H730.626C734.158 857.267 735.201 855.762 735.201 853.099C735.201 850.551 733.985 848.814 728.889 848.814C723.273 848.814 721.999 850.725 721.999 854.604H717.367C717.367 848.582 721.131 845.05 728.889 845.05C736.127 845.05 739.833 848.351 739.833 852.577C739.833 856.167 737.632 858.02 734.043 858.483V859.815C737.632 860.336 740.412 862.247 740.412 866.358C740.412 871.627 736.359 874.985 729.121 874.985C721.362 874.985 716.788 871.395 716.788 863.173ZM759.008 853.909C765.84 853.909 771.341 856.109 771.341 864.157C771.341 872.206 765.84 874.406 759.008 874.406H748.296V845.629H753.044V853.909H759.008ZM775.394 874.406V845.629H780.084V874.406H775.394ZM753.044 870.353H758.429C763.293 870.353 766.593 869.774 766.593 864.157C766.593 858.541 763.293 857.962 758.429 857.962H753.044V870.353ZM812.64 874.406H807.082L796.833 861.899C796.37 862.015 795.907 862.073 795.386 862.073H793.359V874.406H788.612V845.629H793.359V857.846H795.733L803.202 847.772C804.245 846.324 805.519 845.629 807.429 845.629H811.945V849.682H807.256L800.192 859.178L812.64 874.406ZM817.082 866.416C817.082 861.841 819.804 858.715 826.52 858.02L837.984 856.92C837.695 851.651 834.858 849.045 829.878 849.045C825.709 849.045 821.83 850.898 821.83 856.341H817.198C817.198 850.377 821.714 845.05 829.878 845.05C837.926 845.05 842.732 850.377 842.732 858.078V870.353H846.959V874.406H841.864C839.663 874.406 838.447 873.19 838.447 871.048V869.484L839.2 866.473H837.811C836.71 870.874 833.642 874.985 826.694 874.985C818.356 874.985 817.082 869.426 817.082 866.416ZM821.83 865.837C821.83 869.137 823.914 870.932 827.273 870.932C833.815 870.932 837.984 866.416 837.984 860.452L827.331 861.552C823.683 861.899 821.83 862.999 821.83 865.837ZM877.634 845.629V874.406H872.886V849.682H861.654C861.596 865.489 860.785 874.406 851.347 874.406V870.353C856.964 870.353 856.906 861.957 856.906 845.629H877.634ZM896.804 853.909C903.636 853.909 909.136 856.109 909.136 864.157C909.136 872.206 903.636 874.406 896.804 874.406H886.092V845.629H890.84V853.909H896.804ZM890.84 870.353H896.225C901.088 870.353 904.388 869.774 904.388 864.157C904.388 858.541 901.088 857.962 896.225 857.962H890.84V870.353ZM937.416 845.629H942.105V874.406H937.416V862.015H921.203V874.406H916.456V845.629H921.203V857.962H937.416V845.629ZM973.536 845.629H978.689L966.183 874.116V882.164C966.183 884.365 964.909 885.696 962.188 885.58L951.071 885.059V881.006L961.435 881.527V874.116L948.871 845.629H954.082L963.114 868.037V870.237H964.504V868.037L973.536 845.629ZM1010.18 845.05C1019.44 845.05 1024.07 851.883 1024.07 859.989C1024.07 868.21 1019.44 874.985 1010.18 874.985C1001.61 874.985 997.033 869.311 996.338 862.015H989.564V874.406H984.816V845.629H989.564V857.962H996.338C997.033 850.782 1001.67 845.05 1010.18 845.05ZM1010.18 870.932C1016.84 870.932 1019.32 866.01 1019.32 859.989C1019.32 854.025 1016.84 849.103 1010.18 849.103C1003.46 849.103 1000.97 854.025 1000.97 859.989C1000.97 866.01 1003.46 870.932 1010.18 870.932ZM1062.85 845.05C1072.17 845.05 1077.56 851.709 1077.56 859.989C1077.56 868.326 1072.17 874.985 1062.85 874.985C1057.29 874.985 1050.17 871.858 1049.42 863.521H1054.22C1055.03 869.021 1058.68 870.932 1062.85 870.932C1068.99 870.932 1072.11 866.937 1072.69 861.841H1060.13V858.136H1072.69C1072.11 853.099 1068.93 849.103 1062.85 849.103C1058.68 849.103 1055.03 851.014 1054.22 856.515H1049.42C1050.17 848.177 1057.29 845.05 1062.85 845.05ZM1084.11 845.629H1088.85V849.856L1088.1 853.156H1089.43C1090.65 848.64 1094.47 845.05 1101.07 845.05C1109.41 845.05 1114.79 851.477 1114.79 860.047C1114.79 868.558 1109.41 874.985 1101.07 874.985C1094.47 874.985 1090.65 871.395 1089.43 866.937H1088.1L1088.85 870.179V884.944H1084.11V845.629ZM1088.85 860.047C1088.85 867.689 1093.78 870.932 1099.68 870.932C1105.64 870.932 1110.05 867.574 1110.05 860.047C1110.05 852.462 1105.64 849.103 1099.68 849.103C1093.78 849.103 1088.85 852.346 1088.85 860.047ZM1143.9 845.629H1149.05L1136.55 874.116V882.164C1136.55 884.365 1135.27 885.696 1132.55 885.58L1121.44 885.059V881.006L1131.8 881.527V874.116L1119.24 845.629H1124.45L1133.48 868.037V870.237H1134.87V868.037L1143.9 845.629ZM1180.43 870.353V882.049H1175.69V874.406H1153.57V882.049H1148.82V870.353H1152.64C1155.77 864.042 1156.93 856.978 1156.93 845.629H1176.61V870.353H1180.43ZM1157.39 870.353H1171.86V849.682H1161.62C1161.33 858.715 1160.11 864.852 1157.39 870.353ZM1214.18 874.406H1209.49V849.74L1210.24 847.019H1208.91L1196.12 874.406H1186.56V845.629H1191.31V870.237L1190.56 873.074H1191.89L1204.68 845.629H1214.18V874.406ZM1249.53 870.353C1251.79 870.353 1253 871.627 1253 873.827V882.049H1248.31V874.406H1221.51V845.629H1226.25V870.353H1240.55V845.629H1245.3V870.353H1249.53ZM1286.84 874.406H1282.15V849.74L1282.9 847.019H1281.57L1268.77 874.406H1259.22V845.629H1263.97V870.237L1263.22 873.074H1264.55L1277.34 845.629H1286.84V874.406ZM1319.52 845.05C1328.79 845.05 1333.42 851.883 1333.42 859.989C1333.42 868.21 1328.79 874.985 1319.52 874.985C1310.95 874.985 1306.38 869.311 1305.69 862.015H1298.91V874.406H1294.16V845.629H1298.91V857.962H1305.69C1306.38 850.782 1311.01 845.05 1319.52 845.05ZM1319.52 870.932C1326.18 870.932 1328.67 866.01 1328.67 859.989C1328.67 854.025 1326.18 849.103 1319.52 849.103C1312.81 849.103 1310.32 854.025 1310.32 859.989C1310.32 866.01 1312.81 870.932 1319.52 870.932ZM1343.48 864.968L1347.7 866.068L1343.19 882.859L1338.96 881.701L1343.48 864.968ZM403.998 901.629V930.406H399.25V905.682H384.949V930.406H380.201V901.629H403.998ZM411.272 915.989C411.272 907.651 417.294 901.05 426.5 901.05C435.648 901.05 441.612 907.651 441.612 915.989C441.612 924.384 435.648 930.985 426.5 930.985C417.294 930.985 411.272 924.384 411.272 915.989ZM416.02 915.989C416.02 922.01 419.668 926.932 426.5 926.932C433.274 926.932 436.922 922.01 436.922 915.989C436.922 910.025 433.274 905.103 426.5 905.103C419.668 905.103 416.02 910.025 416.02 915.989ZM470.797 901.629V905.682H459.97V930.406H455.222V905.682H444.336V901.629H470.797ZM476.381 901.629H481.128V905.856L480.376 909.156H481.707C482.923 904.64 486.745 901.05 493.345 901.05C501.683 901.05 507.068 907.477 507.068 916.047C507.068 924.558 501.683 930.985 493.345 930.985C486.745 930.985 482.923 927.395 481.707 922.937H480.376L481.128 926.179V940.944H476.381V901.629ZM481.128 916.047C481.128 923.689 486.05 926.932 491.956 926.932C497.919 926.932 502.32 923.574 502.32 916.047C502.32 908.462 497.919 905.103 491.956 905.103C486.05 905.103 481.128 908.346 481.128 916.047ZM513.22 915.641C513.22 906.377 519.01 901.05 527.174 901.05C535.28 901.05 540.606 906.203 540.606 915.062V916.915H517.852C518.141 922.358 520.747 927.048 527.868 927.048C532.616 927.048 535.801 924.732 536.843 920.331H541.591C540.491 924.789 537.017 930.985 527.868 930.985C517.562 930.985 513.22 923.921 513.22 915.641ZM517.852 913.325H535.974C535.974 908.693 532.906 905.045 527.174 905.045C521.499 905.045 517.852 908.693 517.852 913.325ZM569.094 901.629H573.784V930.406H569.094V918.015H552.882V930.406H548.134V901.629H552.882V913.962H569.094V901.629ZM609.904 930.406H605.214V905.74L605.967 903.019H604.635L591.839 930.406H582.286V901.629H587.034V926.237L586.281 929.074H587.613L600.409 901.629H609.904V930.406ZM617.23 901.629H621.977V905.856L621.225 909.156H622.556C623.772 904.64 627.594 901.05 634.194 901.05C642.532 901.05 647.917 907.477 647.917 916.047C647.917 924.558 642.532 930.985 634.194 930.985C627.594 930.985 623.772 927.395 622.556 922.937H621.225L621.977 926.179V940.944H617.23V901.629ZM621.977 916.047C621.977 923.689 626.899 926.932 632.805 926.932C638.768 926.932 643.169 923.574 643.169 916.047C643.169 908.462 638.768 905.103 632.805 905.103C626.899 905.103 621.977 908.346 621.977 916.047ZM654.068 915.989C654.068 907.651 660.09 901.05 669.296 901.05C678.444 901.05 684.408 907.651 684.408 915.989C684.408 924.384 678.444 930.985 669.296 930.985C660.09 930.985 654.068 924.384 654.068 915.989ZM658.816 915.989C658.816 922.01 662.464 926.932 669.296 926.932C676.071 926.932 679.718 922.01 679.718 915.989C679.718 910.025 676.071 905.103 669.296 905.103C662.464 905.103 658.816 910.025 658.816 915.989ZM691.018 930.406V901.629H701.44C708.33 901.629 712.962 903.019 712.962 908.52C712.962 913.267 709.72 914.425 707.404 914.599V915.989C711.225 916.047 715.105 917.32 715.105 922.821C715.105 928.437 710.473 930.406 703.583 930.406H691.018ZM695.65 913.557H701.44C706.13 913.557 708.33 913.325 708.33 909.272C708.33 905.972 706.13 905.393 701.44 905.393H695.65V913.557ZM695.65 926.642H703.583C708.215 926.642 710.473 926.063 710.473 922.242C710.473 918.189 708.215 917.32 703.583 917.32H695.65V926.642ZM720.733 922.416C720.733 917.841 723.454 914.715 730.171 914.02L741.635 912.92C741.345 907.651 738.508 905.045 733.529 905.045C729.36 905.045 725.481 906.898 725.481 912.341H720.849C720.849 906.377 725.365 901.05 733.529 901.05C741.577 901.05 746.383 906.377 746.383 914.078V926.353H750.609V930.406H745.514C743.314 930.406 742.098 929.19 742.098 927.048V925.484L742.851 922.473H741.461C740.361 926.874 737.292 930.985 730.344 930.985C722.007 930.985 720.733 925.426 720.733 922.416ZM725.481 921.837C725.481 925.137 727.565 926.932 730.923 926.932C737.466 926.932 741.635 922.416 741.635 916.452L730.981 917.552C727.333 917.899 725.481 918.999 725.481 921.837ZM776.243 901.629V905.682H765.415V930.406H760.668V905.682H749.782V901.629H776.243ZM793.669 909.909C800.501 909.909 806.002 912.109 806.002 920.157C806.002 928.206 800.501 930.406 793.669 930.406H782.957V901.629H787.705V909.909H793.669ZM787.705 926.353H793.09C797.954 926.353 801.254 925.774 801.254 920.157C801.254 914.541 797.954 913.962 793.09 913.962H787.705V926.353ZM832.546 930.406V901.629H852.637V905.682H837.293V930.406H832.546ZM855.023 915.989C855.023 907.651 861.044 901.05 870.25 901.05C879.399 901.05 885.362 907.651 885.362 915.989C885.362 924.384 879.399 930.985 870.25 930.985C861.044 930.985 855.023 924.384 855.023 915.989ZM859.771 915.989C859.771 922.01 863.418 926.932 870.25 926.932C877.025 926.932 880.673 922.01 880.673 915.989C880.673 910.025 877.025 905.103 870.25 905.103C863.418 905.103 859.771 910.025 859.771 915.989ZM914.387 901.629V930.406H909.639V905.682H898.407C898.349 921.489 897.538 930.406 888.1 930.406V926.353C893.717 926.353 893.659 917.957 893.659 901.629H914.387ZM921.687 915.989C921.687 907.651 927.709 901.05 936.915 901.05C946.063 901.05 952.027 907.651 952.027 915.989C952.027 924.384 946.063 930.985 936.915 930.985C927.709 930.985 921.687 924.384 921.687 915.989ZM926.435 915.989C926.435 922.01 930.083 926.932 936.915 926.932C943.689 926.932 947.337 922.01 947.337 915.989C947.337 910.025 943.689 905.103 936.915 905.103C930.083 905.103 926.435 910.025 926.435 915.989ZM957.479 915.989C957.479 907.709 962.864 901.05 972.186 901.05C977.744 901.05 984.866 904.177 985.618 912.515H980.813C980.002 907.014 976.354 905.103 972.186 905.103C965.353 905.103 962.227 910.083 962.227 915.989C962.227 921.952 965.353 926.932 972.186 926.932C976.354 926.932 980.002 925.021 980.813 919.521H985.618C984.866 927.858 977.744 930.985 972.186 930.985C962.864 930.985 957.479 924.326 957.479 915.989ZM991.009 915.989C991.009 907.651 997.031 901.05 1006.24 901.05C1015.38 901.05 1021.35 907.651 1021.35 915.989C1021.35 924.384 1015.38 930.985 1006.24 930.985C997.031 930.985 991.009 924.384 991.009 915.989ZM995.757 915.989C995.757 922.01 999.404 926.932 1006.24 926.932C1013.01 926.932 1016.66 922.01 1016.66 915.989C1016.66 910.025 1013.01 905.103 1006.24 905.103C999.404 905.103 995.757 910.025 995.757 915.989ZM1027.96 930.406V901.629H1038.38C1045.27 901.629 1049.9 903.019 1049.9 908.52C1049.9 913.267 1046.66 914.425 1044.34 914.599V915.989C1048.17 916.047 1052.05 917.32 1052.05 922.821C1052.05 928.437 1047.41 930.406 1040.52 930.406H1027.96ZM1032.59 913.557H1038.38C1043.07 913.557 1045.27 913.325 1045.27 909.272C1045.27 905.972 1043.07 905.393 1038.38 905.393H1032.59V913.557ZM1032.59 926.642H1040.52C1045.16 926.642 1047.41 926.063 1047.41 922.242C1047.41 918.189 1045.16 917.32 1040.52 917.32H1032.59V926.642ZM1069.54 909.909C1076.38 909.909 1081.88 912.109 1081.88 920.157C1081.88 928.206 1076.38 930.406 1069.54 930.406H1058.83V901.629H1063.58V909.909H1069.54ZM1085.93 930.406V901.629H1090.62V930.406H1085.93ZM1063.58 926.353H1068.96C1073.83 926.353 1077.13 925.774 1077.13 920.157C1077.13 914.541 1073.83 913.962 1068.96 913.962H1063.58V926.353ZM1097.99 915.641C1097.99 906.377 1103.78 901.05 1111.94 901.05C1120.05 901.05 1125.38 906.203 1125.38 915.062V916.915H1102.62C1102.91 922.358 1105.52 927.048 1112.64 927.048C1117.39 927.048 1120.57 924.732 1121.61 920.331H1126.36C1125.26 924.789 1121.79 930.985 1112.64 930.985C1102.33 930.985 1097.99 923.921 1097.99 915.641ZM1102.62 913.325H1120.74C1120.74 908.693 1117.67 905.045 1111.94 905.045C1106.27 905.045 1102.62 908.693 1102.62 913.325ZM1151.7 915.989C1151.7 907.709 1157.09 901.05 1166.41 901.05C1171.97 901.05 1179.09 904.177 1179.84 912.515H1175.04C1174.23 907.014 1170.58 905.103 1166.41 905.103C1159.58 905.103 1156.45 910.083 1156.45 915.989C1156.45 921.952 1159.58 926.932 1166.41 926.932C1170.58 926.932 1174.23 925.021 1175.04 919.521H1179.84C1179.09 927.858 1171.97 930.985 1166.41 930.985C1157.09 930.985 1151.7 924.326 1151.7 915.989ZM1186.39 930.406V901.629H1196.81C1203.7 901.629 1208.34 903.019 1208.34 908.52C1208.34 913.267 1205.09 914.425 1202.78 914.599V915.989C1206.6 916.047 1210.48 917.32 1210.48 922.821C1210.48 928.437 1205.85 930.406 1198.96 930.406H1186.39ZM1191.02 913.557H1196.81C1201.5 913.557 1203.7 913.325 1203.7 909.272C1203.7 905.972 1201.5 905.393 1196.81 905.393H1191.02V913.557ZM1191.02 926.642H1198.96C1203.59 926.642 1205.85 926.063 1205.85 922.242C1205.85 918.189 1203.59 917.32 1198.96 917.32H1191.02V926.642ZM1236.95 901.629V930.406H1232.26V917.841H1228.67L1222.82 928.148C1221.9 929.595 1220.51 930.406 1218.65 930.406H1214.37V926.469H1219.06L1224.04 917.61C1219.23 916.915 1216.45 914.715 1216.45 909.735C1216.45 903.887 1220.68 901.629 1227.8 901.629H1236.95ZM1232.26 914.078V905.393H1228.21C1223.58 905.393 1221.2 906.261 1221.2 909.735C1221.2 913.209 1223.58 914.078 1228.21 914.078H1232.26ZM1244.9 919.173H1249.53C1249.53 925.253 1251.62 927.221 1257.23 927.221C1262.27 927.221 1263.89 925.368 1263.89 921.837C1263.89 918.536 1262.27 917.089 1258.74 917.089H1254.86V913.267H1258.74C1262.27 913.267 1263.31 911.762 1263.31 909.099C1263.31 906.551 1262.1 904.814 1257 904.814C1251.39 904.814 1250.11 906.725 1250.11 910.604H1245.48C1245.48 904.582 1249.24 901.05 1257 901.05C1264.24 901.05 1267.95 904.351 1267.95 908.577C1267.95 912.167 1265.75 914.02 1262.16 914.483V915.815C1265.75 916.336 1268.52 918.247 1268.52 922.358C1268.52 927.627 1264.47 930.985 1257.23 930.985C1249.48 930.985 1244.9 927.395 1244.9 919.173ZM1299.59 930.406H1294.03L1283.78 917.899C1283.32 918.015 1282.86 918.073 1282.34 918.073H1280.31V930.406H1275.56V901.629H1280.31V913.846H1282.68L1290.15 903.772C1291.19 902.324 1292.47 901.629 1294.38 901.629H1298.89V905.682H1294.2L1287.14 915.178L1299.59 930.406ZM1333.37 930.406H1328.68V905.74L1329.44 903.019H1328.1L1315.31 930.406H1305.76V901.629H1310.5V926.237L1309.75 929.074H1311.08L1323.88 901.629H1333.37V930.406ZM1343.48 920.968L1347.7 922.068L1343.19 938.859L1338.96 937.701L1343.48 920.968ZM395.775 986.406H391.086V961.74L391.838 959.019H390.507L377.711 986.406H368.157V957.629H372.905V982.237L372.152 985.074H373.484L386.28 957.629H395.775V986.406ZM446.122 957.629V986.406H441.375V961.682H427.073V986.406H422.325V957.629H446.122ZM454.555 957.629H459.303V961.856L458.55 965.156H459.882C461.098 960.64 464.919 957.05 471.52 957.05C479.857 957.05 485.242 963.477 485.242 972.047C485.242 980.558 479.857 986.985 471.52 986.985C464.919 986.985 461.098 983.395 459.882 978.937H458.55L459.303 982.179V996.944H454.555V957.629ZM459.303 972.047C459.303 979.689 464.224 982.932 470.13 982.932C476.094 982.932 480.494 979.574 480.494 972.047C480.494 964.462 476.094 961.103 470.13 961.103C464.224 961.103 459.303 964.346 459.303 972.047ZM491.394 971.989C491.394 963.651 497.416 957.05 506.622 957.05C515.77 957.05 521.734 963.651 521.734 971.989C521.734 980.384 515.77 986.985 506.622 986.985C497.416 986.985 491.394 980.384 491.394 971.989ZM496.142 971.989C496.142 978.01 499.789 982.932 506.622 982.932C513.396 982.932 517.044 978.01 517.044 971.989C517.044 966.025 513.396 961.103 506.622 961.103C499.789 961.103 496.142 966.025 496.142 971.989ZM527.186 971.989C527.186 963.709 532.57 957.05 541.892 957.05C547.451 957.05 554.572 960.177 555.325 968.515H550.519C549.709 963.014 546.061 961.103 541.892 961.103C535.06 961.103 531.934 966.083 531.934 971.989C531.934 977.952 535.06 982.932 541.892 982.932C546.061 982.932 549.709 981.021 550.519 975.521H555.325C554.572 983.858 547.451 986.985 541.892 986.985C532.57 986.985 527.186 980.326 527.186 971.989ZM584.449 957.629V961.682H573.621V986.406H568.873V961.682H557.988V957.629H584.449ZM586.556 971.989C586.556 963.651 592.578 957.05 601.784 957.05C610.932 957.05 616.896 963.651 616.896 971.989C616.896 980.384 610.932 986.985 601.784 986.985C592.578 986.985 586.556 980.384 586.556 971.989ZM591.304 971.989C591.304 978.01 594.952 982.932 601.784 982.932C608.558 982.932 612.206 978.01 612.206 971.989C612.206 966.025 608.558 961.103 601.784 961.103C594.952 961.103 591.304 966.025 591.304 971.989ZM642.308 971.989C642.308 963.651 648.329 957.05 657.535 957.05C666.683 957.05 672.647 963.651 672.647 971.989C672.647 980.384 666.683 986.985 657.535 986.985C648.329 986.985 642.308 980.384 642.308 971.989ZM647.055 971.989C647.055 978.01 650.703 982.932 657.535 982.932C664.31 982.932 667.957 978.01 667.957 971.989C667.957 966.025 664.31 961.103 657.535 961.103C650.703 961.103 647.055 966.025 647.055 971.989ZM701.832 957.629V961.682H691.005V986.406H686.257V961.682H675.372V957.629H701.832ZM729.039 957.629V986.406H724.291V961.682H713.058C713 977.489 712.19 986.406 702.752 986.406V982.353C708.368 982.353 708.311 973.957 708.311 957.629H729.039ZM765.115 986.406H760.425V961.74L761.178 959.019H759.846L747.05 986.406H737.497V957.629H742.245V982.237L741.492 985.074H742.824L755.619 957.629H765.115V986.406ZM794.442 957.629H799.19V986.406H794.442V975.984L776.435 977.142C773.714 977.315 772.44 975.926 772.44 973.205V957.629H777.188V973.089L794.442 971.931V957.629ZM828.627 957.629H833.317V986.406H828.627V974.015H812.415V986.406H807.667V957.629H812.415V969.962H828.627V957.629ZM840.095 971.989C840.095 963.651 846.117 957.05 855.323 957.05C864.471 957.05 870.435 963.651 870.435 971.989C870.435 980.384 864.471 986.985 855.323 986.985C846.117 986.985 840.095 980.384 840.095 971.989ZM844.843 971.989C844.843 978.01 848.491 982.932 855.323 982.932C862.097 982.932 865.745 978.01 865.745 971.989C865.745 966.025 862.097 961.103 855.323 961.103C848.491 961.103 844.843 966.025 844.843 971.989ZM920.802 957.629V986.406H916.054V961.682H901.753V986.406H897.005V957.629H920.802ZM929.234 957.629H933.982V961.856L933.23 965.156H934.561C935.777 960.64 939.599 957.05 946.199 957.05C954.537 957.05 959.922 963.477 959.922 972.047C959.922 980.558 954.537 986.985 946.199 986.985C939.599 986.985 935.777 983.395 934.561 978.937H933.23L933.982 982.179V996.944H929.234V957.629ZM933.982 972.047C933.982 979.689 938.904 982.932 944.81 982.932C950.773 982.932 955.174 979.574 955.174 972.047C955.174 964.462 950.773 961.103 944.81 961.103C938.904 961.103 933.982 964.346 933.982 972.047ZM966.073 971.989C966.073 963.651 972.095 957.05 981.301 957.05C990.449 957.05 996.413 963.651 996.413 971.989C996.413 980.384 990.449 986.985 981.301 986.985C972.095 986.985 966.073 980.384 966.073 971.989ZM970.821 971.989C970.821 978.01 974.469 982.932 981.301 982.932C988.075 982.932 991.723 978.01 991.723 971.989C991.723 966.025 988.075 961.103 981.301 961.103C974.469 961.103 970.821 966.025 970.821 971.989ZM1003.02 986.406V957.629H1013.45C1020.34 957.629 1024.97 959.019 1024.97 964.52C1024.97 969.267 1021.72 970.425 1019.41 970.599V971.989C1023.23 972.047 1027.11 973.32 1027.11 978.821C1027.11 984.437 1022.48 986.406 1015.59 986.406H1003.02ZM1007.66 969.557H1013.45C1018.14 969.557 1020.34 969.325 1020.34 965.272C1020.34 961.972 1018.14 961.393 1013.45 961.393H1007.66V969.557ZM1007.66 982.642H1015.59C1020.22 982.642 1022.48 982.063 1022.48 978.242C1022.48 974.189 1020.22 973.32 1015.59 973.32H1007.66V982.642ZM1032.74 971.641C1032.74 962.377 1038.53 957.05 1046.69 957.05C1054.8 957.05 1060.12 962.203 1060.12 971.062V972.915H1037.37C1037.66 978.358 1040.26 983.048 1047.39 983.048C1052.13 983.048 1055.32 980.732 1056.36 976.331H1061.11C1060.01 980.789 1056.53 986.985 1047.39 986.985C1037.08 986.985 1032.74 979.921 1032.74 971.641ZM1037.37 969.325H1055.49C1055.49 964.693 1052.42 961.045 1046.69 961.045C1041.02 961.045 1037.37 964.693 1037.37 969.325ZM1066.49 971.989C1066.49 963.709 1071.88 957.05 1081.2 957.05C1086.76 957.05 1093.88 960.177 1094.63 968.515H1089.83C1089.02 963.014 1085.37 961.103 1081.2 961.103C1074.37 961.103 1071.24 966.083 1071.24 971.989C1071.24 977.952 1074.37 982.932 1081.2 982.932C1085.37 982.932 1089.02 981.021 1089.83 975.521H1094.63C1093.88 983.858 1086.76 986.985 1081.2 986.985C1071.88 986.985 1066.49 980.326 1066.49 971.989ZM1123.76 957.629V961.682H1112.93V986.406H1108.18V961.682H1097.3V957.629H1123.76ZM1156.96 986.406H1152.27V961.74L1153.02 959.019H1151.69L1138.89 986.406H1129.34V957.629H1134.09V982.237L1133.34 985.074H1134.67L1147.46 957.629H1156.96V986.406ZM1183.51 986.406V957.629H1193.93C1200.82 957.629 1205.45 959.019 1205.45 964.52C1205.45 969.267 1202.21 970.425 1199.89 970.599V971.989C1203.72 972.047 1207.6 973.32 1207.6 978.821C1207.6 984.437 1202.96 986.406 1196.07 986.406H1183.51ZM1188.14 969.557H1193.93C1198.62 969.557 1200.82 969.325 1200.82 965.272C1200.82 961.972 1198.62 961.393 1193.93 961.393H1188.14V969.557ZM1188.14 982.642H1196.07C1200.71 982.642 1202.96 982.063 1202.96 978.242C1202.96 974.189 1200.71 973.32 1196.07 973.32H1188.14V982.642ZM1214.38 957.629H1219.13V961.856L1218.38 965.156H1219.71C1220.92 960.64 1224.75 957.05 1231.35 957.05C1239.68 957.05 1245.07 963.477 1245.07 972.047C1245.07 980.558 1239.68 986.985 1231.35 986.985C1224.75 986.985 1220.92 983.395 1219.71 978.937H1218.38L1219.13 982.179V996.944H1214.38V957.629ZM1219.13 972.047C1219.13 979.689 1224.05 982.932 1229.96 982.932C1235.92 982.932 1240.32 979.574 1240.32 972.047C1240.32 964.462 1235.92 961.103 1229.96 961.103C1224.05 961.103 1219.13 964.346 1219.13 972.047ZM1251.22 971.641C1251.22 962.377 1257.01 957.05 1265.17 957.05C1273.28 957.05 1278.61 962.203 1278.61 971.062V972.915H1255.85C1256.14 978.358 1258.75 983.048 1265.87 983.048C1270.62 983.048 1273.8 980.732 1274.84 976.331H1279.59C1278.49 980.789 1275.02 986.985 1265.87 986.985C1255.56 986.985 1251.22 979.921 1251.22 971.641ZM1255.85 969.325H1273.98C1273.98 964.693 1270.91 961.045 1265.17 961.045C1259.5 961.045 1255.85 964.693 1255.85 969.325ZM1286.13 986.406V957.629H1295.63L1302.4 985.074H1303.74L1310.51 957.629H1320.06V986.406H1315.32V961.798L1316.13 959.019H1314.74L1307.85 986.406H1298.35L1291.46 959.019H1290.13L1290.88 961.798V986.406H1286.13ZM1348.23 957.629V986.406H1343.54V973.841H1339.95L1334.1 984.148C1333.17 985.595 1331.78 986.406 1329.93 986.406H1325.65V982.469H1330.34L1335.32 973.61C1330.51 972.915 1327.73 970.715 1327.73 965.735C1327.73 959.887 1331.96 957.629 1339.08 957.629H1348.23ZM1343.54 970.078V961.393H1339.49C1334.85 961.393 1332.48 962.261 1332.48 965.735C1332.48 969.209 1334.85 970.078 1339.49 970.078H1343.54ZM785.558 1042.41V1013.63H795.98C802.871 1013.63 807.503 1015.02 807.503 1020.52C807.503 1025.27 804.26 1026.43 801.944 1026.6V1027.99C805.766 1028.05 809.645 1029.32 809.645 1034.82C809.645 1040.44 805.013 1042.41 798.123 1042.41H785.558ZM790.19 1025.56H795.98C800.67 1025.56 802.871 1025.33 802.871 1021.27C802.871 1017.97 800.67 1017.39 795.98 1017.39H790.19V1025.56ZM790.19 1038.64H798.123C802.755 1038.64 805.013 1038.06 805.013 1034.24C805.013 1030.19 802.755 1029.32 798.123 1029.32H790.19V1038.64ZM859.684 1042.41H854.126L843.877 1029.9C843.414 1030.02 842.951 1030.07 842.43 1030.07H840.403V1042.41H835.656V1013.63H840.403V1025.85H842.777L850.246 1015.77C851.289 1014.32 852.562 1013.63 854.473 1013.63H858.989V1017.68H854.299L847.236 1027.18L859.684 1042.41ZM862.939 1027.99C862.939 1019.65 868.96 1013.05 878.167 1013.05C887.315 1013.05 893.278 1019.65 893.278 1027.99C893.278 1036.38 887.315 1042.98 878.167 1042.98C868.96 1042.98 862.939 1036.38 862.939 1027.99ZM867.687 1027.99C867.687 1034.01 871.334 1038.93 878.167 1038.93C884.941 1038.93 888.589 1034.01 888.589 1027.99C888.589 1022.02 884.941 1017.1 878.167 1017.1C871.334 1017.1 867.687 1022.02 867.687 1027.99ZM899.889 1042.41V1013.63H909.384L916.159 1041.07H917.49L924.265 1013.63H933.818V1042.41H929.07V1017.8L929.881 1015.02H928.491L921.601 1042.41H912.106L905.215 1015.02H903.884L904.636 1017.8V1042.41H899.889ZM966.093 1013.63V1042.41H961.345V1017.68H947.044V1042.41H942.296V1013.63H966.093ZM973.367 1034.42C973.367 1029.84 976.089 1026.71 982.805 1026.02L994.269 1024.92C993.98 1019.65 991.143 1017.05 986.163 1017.05C981.995 1017.05 978.115 1018.9 978.115 1024.34H973.483C973.483 1018.38 977.999 1013.05 986.163 1013.05C994.212 1013.05 999.017 1018.38 999.017 1026.08V1038.35H1003.24V1042.41H998.149C995.949 1042.41 994.733 1041.19 994.733 1039.05V1037.48L995.485 1034.47H994.096C992.996 1038.87 989.927 1042.98 982.979 1042.98C974.641 1042.98 973.367 1037.43 973.367 1034.42ZM978.115 1033.84C978.115 1037.14 980.2 1038.93 983.558 1038.93C990.101 1038.93 994.269 1034.42 994.269 1028.45L983.616 1029.55C979.968 1029.9 978.115 1031 978.115 1033.84ZM1029.64 1013.63H1034.33V1042.41H1029.64V1030.02H1013.43V1042.41H1008.68V1013.63H1013.43V1025.96H1029.64V1013.63ZM1070.45 1042.41H1065.76V1017.74L1066.51 1015.02H1065.18L1052.38 1042.41H1042.83V1013.63H1047.58V1038.24L1046.82 1041.07H1048.16L1060.95 1013.63H1070.45V1042.41ZM1105.39 1042.41H1100.7V1017.74L1101.45 1015.02H1100.12L1087.33 1042.41H1077.77V1013.63H1082.52V1038.24L1081.77 1041.07H1083.1L1095.9 1013.63H1105.39V1042.41ZM1162.4 1038.35V1050.05H1157.65V1042.41H1135.53V1050.05H1130.78V1038.35H1134.6C1137.73 1032.04 1138.89 1024.98 1138.89 1013.63H1158.58V1038.35H1162.4ZM1139.35 1038.35H1153.83V1017.68H1143.58C1143.29 1026.71 1142.07 1032.85 1139.35 1038.35ZM1168.52 1013.63H1173.27V1017.86L1172.52 1021.16H1173.85C1175.07 1016.64 1178.89 1013.05 1185.49 1013.05C1193.83 1013.05 1199.21 1019.48 1199.21 1028.05C1199.21 1036.56 1193.83 1042.98 1185.49 1042.98C1178.89 1042.98 1175.07 1039.39 1173.85 1034.94H1172.52L1173.27 1038.18V1052.94H1168.52V1013.63ZM1173.27 1028.05C1173.27 1035.69 1178.19 1038.93 1184.1 1038.93C1190.06 1038.93 1194.46 1035.57 1194.46 1028.05C1194.46 1020.46 1190.06 1017.1 1184.1 1017.1C1178.19 1017.1 1173.27 1020.35 1173.27 1028.05ZM1228.32 1013.63H1233.47L1220.97 1042.12V1050.16C1220.97 1052.36 1219.69 1053.7 1216.97 1053.58L1205.85 1053.06V1049.01L1216.22 1049.53V1042.12L1203.65 1013.63H1208.87L1217.9 1036.04V1038.24H1219.29V1036.04L1228.32 1013.63ZM1237.27 1031.17H1241.9C1241.9 1037.25 1243.98 1039.22 1249.6 1039.22C1254.64 1039.22 1256.26 1037.37 1256.26 1033.84C1256.26 1030.54 1254.64 1029.09 1251.11 1029.09H1247.23V1025.27H1251.11C1254.64 1025.27 1255.68 1023.76 1255.68 1021.1C1255.68 1018.55 1254.46 1016.81 1249.37 1016.81C1243.75 1016.81 1242.48 1018.72 1242.48 1022.6H1237.85C1237.85 1016.58 1241.61 1013.05 1249.37 1013.05C1256.61 1013.05 1260.31 1016.35 1260.31 1020.58C1260.31 1024.17 1258.11 1026.02 1254.52 1026.48V1027.81C1258.11 1028.34 1260.89 1030.25 1260.89 1034.36C1260.89 1039.63 1256.84 1042.98 1249.6 1042.98C1241.84 1042.98 1237.27 1039.39 1237.27 1031.17ZM1267.62 1027.64C1267.62 1018.38 1273.41 1013.05 1281.57 1013.05C1289.68 1013.05 1295 1018.2 1295 1027.06V1028.92H1272.25C1272.54 1034.36 1275.14 1039.05 1282.27 1039.05C1287.01 1039.05 1290.2 1036.73 1291.24 1032.33H1295.99C1294.89 1036.79 1291.41 1042.98 1282.27 1042.98C1271.96 1042.98 1267.62 1035.92 1267.62 1027.64ZM1272.25 1025.33H1290.37C1290.37 1020.69 1287.3 1017.05 1281.57 1017.05C1275.9 1017.05 1272.25 1020.69 1272.25 1025.33ZM1325.46 999.849C1325.46 1005.75 1322.04 1009.81 1316.43 1009.81C1310.75 1009.81 1307.34 1005.75 1307.34 999.849H1311.22C1311.22 1004.08 1312.72 1006.04 1316.43 1006.04C1320.13 1006.04 1321.58 1004.08 1321.58 999.849H1325.46ZM1330.15 1042.41H1325.46V1017.74L1326.21 1015.02H1324.88L1312.09 1042.41H1302.53V1013.63H1307.28V1038.24L1306.53 1041.07H1307.86L1320.65 1013.63H1330.15V1042.41ZM1340.54 1001.59H1345.29L1344.71 1028.39H1341.07L1340.54 1001.59ZM1342.86 1042.98C1340.14 1042.98 1338.05 1040.9 1338.05 1038.12C1338.05 1035.46 1340.14 1033.37 1342.86 1033.37C1345.52 1033.37 1347.67 1035.46 1347.67 1038.12C1347.67 1040.9 1345.52 1042.98 1342.86 1042.98Z" fill="black"/>
</svg>
