<svg width="1294" height="395" viewBox="0 0 1294 395" fill="none" xmlns="http://www.w3.org/2000/svg">
<path d="M92.8248 12.3287H120.617V134.788H92.8248V95.1839L26.2976 98.6579C16.5703 99.179 11.1856 94.1417 11.1856 84.4145V12.3287H38.9777V73.645L92.8248 70.8658V12.3287ZM230.048 47.0689V71.3869H197.045V134.788H169.253V71.3869H136.25V47.0689H230.048ZM231.792 90.8414C231.792 60.2701 253.678 45.3318 281.297 45.3318C308.741 45.3318 330.628 60.2701 330.628 90.8414C330.628 121.586 308.741 136.525 281.297 136.525C253.678 136.525 231.792 121.586 231.792 90.8414ZM259.584 90.8414C259.584 105.606 268.095 112.207 281.297 112.207C294.324 112.207 302.836 105.606 302.836 90.8414C302.836 76.2505 294.324 69.6499 281.297 69.6499C268.095 69.6499 259.584 76.2505 259.584 90.8414ZM485.34 47.0689V71.3869H452.337V134.788H424.545V71.3869H391.542V47.0689H485.34ZM487.084 89.7992C487.084 62.0071 506.018 45.3318 533.289 45.3318C560.56 45.3318 579.667 61.486 579.667 88.0622V96.7472H513.139C513.139 106.822 520.435 113.944 536.241 113.944C545.969 113.944 553.264 110.47 555.001 103.869H582.793C581.056 116.549 566.639 136.525 536.241 136.525C502.544 136.525 487.084 114.638 487.084 89.7992ZM513.139 81.1141H553.612C553.612 74.5135 548.748 67.9129 533.289 67.9129C517.829 67.9129 513.139 74.5135 513.139 81.1141ZM598.402 77.9875C598.402 41.5104 615.251 26.0511 643.39 17.0187C665.103 10.0706 670.835 6.77033 672.398 0.169715H703.664C700.538 24.6615 677.262 31.0884 653.812 36.1257C630.189 41.163 619.767 49.8481 616.293 67.5655L609.345 83.1985H616.293C620.114 59.2279 635.226 45.3318 658.155 45.3318C685.078 45.3318 703.143 64.4389 703.143 89.7992C703.143 116.202 687.336 136.525 650.859 136.525C617.161 136.525 598.402 115.159 598.402 77.9875ZM626.194 90.8414C626.194 104.911 635.226 112.207 650.859 112.207C666.492 112.207 675.351 104.911 675.351 90.8414C675.351 76.7716 666.492 69.6499 650.859 69.6499C635.226 69.6499 626.194 76.7716 626.194 90.8414ZM795.602 47.0689V134.788H767.81V100.048H760.862L742.971 125.408C738.281 132.008 733.07 134.788 725.253 134.788H712.399V112.207H725.774L734.981 99.3527C723.516 97.442 714.658 91.7099 714.658 73.4713C714.658 53.8432 731.333 47.0689 748.355 47.0689H795.602ZM767.81 80.9404V66.1759H755.304C745.75 66.1759 742.45 67.9129 742.45 73.4713C742.45 79.2034 745.75 80.9404 755.304 80.9404H767.81Z" fill="black"/>
<path d="M639.01 233.392H617.124L597.399 259.061L639.01 332.015H592.266L563.354 281.217H560.922H547.142V332.015H503.91V281.217H490.13H487.698L458.786 332.015H412.042L453.653 259.061L433.928 233.392H412.042V195.564H436.36C447.978 195.564 458.246 197.725 465.001 206.642L492.291 243.389H503.91V195.564H547.142V243.389H558.761L586.051 206.642C592.806 197.725 603.074 195.564 614.692 195.564H639.01V233.392ZM805.963 294.187H823.796V369.843H780.564V332.015H698.423V369.843H655.191V294.187H673.024C687.615 274.732 693.019 248.523 693.019 195.564H805.963V294.187ZM716.256 294.187H762.731V233.392H734.9C732.738 262.303 726.794 280.136 716.256 294.187ZM876.439 182.054C859.146 182.054 849.689 174.488 849.689 160.438C849.689 146.657 859.146 138.821 876.439 138.821C893.731 138.821 903.729 146.657 903.729 160.438C903.729 174.488 893.731 182.054 876.439 182.054ZM946.691 182.054C929.398 182.054 919.941 174.488 919.941 160.438C919.941 146.657 929.398 138.821 946.691 138.821C963.984 138.821 973.981 146.657 973.981 160.438C973.981 174.488 963.984 182.054 946.691 182.054ZM837.259 262.033C837.259 218.801 866.711 192.862 909.133 192.862C951.554 192.862 981.276 217.99 981.276 259.331V272.841H877.79C877.79 288.513 889.138 299.591 913.726 299.591C928.858 299.591 940.206 294.187 942.908 283.919H986.14C983.438 303.644 961.011 334.717 913.726 334.717C861.307 334.717 837.259 300.672 837.259 262.033ZM877.79 248.523H940.746C940.746 238.255 933.181 227.988 909.133 227.988C885.085 227.988 877.79 238.255 877.79 248.523ZM1137.47 195.564V233.392H1086.13V332.015H1042.9V233.392H991.559V195.564H1137.47ZM1158.98 186.107C1158.98 155.844 1177.35 130.715 1223.02 130.715C1265.17 130.715 1279.22 153.953 1279.22 174.218C1279.22 217.45 1227.34 228.528 1184.38 233.122V242.308L1204.91 235.013H1266.52V262.033H1173.57V208.533C1211.94 207.723 1246.79 199.076 1246.79 175.299C1246.79 162.869 1236.53 157.736 1222.47 157.736C1200.05 157.736 1191.4 168.003 1191.4 186.107H1158.98ZM1219.77 334.717C1201.4 334.717 1190.32 321.747 1190.32 304.725C1190.32 288.242 1201.4 275.273 1219.77 275.273C1237.61 275.273 1249.77 288.242 1249.77 304.725C1249.77 321.747 1237.61 334.717 1219.77 334.717Z" fill="black"/>
</svg>
