<svg width="792" height="167" viewBox="0 0 792 167" fill="none" xmlns="http://www.w3.org/2000/svg">
<path d="M0.203374 22.8132C0.203374 10.9437 7.26719 1.85334 19.3104 1.85334C31.2379 1.85334 38.3017 10.9437 38.3017 22.8132C38.3017 34.7406 31.2379 43.831 19.3104 43.831C7.26719 43.831 0.203374 34.7406 0.203374 22.8132ZM4.95119 22.8132C4.95119 32.5983 9.6411 39.7779 19.3104 39.7779C28.9219 39.7779 33.5539 32.5983 33.5539 22.8132C33.5539 13.086 28.9219 5.90635 19.3104 5.90635C9.6411 5.90635 4.95119 13.086 4.95119 22.8132ZM70.9099 14.4756V18.5286H60.0825V43.252H55.3347V18.5286H44.4495V14.4756H70.9099ZM76.4936 43.252V14.4756H85.9892L92.7636 41.9202H94.0953L100.87 14.4756H110.423V43.252H105.675V18.6444L106.486 15.8652H105.096L98.2062 43.252H88.7105L81.8204 15.8652H80.4887L81.2414 18.6444V43.252H76.4936ZM117.743 28.4874C117.743 19.2234 123.533 13.8966 131.697 13.8966C139.803 13.8966 145.13 19.0497 145.13 27.9084V29.7612H122.375C122.664 35.2038 125.27 39.8937 132.392 39.8937C137.14 39.8937 140.324 37.5777 141.366 33.1773H146.114C145.014 37.6356 141.54 43.831 132.392 43.831C122.085 43.831 117.743 36.7671 117.743 28.4874ZM122.375 26.1714H140.498C140.498 21.5394 137.429 17.8917 131.697 17.8917C126.023 17.8917 122.375 21.5394 122.375 26.1714ZM175.232 14.4756V18.5286H164.405V43.252H159.657V18.5286H148.772V14.4756H175.232ZM192.658 22.7553C199.49 22.7553 204.991 24.9555 204.991 33.0036C204.991 41.0517 199.49 43.252 192.658 43.252H181.947V14.4756H186.694V22.7553H192.658ZM186.694 39.1989H192.079C196.943 39.1989 200.243 38.6199 200.243 33.0036C200.243 27.3873 196.943 26.8083 192.079 26.8083H186.694V39.1989ZM267.607 37.8093V36.0723L268.359 32.8878H267.028C265.87 37.5777 261.817 41.1096 255.506 41.1096C247.226 41.1096 241.725 34.9143 241.725 26.1714C241.725 17.5443 247.226 11.2911 255.506 11.2911C261.817 11.2911 265.87 14.823 267.028 19.5708H268.359L267.607 16.2705V13.3176H271.949V37.4619H273.281C278.781 37.4619 280.055 31.614 280.055 25.9977C280.055 14.1282 271.428 5.09575 258.343 5.09575C245.315 5.09575 235.877 14.5914 235.877 26.5188C235.877 38.9673 244.852 48.3472 259.327 47.305L278.781 45.9733V49.621L259.327 51.0106C242.767 52.1107 232.114 41.457 232.114 26.5188C232.114 11.928 243.231 1.44804 258.343 1.44804C273.512 1.44804 283.819 11.8122 283.819 25.9977C283.819 32.772 281.329 41.1096 272.933 41.1096H270.791C268.765 41.1096 267.607 39.9516 267.607 37.8093ZM256.316 37.4619C262.28 37.4619 267.086 34.0458 267.086 26.1714C267.086 18.4128 262.28 14.9967 256.316 14.9967C250.41 14.9967 246.068 18.4128 246.068 26.1714C246.068 34.0458 250.41 37.4619 256.316 37.4619ZM292.828 14.4756H297.575V18.7023L296.823 22.0026H298.154C299.37 17.4864 303.192 13.8966 309.792 13.8966C318.13 13.8966 323.515 20.3235 323.515 28.8927C323.515 37.404 318.13 43.831 309.792 43.831C303.192 43.831 299.37 40.2411 298.154 35.7828H296.823L297.575 39.0252V53.7898H292.828V14.4756ZM297.575 28.8927C297.575 36.5355 302.497 39.7779 308.403 39.7779C314.366 39.7779 318.767 36.4197 318.767 28.8927C318.767 21.3078 314.366 17.9496 308.403 17.9496C302.497 17.9496 297.575 21.192 297.575 28.8927ZM330.09 43.252V17.8917C330.09 15.1704 331.363 13.8387 334.085 13.9545L350.065 14.4756V18.5286L334.837 18.0075V43.252H330.09ZM352.453 28.8348C352.453 20.4972 358.475 13.8966 367.681 13.8966C376.829 13.8966 382.793 20.4972 382.793 28.8348C382.793 37.2303 376.829 43.831 367.681 43.831C358.475 43.831 352.453 37.2303 352.453 28.8348ZM357.201 28.8348C357.201 34.8564 360.849 39.7779 367.681 39.7779C374.456 39.7779 378.103 34.8564 378.103 28.8348C378.103 22.8711 374.456 17.9496 367.681 17.9496C360.849 17.9496 357.201 22.8711 357.201 28.8348ZM403.135 4.74835C399.487 4.74835 398.329 6.42745 398.329 10.191V14.4756H406.725V18.5286H398.329V39.1989H406.725V43.252H387.27V39.1989H393.639V18.5286H387.27V14.4756H393.639V10.0752C393.639 4.34305 396.477 0.695339 403.367 0.695339H408.346V4.74835H403.135ZM411.598 28.8348C411.598 20.5551 416.982 13.8966 426.304 13.8966C431.863 13.8966 438.984 17.0232 439.737 25.3608H434.931C434.121 19.8603 430.473 17.9496 426.304 17.9496C419.472 17.9496 416.345 22.929 416.345 28.8348C416.345 34.7985 419.472 39.7779 426.304 39.7779C430.473 39.7779 434.121 37.8672 434.931 32.3667H439.737C438.984 40.7043 431.863 43.831 426.304 43.831C416.982 43.831 411.598 37.1724 411.598 28.8348ZM445.128 28.8348C445.128 20.4972 451.149 13.8966 460.355 13.8966C469.504 13.8966 475.467 20.4972 475.467 28.8348C475.467 37.2303 469.504 43.831 460.355 43.831C451.149 43.831 445.128 37.2303 445.128 28.8348ZM449.875 28.8348C449.875 34.8564 453.523 39.7779 460.355 39.7779C467.13 39.7779 470.777 34.8564 470.777 28.8348C470.777 22.8711 467.13 17.9496 460.355 17.9496C453.523 17.9496 449.875 22.8711 449.875 28.8348ZM517.512 13.8966C523.534 13.8966 526.429 18.7023 526.429 25.1292V43.252H521.681V26.2293C521.681 20.6709 520.465 17.9496 515.775 17.9496C510.043 17.9496 506.627 23.0448 506.627 30.5718V43.252H501.879V26.2293C501.879 20.6709 500.663 17.9496 495.973 17.9496C490.241 17.9496 486.825 23.0448 486.825 30.5718V43.252H482.077V14.4756H486.825V19.3971L486.073 22.6395H487.404C488.562 17.4285 491.573 13.8966 497.71 13.8966C502.921 13.8966 505.701 17.4864 506.338 22.6395H507.206C508.364 17.4285 511.375 13.8966 517.512 13.8966ZM541.922 39.8358L552.054 39.1989V43.252L541.169 43.831C538.448 44.0047 537.232 42.5572 537.232 39.8937V18.5286H530.863V14.4756H537.232V7.06436L541.922 5.61685V14.4756H550.896V18.5286H541.922V39.8358ZM555.896 28.8348C555.896 20.4972 561.917 13.8966 571.123 13.8966C580.272 13.8966 586.235 20.4972 586.235 28.8348C586.235 37.2303 580.272 43.831 571.123 43.831C561.917 43.831 555.896 37.2303 555.896 28.8348ZM560.643 28.8348C560.643 34.8564 564.291 39.7779 571.123 39.7779C577.898 39.7779 581.545 34.8564 581.545 28.8348C581.545 22.8711 577.898 17.9496 571.123 17.9496C564.291 17.9496 560.643 22.8711 560.643 28.8348ZM622.218 14.4756H624.766V18.5286H622.334C620.713 18.5286 619.671 18.876 618.571 19.6866C619.787 21.192 620.539 23.2764 620.539 25.7661C620.539 31.9614 615.676 35.8407 606.991 39.0252C613.707 37.9251 620.192 38.8515 620.192 45.2206C620.192 52.8634 612.317 53.8477 593.037 53.8477V49.7947C609.538 49.7947 615.444 49.3894 615.444 44.8732C615.444 38.5041 602.764 41.5728 595.642 43.7152L594.658 40.4148C599.29 39.141 603.864 37.8093 608.322 36.4197V35.088C599.058 37.4619 590.952 34.4511 590.952 25.5345C590.952 17.6022 597.437 13.8966 605.717 13.8966C609.191 13.8966 612.781 14.7651 615.502 16.6758C618.513 14.7651 619.613 14.4756 622.218 14.4756ZM605.775 33.4089C611.854 33.4089 615.791 31.2666 615.791 25.6503C615.791 20.0919 611.854 17.9496 605.775 17.9496C599.753 17.9496 595.7 20.0919 595.7 25.6503C595.7 31.2666 599.753 33.4089 605.775 33.4089ZM641.798 39.7779C647.877 39.7779 652.162 34.9722 652.162 27.2715V14.4756H656.852V43.252H652.162V38.2725L652.915 34.9722H651.583C650.425 40.1832 646.777 43.831 640.524 43.831C633.981 43.831 629.754 40.0674 629.754 32.0772V14.4756H634.502V31.4403C634.502 37.4619 636.818 39.7779 641.798 39.7779ZM667.547 33.8142L671.774 34.9143L667.258 51.7054L663.031 50.5474L667.547 33.8142ZM24.5793 70.4756V99.252H19.8315V74.5286H5.53019V99.252H0.782376V70.4756H24.5793ZM31.8539 84.8348C31.8539 76.4972 37.8756 69.8966 47.0817 69.8966C56.2299 69.8966 62.1936 76.4972 62.1936 84.8348C62.1936 93.2303 56.2299 99.831 47.0817 99.831C37.8756 99.831 31.8539 93.2303 31.8539 84.8348ZM36.6018 84.8348C36.6018 90.8564 40.2495 95.7779 47.0817 95.7779C53.856 95.7779 57.5037 90.8564 57.5037 84.8348C57.5037 78.8711 53.856 73.9496 47.0817 73.9496C40.2495 73.9496 36.6018 78.8711 36.6018 84.8348ZM92.8323 99.252H87.2739L77.0256 86.7455C76.5624 86.8613 76.0992 86.9192 75.5781 86.9192H73.5516V99.252H68.8037V70.4756H73.5516V82.6925H75.9255L83.3946 72.6179C84.4368 71.1704 85.7106 70.4756 87.6213 70.4756H92.1375V74.5286H87.4476L80.3838 84.0242L92.8323 99.252ZM97.2743 91.2617C97.2743 86.6876 99.9956 83.561 106.712 82.8662L118.176 81.7661C117.887 76.4972 115.05 73.8917 110.07 73.8917C105.901 73.8917 102.022 75.7445 102.022 81.1871H97.3901C97.3901 75.2234 101.906 69.8966 110.07 69.8966C118.118 69.8966 122.924 75.2234 122.924 82.9241V95.1989H127.151V99.252H122.056C119.855 99.252 118.639 98.036 118.639 95.8937V94.3304L119.392 91.3196H118.003C116.902 95.72 113.834 99.831 106.886 99.831C98.5481 99.831 97.2743 94.2725 97.2743 91.2617ZM102.022 90.6827C102.022 93.983 104.107 95.7779 107.465 95.7779C114.007 95.7779 118.176 91.2617 118.176 85.298L107.523 86.3981C103.875 86.7455 102.022 87.8456 102.022 90.6827ZM172.301 74.5286H167.611L160.2 84.4295L172.301 99.252H166.743L156.552 86.8613C156.321 86.9192 156.031 86.9192 155.742 86.9192H153.715V99.252H148.967V86.9192H146.941C146.651 86.9192 146.362 86.9192 146.13 86.8613L135.94 99.252H130.381L142.483 84.4295L135.071 74.5286H130.381V70.4756H134.956C136.808 70.4756 138.082 71.1704 139.124 72.6179L146.651 82.6925H148.967V70.4756H153.715V82.6925H156.031L163.558 72.6179C164.6 71.1704 165.874 70.4756 167.727 70.4756H172.301V74.5286ZM206.059 99.252H201.369V74.5865L202.122 71.8652H200.79L187.994 99.252H178.441V70.4756H183.189V95.0831L182.436 97.9202H183.768L196.564 70.4756H206.059V99.252ZM231.451 84.8348C231.451 76.4972 237.473 69.8966 246.679 69.8966C255.827 69.8966 261.791 76.4972 261.791 84.8348C261.791 93.2303 255.827 99.831 246.679 99.831C237.473 99.831 231.451 93.2303 231.451 84.8348ZM236.199 84.8348C236.199 90.8564 239.847 95.7779 246.679 95.7779C253.453 95.7779 257.101 90.8564 257.101 84.8348C257.101 78.8711 253.453 73.9496 246.679 73.9496C239.847 73.9496 236.199 78.8711 236.199 84.8348ZM268.401 70.4756H273.149V74.7023L272.396 78.0026H273.728C274.944 73.4864 278.765 69.8966 285.366 69.8966C293.703 69.8966 299.088 76.3235 299.088 84.8927C299.088 93.404 293.703 99.831 285.366 99.831C278.765 99.831 274.944 96.2411 273.728 91.7828H272.396L273.149 95.0252V109.79H268.401V70.4756ZM273.149 84.8927C273.149 92.5355 278.07 95.7779 283.976 95.7779C289.94 95.7779 294.34 92.4197 294.34 84.8927C294.34 77.3078 289.94 73.9496 283.976 73.9496C278.07 73.9496 273.149 77.192 273.149 84.8927ZM306.398 99.252V70.4756H326.489V74.5286H311.146V99.252H306.398ZM330.741 91.2617C330.741 86.6876 333.462 83.561 340.179 82.8662L351.643 81.7661C351.353 76.4972 348.516 73.8917 343.537 73.8917C339.368 73.8917 335.489 75.7445 335.489 81.1871H330.857C330.857 75.2234 335.373 69.8966 343.537 69.8966C351.585 69.8966 356.391 75.2234 356.391 82.9241V95.1989H360.617V99.252H355.522C353.322 99.252 352.106 98.036 352.106 95.8937V94.3304L352.859 91.3196H351.469C350.369 95.72 347.3 99.831 340.352 99.831C332.015 99.831 330.741 94.2725 330.741 91.2617ZM335.489 90.6827C335.489 93.983 337.573 95.7779 340.931 95.7779C347.474 95.7779 351.643 91.2617 351.643 85.298L340.989 86.3981C337.342 86.7455 335.489 87.8456 335.489 90.6827ZM387.011 70.4756H391.701V99.252H387.011V86.8613H370.799V99.252H366.051V70.4756H370.799V82.8083H387.011V70.4756ZM427.821 99.252H423.131V74.5865L423.884 71.8652H422.552L409.756 99.252H400.203V70.4756H404.951V95.0831L404.198 97.9202H405.53L418.326 70.4756H427.821V99.252ZM434.568 88.0193H439.2C439.2 94.0988 441.284 96.0674 446.9 96.0674C451.938 96.0674 453.559 94.2146 453.559 90.6827C453.559 87.3824 451.938 85.9349 448.406 85.9349H444.526V82.1135H448.406C451.938 82.1135 452.98 80.6081 452.98 77.9447C452.98 75.3971 451.764 73.6601 446.669 73.6601C441.052 73.6601 439.779 75.5708 439.779 79.4501H435.147C435.147 73.4285 438.91 69.8966 446.669 69.8966C453.906 69.8966 457.612 73.1969 457.612 77.4236C457.612 81.0134 455.412 82.8662 451.822 83.3294V84.6611C455.412 85.1822 458.191 87.0929 458.191 91.2038C458.191 96.4727 454.138 99.831 446.9 99.831C439.142 99.831 434.568 96.2411 434.568 88.0193ZM464.918 91.2617C464.918 86.6876 467.639 83.561 474.355 82.8662L485.82 81.7661C485.53 76.4972 482.693 73.8917 477.714 73.8917C473.545 73.8917 469.666 75.7445 469.666 81.1871H465.034C465.034 75.2234 469.55 69.8966 477.714 69.8966C485.762 69.8966 490.567 75.2234 490.567 82.9241V95.1989H494.794V99.252H489.699C487.499 99.252 486.283 98.036 486.283 95.8937V94.3304L487.036 91.3196H485.646C484.546 95.72 481.477 99.831 474.529 99.831C466.192 99.831 464.918 94.2725 464.918 91.2617ZM469.666 90.6827C469.666 93.983 471.75 95.7779 475.108 95.7779C481.651 95.7779 485.82 91.2617 485.82 85.298L475.166 86.3981C471.518 86.7455 469.666 87.8456 469.666 90.6827ZM520.428 70.4756V74.5286H509.6V99.252H504.853V74.5286H493.967V70.4756H520.428ZM522.535 84.8348C522.535 76.4972 528.557 69.8966 537.763 69.8966C546.911 69.8966 552.875 76.4972 552.875 84.8348C552.875 93.2303 546.911 99.831 537.763 99.831C528.557 99.831 522.535 93.2303 522.535 84.8348ZM527.283 84.8348C527.283 90.8564 530.931 95.7779 537.763 95.7779C544.537 95.7779 548.185 90.8564 548.185 84.8348C548.185 78.8711 544.537 73.9496 537.763 73.9496C530.931 73.9496 527.283 78.8711 527.283 84.8348ZM559.485 70.4756H564.233V74.7023L563.48 78.0026H564.812C566.028 73.4864 569.849 69.8966 576.45 69.8966C584.787 69.8966 590.172 76.3235 590.172 84.8927C590.172 93.404 584.787 99.831 576.45 99.831C569.849 99.831 566.028 96.2411 564.812 91.7828H563.48L564.233 95.0252V109.79H559.485V70.4756ZM564.233 84.8927C564.233 92.5355 569.154 95.7779 575.06 95.7779C581.024 95.7779 585.424 92.4197 585.424 84.8927C585.424 77.3078 581.024 73.9496 575.06 73.9496C569.154 73.9496 564.233 77.192 564.233 84.8927ZM596.324 91.2617C596.324 86.6876 599.045 83.561 605.762 82.8662L617.226 81.7661C616.936 76.4972 614.099 73.8917 609.12 73.8917C604.951 73.8917 601.072 75.7445 601.072 81.1871H596.44C596.44 75.2234 600.956 69.8966 609.12 69.8966C617.168 69.8966 621.974 75.2234 621.974 82.9241V95.1989H626.2V99.252H621.105C618.905 99.252 617.689 98.036 617.689 95.8937V94.3304L618.442 91.3196H617.052C615.952 95.72 612.883 99.831 605.935 99.831C597.598 99.831 596.324 94.2725 596.324 91.2617ZM601.072 90.6827C601.072 93.983 603.156 95.7779 606.514 95.7779C613.057 95.7779 617.226 91.2617 617.226 85.298L606.572 86.3981C602.925 86.7455 601.072 87.8456 601.072 90.6827ZM631.634 99.252V70.4756H641.13L647.904 97.9202H649.236L656.01 70.4756H665.563V99.252H660.816V74.6444L661.626 71.8652H660.237L653.346 99.252H643.851L636.961 71.8652H635.629L636.382 74.6444V99.252H631.634ZM28.4007 155.252H23.7108V130.586L24.4635 127.865H23.1318L10.3359 155.252H0.782376V126.476H5.53019V151.083L4.77749 153.92H6.10919L18.9051 126.476H28.4007V155.252ZM78.7477 126.476V155.252H73.9998V130.529H59.6985V155.252H54.9507V126.476H78.7477ZM86.0223 140.835C86.0223 132.497 92.0439 125.897 101.25 125.897C110.398 125.897 116.362 132.497 116.362 140.835C116.362 149.23 110.398 155.831 101.25 155.831C92.0439 155.831 86.0223 149.23 86.0223 140.835ZM90.7701 140.835C90.7701 146.856 94.4178 151.778 101.25 151.778C108.024 151.778 111.672 146.856 111.672 140.835C111.672 134.871 108.024 129.95 101.25 129.95C94.4178 129.95 90.7701 134.871 90.7701 140.835ZM143.752 126.476H148.905L136.399 154.962V163.011C136.399 165.211 135.125 166.542 132.403 166.427L121.287 165.906V161.853L131.651 162.374V154.962L119.086 126.476H124.297L133.33 148.883V151.083H134.719V148.883L143.752 126.476ZM177.034 126.476H181.782V155.252H177.034V144.83L159.027 145.988C156.306 146.162 155.032 144.772 155.032 142.051V126.476H159.78V141.935L177.034 140.777V126.476ZM189.1 147.262C189.1 142.688 191.822 139.561 198.538 138.866L210.002 137.766C209.713 132.497 206.876 129.892 201.896 129.892C197.727 129.892 193.848 131.744 193.848 137.187H189.216C189.216 131.223 193.732 125.897 201.896 125.897C209.944 125.897 214.75 131.223 214.75 138.924V151.199H218.977V155.252H213.882C211.681 155.252 210.466 154.036 210.466 151.894V150.33L211.218 147.32H209.829C208.729 151.72 205.66 155.831 198.712 155.831C190.374 155.831 189.1 150.273 189.1 147.262ZM193.848 146.683C193.848 149.983 195.933 151.778 199.291 151.778C205.834 151.778 210.002 147.262 210.002 141.298L199.349 142.398C195.701 142.746 193.848 143.846 193.848 146.683ZM222.235 140.835C222.235 132.555 227.619 125.897 236.941 125.897C242.5 125.897 249.621 129.023 250.374 137.361H245.568C244.758 131.86 241.11 129.95 236.941 129.95C230.109 129.95 226.982 134.929 226.982 140.835C226.982 146.799 230.109 151.778 236.941 151.778C241.11 151.778 244.758 149.867 245.568 144.367H250.374C249.621 152.704 242.5 155.831 236.941 155.831C227.619 155.831 222.235 149.172 222.235 140.835ZM279.497 126.476V130.529H268.67V155.252H263.922V130.529H253.037V126.476H279.497ZM285.081 155.252V126.476H295.503C302.393 126.476 307.025 127.865 307.025 133.366C307.025 138.114 303.783 139.272 301.467 139.445V140.835C305.288 140.893 309.168 142.167 309.168 147.667C309.168 153.283 304.536 155.252 297.646 155.252H285.081ZM289.713 138.403H295.503C300.193 138.403 302.393 138.171 302.393 134.118C302.393 130.818 300.193 130.239 295.503 130.239H289.713V138.403ZM289.713 151.488H297.646C302.278 151.488 304.536 150.909 304.536 147.088C304.536 143.035 302.278 142.167 297.646 142.167H289.713V151.488ZM337.751 126.476H342.904L330.398 154.962V163.011C330.398 165.211 329.124 166.542 326.403 166.427L315.286 165.906V161.853L325.65 162.374V154.962L313.086 126.476H318.297L327.329 148.883V151.083H328.719V148.883L337.751 126.476ZM371.96 112.695C371.96 118.601 368.544 122.654 362.927 122.654C357.253 122.654 353.837 118.601 353.837 112.695H357.716C357.716 116.922 359.222 118.891 362.927 118.891C366.633 118.891 368.081 116.922 368.081 112.695H371.96ZM376.65 155.252H371.96V130.586L372.713 127.865H371.381L358.585 155.252H349.031V126.476H353.779V151.083L353.027 153.92H354.358L367.154 126.476H376.65V155.252ZM403.2 155.252V126.476H413.622C420.512 126.476 425.144 127.865 425.144 133.366C425.144 138.114 421.902 139.272 419.586 139.445V140.835C423.407 140.893 427.286 142.167 427.286 147.667C427.286 153.283 422.654 155.252 415.764 155.252H403.2ZM407.832 138.403H413.622C418.312 138.403 420.512 138.171 420.512 134.118C420.512 130.818 418.312 130.239 413.622 130.239H407.832V138.403ZM407.832 151.488H415.764C420.396 151.488 422.654 150.909 422.654 147.088C422.654 143.035 420.396 142.167 415.764 142.167H407.832V151.488ZM453.297 126.476H458.045V130.702L457.292 134.003H458.624C459.84 129.486 463.661 125.897 470.262 125.897C478.599 125.897 483.984 132.323 483.984 140.893C483.984 149.404 478.599 155.831 470.262 155.831C463.661 155.831 459.84 152.241 458.624 147.783H457.292L458.045 151.025V165.79H453.297V126.476ZM458.045 140.893C458.045 148.536 462.966 151.778 468.872 151.778C474.836 151.778 479.236 148.42 479.236 140.893C479.236 133.308 474.836 129.95 468.872 129.95C462.966 129.95 458.045 133.192 458.045 140.893ZM490.136 140.835C490.136 132.497 496.158 125.897 505.364 125.897C514.512 125.897 520.476 132.497 520.476 140.835C520.476 149.23 514.512 155.831 505.364 155.831C496.158 155.831 490.136 149.23 490.136 140.835ZM494.884 140.835C494.884 146.856 498.531 151.778 505.364 151.778C512.138 151.778 515.786 146.856 515.786 140.835C515.786 134.871 512.138 129.95 505.364 129.95C498.531 129.95 494.884 134.871 494.884 140.835ZM527.242 144.019H531.874C531.874 150.099 533.958 152.067 539.574 152.067C544.612 152.067 546.233 150.215 546.233 146.683C546.233 143.382 544.612 141.935 541.08 141.935H537.201V138.114H541.08C544.612 138.114 545.654 136.608 545.654 133.945C545.654 131.397 544.438 129.66 539.343 129.66C533.727 129.66 532.453 131.571 532.453 135.45H527.821C527.821 129.428 531.584 125.897 539.343 125.897C546.58 125.897 550.286 129.197 550.286 133.424C550.286 137.013 548.086 138.866 544.496 139.329V140.661C548.086 141.182 550.865 143.093 550.865 147.204C550.865 152.473 546.812 155.831 539.574 155.831C531.816 155.831 527.242 152.241 527.242 144.019ZM569.461 134.755C576.294 134.755 581.794 136.956 581.794 145.004C581.794 153.052 576.294 155.252 569.461 155.252H558.75V126.476H563.498V134.755H569.461ZM585.847 155.252V126.476H590.537V155.252H585.847ZM563.498 151.199H568.882C573.746 151.199 577.046 150.62 577.046 145.004C577.046 139.387 573.746 138.808 568.882 138.808H563.498V151.199ZM599.065 155.252V126.476H619.157V130.529H603.813V155.252H599.065ZM624.623 126.476H629.37V130.702L628.618 134.003H629.949C631.165 129.486 634.987 125.897 641.587 125.897C649.925 125.897 655.31 132.323 655.31 140.893C655.31 149.404 649.925 155.831 641.587 155.831C634.987 155.831 631.165 152.241 629.949 147.783H628.618L629.37 151.025V165.79H624.623V126.476ZM629.37 140.893C629.37 148.536 634.292 151.778 640.198 151.778C646.161 151.778 650.562 148.42 650.562 140.893C650.562 133.308 646.161 129.95 640.198 129.95C634.292 129.95 629.37 133.192 629.37 140.893ZM673.331 134.755C680.163 134.755 685.664 136.956 685.664 145.004C685.664 153.052 680.163 155.252 673.331 155.252H662.62V126.476H667.367V134.755H673.331ZM689.717 155.252V126.476H694.407V155.252H689.717ZM667.367 151.199H672.752C677.616 151.199 680.916 150.62 680.916 145.004C680.916 139.387 677.616 138.808 672.752 138.808H667.367V151.199ZM734.085 126.476H738.833V155.252H702.935V126.476H707.683V151.199H718.51V126.476H723.258V151.199H734.085V126.476ZM746.107 140.487C746.107 131.223 751.897 125.897 760.061 125.897C768.167 125.897 773.493 131.05 773.493 139.908V141.761H750.739C751.028 147.204 753.634 151.894 760.755 151.894C765.503 151.894 768.688 149.578 769.73 145.177H774.478C773.378 149.636 769.904 155.831 760.755 155.831C750.449 155.831 746.107 148.767 746.107 140.487ZM750.739 138.171H768.861C768.861 133.539 765.793 129.892 760.061 129.892C754.386 129.892 750.739 133.539 750.739 138.171ZM784.825 114.432H789.572L788.993 141.24H785.346L784.825 114.432ZM787.141 155.831C784.419 155.831 782.335 153.747 782.335 150.967C782.335 148.304 784.419 146.22 787.141 146.22C789.804 146.22 791.946 148.304 791.946 150.967C791.946 153.747 789.804 155.831 787.141 155.831Z" fill="black"/>
</svg>
