<svg width="588" height="71" viewBox="0 0 588 71" fill="none" xmlns="http://www.w3.org/2000/svg">
<path d="M0.0795818 43.6601H7.9926C7.9926 58.4246 14.3616 63.8286 28.0647 63.8286C40.4167 63.8286 45.6277 58.8106 45.6277 49.6431C45.6277 40.6686 40.7062 37.1946 32.5037 37.1946H23.0466V30.4395H32.5037C40.7062 30.4395 44.6627 27.062 44.6627 19.728C44.6627 12.394 40.4167 7.37598 28.0647 7.37598C14.3616 7.37598 8.95761 12.78 8.95761 23.8775H1.04458C1.04458 8.72698 10.5981 0.620964 28.0647 0.620964C44.3732 0.620964 52.5757 8.24448 52.5757 18.6665C52.5757 26.9655 48.1367 31.308 39.4517 32.6591V34.8786C48.1367 36.6156 53.5407 40.3791 53.5407 50.8011C53.5407 62.9601 44.3732 70.5837 28.0647 70.5837C10.5981 70.5837 0.0795818 62.4776 0.0795818 43.6601ZM75.6159 70.5837C71.0804 70.5837 67.6064 67.1096 67.6064 62.4776C67.6064 58.0386 71.0804 54.5646 75.6159 54.5646C80.0549 54.5646 83.6254 58.0386 83.6254 62.4776C83.6254 67.1096 80.0549 70.5837 75.6159 70.5837ZM198.59 35.7471C198.59 49.0641 189.326 59.8721 167.131 60.9336V69.6187H159.604V60.9336C137.312 59.8721 128.048 49.0641 128.048 35.7471C128.048 22.5265 137.312 11.7185 159.604 10.657V1.58597H167.131V10.657C189.326 11.7185 198.59 22.5265 198.59 35.7471ZM135.961 35.7471C135.961 45.4936 141.751 53.2136 159.604 54.1786V17.412C141.751 18.377 135.961 26.097 135.961 35.7471ZM167.131 54.1786C184.887 53.2136 190.677 45.4936 190.677 35.7471C190.677 26.097 184.887 18.377 167.131 17.412V54.1786ZM205.629 45.5901C205.629 31.694 215.665 20.693 231.009 20.693C246.256 20.693 256.195 31.694 256.195 45.5901C256.195 59.5826 246.256 70.5837 231.009 70.5837C215.665 70.5837 205.629 59.5826 205.629 45.5901ZM213.542 45.5901C213.542 55.6261 219.622 63.8286 231.009 63.8286C242.299 63.8286 248.379 55.6261 248.379 45.5901C248.379 35.6506 242.299 27.448 231.009 27.448C219.622 27.448 213.542 35.6506 213.542 45.5901ZM304.837 21.658V28.413H286.791V69.6187H278.878V28.413H260.736V21.658H304.837ZM308.349 45.5901C308.349 31.694 318.385 20.693 333.729 20.693C348.976 20.693 358.915 31.694 358.915 45.5901C358.915 59.5826 348.976 70.5837 333.729 70.5837C318.385 70.5837 308.349 59.5826 308.349 45.5901ZM316.262 45.5901C316.262 55.6261 322.342 63.8286 333.729 63.8286C345.019 63.8286 351.099 55.6261 351.099 45.5901C351.099 35.6506 345.019 27.448 333.729 27.448C322.342 27.448 316.262 35.6506 316.262 45.5901ZM370.192 50.8976H377.912C377.912 61.0301 381.386 64.3111 390.747 64.3111C399.142 64.3111 401.844 61.2231 401.844 55.3366C401.844 49.8361 399.142 47.4236 393.256 47.4236H386.79V41.0546H393.256C399.142 41.0546 400.879 38.5456 400.879 34.1066C400.879 29.8605 398.853 26.9655 390.361 26.9655C381 26.9655 378.877 30.15 378.877 36.6156H371.157C371.157 26.5795 377.43 20.693 390.361 20.693C402.423 20.693 408.599 26.1935 408.599 33.2381C408.599 39.2211 404.932 42.3091 398.949 43.0811V45.3006C404.932 46.1691 409.564 49.3536 409.564 56.2051C409.564 64.9866 402.809 70.5837 390.747 70.5837C377.816 70.5837 370.192 64.6006 370.192 50.8976ZM420.776 45.5901C420.776 31.694 430.812 20.693 446.155 20.693C461.402 20.693 471.342 31.694 471.342 45.5901C471.342 59.5826 461.402 70.5837 446.155 70.5837C430.812 70.5837 420.776 59.5826 420.776 45.5901ZM428.689 45.5901C428.689 55.6261 434.768 63.8286 446.155 63.8286C457.446 63.8286 463.525 55.6261 463.525 45.5901C463.525 35.6506 457.446 27.448 446.155 27.448C434.768 27.448 428.689 35.6506 428.689 45.5901ZM517.292 21.658H525.108V69.6187H517.292V48.9676H490.272V69.6187H482.359V21.658H490.272V42.2126H517.292V21.658ZM537.349 56.3016C537.349 48.6781 541.884 43.4671 553.078 42.3091L572.185 40.4756C571.703 31.694 566.974 27.3515 558.675 27.3515C551.727 27.3515 545.262 30.4395 545.262 39.5106H537.542C537.542 29.571 545.069 20.693 558.675 20.693C572.089 20.693 580.098 29.571 580.098 42.4056V62.8636H587.143V69.6187H578.651C574.984 69.6187 572.957 67.5921 572.957 64.0216V61.4161L574.212 56.3981H571.896C570.062 63.7321 564.948 70.5837 553.368 70.5837C539.472 70.5837 537.349 61.3196 537.349 56.3016ZM545.262 55.3366C545.262 60.8371 548.736 63.8286 554.333 63.8286C565.237 63.8286 572.185 56.3016 572.185 46.3621L554.429 48.1956C548.35 48.7746 545.262 50.6081 545.262 55.3366Z" fill="black"/>
</svg>
